<svg xmlns="http://www.w3.org/2000/svg" width="36.092" height="36.087" viewBox="0 0 36.092 36.087">
  <path id="Exclusion_5" data-name="Exclusion 5" d="M-17293.957-7283.912a17.94,17.94,0,0,1-7.023-1.417,17.962,17.962,0,0,1-5.734-3.867,17.949,17.949,0,0,1-3.867-5.735,17.924,17.924,0,0,1-1.418-7.024,17.928,17.928,0,0,1,1.418-7.024,17.931,17.931,0,0,1,3.867-5.735,17.952,17.952,0,0,1,5.734-3.867,17.932,17.932,0,0,1,7.023-1.418,17.948,17.948,0,0,1,7.025,1.418,17.965,17.965,0,0,1,5.736,3.867,17.943,17.943,0,0,1,3.867,5.735,17.919,17.919,0,0,1,1.42,7.024,17.915,17.915,0,0,1-1.42,7.024,17.961,17.961,0,0,1-3.867,5.735,18,18,0,0,1-5.736,3.867A17.957,17.957,0,0,1-17293.957-7283.912Zm-5.848-21.671-.8.8-.691.691-2.529,2.533-.689.687-2.529,2.533,2.529,2.529.689.69,2.529,2.533.691.691.83.83h5.061l-.83-.83-2.527-2.533-.691-.691-2.533-2.528-.691-.691.691-.691,2.533-2.529.691-.69,2.527-2.533.8-.8h-5.061Zm6.93,0-1.49,1.49-2.533,2.533-.691.687-2.527,2.533,2.527,2.529,2.533-2.529.691-.691,2.533-2.529,4.02-4.023Zm-.309-7.256,0,.009,7.26,7.264-7.238,7.239h5.057l4.715-4.71,2.529-2.529-2.529-2.533-4.74-4.74Z" transform="translate(17312 7320)" fill="#e01705"/>
</svg>
