<svg xmlns="http://www.w3.org/2000/svg" xmlns:xlink="http://www.w3.org/1999/xlink" viewBox="0 0 971.79 201.71"><defs><style>.cls-1{fill:url(#Dégradé_sans_nom_13);}.cls-2{fill:#0a1f44;}.cls-3{fill:#fff;}</style><linearGradient id="Dégradé_sans_nom_13" x1="151.29" y1="13.5" x2="50.42" y2="188.21" gradientUnits="userSpaceOnUse"><stop offset="0" stop-color="#7540ee"/><stop offset="0.88" stop-color="#5e22e6"/></linearGradient></defs><title>Frontendor Logo</title><g id="Calque_2" data-name="Calque 2"><g id="Calque_1_-_copie_3" data-name="Calque 1 - copie 3"><circle class="cls-1" cx="100.85" cy="100.85" r="100.85"/><path class="cls-2" d="M267.17,78.65v26.88h42.65v13.88H267.17v33.82H250.76V64.9h64.49V78.65Z"/><path class="cls-2" d="M367.36,85.09v15a20.15,20.15,0,0,0-3.66-.37c-12,0-19.56,7.06-19.56,20.82v32.68H328.37V85.84h15v9.85C347.93,88.62,356.13,85.09,367.36,85.09Z"/><path class="cls-2" d="M374.55,119.54c0-20.19,15.15-34.45,35.84-34.45,20.95,0,36,14.26,36,34.45s-15,34.57-36,34.57C389.7,154.11,374.55,139.73,374.55,119.54Zm55.91,0c0-12.87-8.59-21.08-20.07-21.08s-19.94,8.21-19.94,21.08,8.58,21.07,19.94,21.07S430.46,132.41,430.46,119.54Z"/><path class="cls-2" d="M527.87,114.62v38.61H512.1v-36.6c0-12-5.93-17.79-16-17.79-11.23,0-18.8,6.82-18.8,20.32v34.07H461.49V85.84h15v8.71c5.17-6.18,13.38-9.46,23.22-9.46C515.88,85.09,527.87,94.3,527.87,114.62Z"/><path class="cls-2" d="M588.44,149.57c-3.79,3-9.47,4.54-15.14,4.54-14.77,0-23.22-7.82-23.22-22.71V99H539V86.35h11.11V71h15.77v15.4h18V99h-18V131c0,6.56,3.28,10.1,9.34,10.1a14.2,14.2,0,0,0,8.83-2.78Z"/><path class="cls-2" d="M662.26,124.58H609.38c1.9,9.85,10.1,16.16,21.84,16.16,7.57,0,13.5-2.4,18.29-7.32l8.46,9.71c-6.06,7.2-15.52,11-27.13,11-22.59,0-37.23-14.51-37.23-34.57s14.77-34.45,34.83-34.45c19.69,0,34.07,13.75,34.07,34.83C662.51,121.18,662.38,123.07,662.26,124.58Zm-53-10.47h38.23c-1.26-9.72-8.7-16.4-19-16.4S610.77,104.27,609.26,114.11Z"/><path class="cls-2" d="M744,114.62v38.61H728.25v-36.6c0-12-5.93-17.79-16-17.79-11.23,0-18.81,6.82-18.81,20.32v34.07H677.65V85.84h15v8.71c5.17-6.18,13.37-9.46,23.22-9.46C732,85.09,744,94.3,744,114.62Z"/><path class="cls-2" d="M830.71,59.6v93.63H815.57v-8.71c-5.3,6.44-13.12,9.59-22.33,9.59-19.56,0-34.08-13.63-34.08-34.57s14.52-34.45,34.08-34.45c8.7,0,16.4,2.9,21.7,9.08V59.6Zm-15.52,59.94c0-12.87-8.7-21.08-20.06-21.08s-20.07,8.21-20.07,21.08,8.71,21.07,20.07,21.07S815.19,132.41,815.19,119.54Z"/><path class="cls-2" d="M845.85,119.54c0-20.19,15.15-34.45,35.84-34.45,20.95,0,36,14.26,36,34.45s-15,34.57-36,34.57C861,154.11,845.85,139.73,845.85,119.54Zm55.91,0c0-12.87-8.58-21.08-20.07-21.08s-19.94,8.21-19.94,21.08,8.59,21.07,19.94,21.07S901.76,132.41,901.76,119.54Z"/><path class="cls-2" d="M971.79,85.09v15a20.24,20.24,0,0,0-3.66-.37c-12,0-19.56,7.06-19.56,20.82v32.68H932.8V85.84h15v9.85C952.35,88.62,960.56,85.09,971.79,85.09Z"/><polygon class="cls-3" points="80.55 106.9 66.41 121.05 80.55 135.19 94.7 121.05 98.56 117.19 112.7 103.05 135.17 80.58 106.88 80.58 98.56 88.9 84.41 103.05 80.55 106.9"/><polygon class="cls-3" points="77.84 142.91 73.98 139.05 59.84 124.91 55.98 121.05 59.84 117.19 73.98 103.05 77.84 99.19 91.98 85.05 96.45 80.58 87.51 80.58 68.17 80.58 63.7 85.05 59.84 88.9 45.7 103.05 41.84 106.9 27.7 121.05 41.84 135.19 45.7 139.05 59.84 153.19 63.7 157.05 68.34 161.69 87.34 161.69 96.63 161.69 91.98 157.05 77.84 142.91"/><polygon class="cls-3" points="159.87 66.52 133.37 40.02 105.17 40.02 105.13 40.06 145.73 80.66 105.26 121.13 133.54 121.13 159.87 94.81 174.01 80.66 159.87 66.52"/></g></g></svg>