<svg xmlns="http://www.w3.org/2000/svg" xmlns:xlink="http://www.w3.org/1999/xlink" viewBox="0 0 201.71 201.71"><defs><style>.cls-1{fill:url(#Dégradé_sans_nom_13);}.cls-2{fill:#fff;}</style><linearGradient id="Dégradé_sans_nom_13" x1="151.29" y1="13.5" x2="50.42" y2="188.21" gradientUnits="userSpaceOnUse"><stop offset="0" stop-color="#7540ee"/><stop offset="0.88" stop-color="#5e22e6"/></linearGradient></defs><title>Logo Alone</title><g id="Calque_2" data-name="Calque 2"><g id="Calque_1_-_copie_3" data-name="Calque 1 - copie 3"><circle class="cls-1" cx="100.85" cy="100.85" r="100.85"/><polygon class="cls-2" points="80.55 106.9 66.41 121.05 80.55 135.19 94.7 121.05 98.56 117.19 112.7 103.05 135.17 80.58 106.88 80.58 98.56 88.9 84.41 103.05 80.55 106.9"/><polygon class="cls-2" points="77.84 142.91 73.98 139.05 59.84 124.91 55.98 121.05 59.84 117.19 73.98 103.05 77.84 99.19 91.98 85.05 96.45 80.58 87.51 80.58 68.17 80.58 63.7 85.05 59.84 88.9 45.7 103.05 41.84 106.9 27.7 121.05 41.84 135.19 45.7 139.05 59.84 153.19 63.7 157.05 68.34 161.69 87.34 161.69 96.63 161.69 91.98 157.05 77.84 142.91"/><polygon class="cls-2" points="159.87 66.52 133.37 40.02 105.17 40.02 105.13 40.06 145.73 80.66 105.26 121.13 133.54 121.13 159.87 94.81 174.01 80.66 159.87 66.52"/></g></g></svg>