<svg xmlns="http://www.w3.org/2000/svg" id="prefix__MessyDoodle" width="285" height="226.116" viewBox="0 0 285 226.116">
    <defs>
        <style>
            .prefix__cls-1,.prefix__cls-2{fill:#7540ee;fill-rule:evenodd}.prefix__cls-2{fill:#041531}
        </style>
    </defs>
    <g id="prefix__Groupe_670" data-name="Groupe 670">
        <g id="prefix__Groupe_668" data-name="Groupe 668" transform="translate(67.423 55.94)">
            <path id="prefix__Tracé_1991" d="M293.322 144.552a4.793 4.793 0 0 0-1.4-1.052 1.017 1.017 0 0 1 .015 1.093c-.165.357-.276.736-.435 1.1a5.916 5.916 0 0 0-.353.748c-.082.3-.039.6-.148.889a12.051 12.051 0 0 0 3.533-1.921c-.2-.03-.745-.02-.918-.17-.141-.122-.17-.506-.293-.685" class="prefix__cls-1" data-name="Tracé 1991" transform="translate(-205.324 -101.104)"/>
            <path id="prefix__Tracé_1992" d="M329.295 69.645c.563.448.563.448.582 1.209a1.125 1.125 0 0 1-.582-1.209m-27.251 2c-.26.021-.323-.73-.38-.95l.256-.036c.117.126.579.948.124.986m39.092 7.689a54.625 54.625 0 0 1 1.414-6.052c.292-.973.621-1.936.975-2.887a12.435 12.435 0 0 0 .994-2.582 27.1 27.1 0 0 0-2.49 2.856c-.767.921-1.571 1.824-2.3 2.779a2.43 2.43 0 0 0-.58 1.335 2.708 2.708 0 0 0 .519 1.344 7.471 7.471 0 0 1 .511 1.6 2.034 2.034 0 0 1-.268 1.366 2.781 2.781 0 0 1-1.085-.694c-.325-.4-.6-.842-.906-1.253-.669-.9-1.345-1.785-2.01-2.683a37.59 37.59 0 0 1-3.5-5.625c-1.013-2.029-1.92-4.114-2.908-6.156-.208-.43-.293-.9-.848-.9a4.68 4.68 0 0 0-1.143.356 1.3 1.3 0 0 1-.292.051.722.722 0 0 1-.048.284c-.1.123-.138.074-.279.066-.163-.009-.281-.111-.459-.1a3.33 3.33 0 0 0-.721.254v-.565c-.739.379-2.53 1.65-2.919.21-.034.262.037.735-.221.9-.17.111-.386 0-.57.019a3.184 3.184 0 0 0-.649.275c-.014-.388-.31-.344-.6-.4a3.052 3.052 0 0 0-1.08-.208c-.381.066-.657.237-1.04.031-.257-.138-.5-.331-.757-.477a.816.816 0 0 1-.423-.513c-.125-.291-.1-.225-.4-.143-.636.176-.883-.59-1-1.11a4.317 4.317 0 0 1 .879-3.652 17.337 17.337 0 0 1 3.631-3.45 15.811 15.811 0 0 1 4.209-2.318 72.654 72.654 0 0 0-4.487-7.792c-.442.1-.706.341-1.178.266-.372-.059-.355-.03-.493.357-.123.346-.191.4-.521.5s-.07-.1-.326.166a2.152 2.152 0 0 1-.318.35c-.518.363-1.2.154-1.759.38-.389.156-.2.355-.4.625-.211.285-.568.136-.86.09-.609-.1-.792.109-.92.682-.1.424-.159.645-.614.734-.258.051-.659-.155-.825.011-.063.064-.037.242-.066.324a1.151 1.151 0 0 1-.253.388 2.356 2.356 0 0 1-.806.553c-.28.117-.575.052-.84.154-.418.161-.316.6-.3.957-.237-.057-.292-.05-.434-.229-.065-.082-.029-.219-.157-.254a2.111 2.111 0 0 0-.788.44c-.246.305 0 .736-.06 1.091a1.989 1.989 0 0 1-.577.88l-.223-.644c-.111.143-.265.246-.312.426-.025.094.051.219.009.314-.12.266-.239.1-.463.107-.2.008-.725.158-.632.466.063.207.472.159.423.44-.059.342-.5.118-.683.189-.235.093-.142.294-.223.5-.141.358-.426.39-.722.566a1.291 1.291 0 0 0-.539.682c-.167.372-.149.272-.509.239-.221-.02-.337.025-.425.229-.072.167.051.372-.012.526-.077.189-.478.4-.617.6a15.628 15.628 0 0 0-.845 1.728 6.032 6.032 0 0 1-.463.715c-.228.3-.37.246-.678.409-.5.264-.353.962-.408 1.423a1.058 1.058 0 0 1-.257.637c-.1.107-.46.23-.389.443.086.259.373-.018.318.385-.043.322-.409.585-.491.907-.056.221.018.432-.04.656a5.746 5.746 0 0 1-.345.658c-.092.23.053.521-.026.7-.092.2-.43.151-.521.416-.1.289.133.744.175 1.04.027.189.126.395-.033.55-.136.132-.458.109-.319.437.064.152.305.12.332.349.02.177-.184.445-.294.564-.294.318-.851.583-.45.988.069.07.154.037.219.132a1.9 1.9 0 0 1 .13.434 3.347 3.347 0 0 0 .438.848c.705.994 1.873 1.462 2.651 2.365.948-.943 1.918-1.864 2.81-2.86a25.406 25.406 0 0 1 2.356-2.459 9.38 9.38 0 0 0 1.331-1.152 9.51 9.51 0 0 0 .757-1.488c.531-.963 1.3-1.772 1.865-2.711 1.116.727.65 2.585.329 3.627a9.421 9.421 0 0 1-.8 1.829 6.373 6.373 0 0 0-.8 1.54 1.427 1.427 0 0 0 .313 1.2c.376.528.816 1.022 1.213 1.537l2.894 3.757c.349-.5.926-.174 1.39-.077a18.583 18.583 0 0 0 2.071.157c.722.068 1.452.188 2.168.3.64.1.215.4.525.754.655-1.181 1.908-.434 2.931-.33.642.066 1.324.031 1.953.112s1.264.3 1.922.361c1.241.119 2.363.547 3.581.769.643.118 1.292.2 1.936.319.228.042.631.063.759.3.151.279-.156.868-.239 1.119a4.288 4.288 0 0 1-.464 1.262c-.2.241-.245.095-.5.084-.291-.012-.173.05-.374.275a1.286 1.286 0 0 1-.941.311c-.157.014-.471-.014-.593.1-.171.154-.023.164-.036.4-.023.412-.592.719-.925.88a1.357 1.357 0 0 1-.683.171c-.151-.011-.331-.156-.483-.1-.215.086-.2.492-.324.664-.231.318-.541.082-.844.243-.363.193-.569.65-.913.877-.683.449-1.469.5-1.809-.344-.136.282-.457.72-.337 1a1.487 1.487 0 0 0 .672.562c.667.362 1.321.723 1.96 1.136a46.943 46.943 0 0 0 4.454 2.767 19.994 19.994 0 0 0 4.879 1.934 8.589 8.589 0 0 0 5.174-.6 2.732 2.732 0 0 1-.3-1.352q-.021-.785-.032-1.57c-.013-1.045-.007-2.09.03-3.135a43.591 43.591 0 0 1 .674-6.227" class="prefix__cls-1" data-name="Tracé 1992" transform="translate(-210.263 -30.546)"/>
            <path id="prefix__Tracé_1993" d="M464.787 115.23a8.423 8.423 0 0 1-.373-1.732c-.026-.422.131-1.048-.121-1.415-.106-.156-.3-.211-.359-.4a4.351 4.351 0 0 1 .006-.618 5.092 5.092 0 0 0-.381-1.235c-.358-.91-.369-1.866-.668-2.788-.164-.506-.471-.937-.651-1.434a6.04 6.04 0 0 1-.3-1.407 11.414 11.414 0 0 0-.177-1.513c-.114-.466-.256-.923-.359-1.392a25.721 25.721 0 0 0-.921-3.286c-.148-.407-.255-1.089-.616-1.362a1.31 1.31 0 0 0-.911-.127 1.033 1.033 0 0 0-.861.329 12.666 12.666 0 0 1-.823 1.118c-.348.353-.781.658-1.094 1.041-.245.3-.1.4.159.661-.341.044-.622-.05-.871.209a4.3 4.3 0 0 0-.606 1.023 6.386 6.386 0 0 0-.511 2.17l-.288-.449a1.256 1.256 0 0 1-.65.812c-.43.168-.417.113-.418.6 0 .693-.577 1.129-.94 1.653a5.1 5.1 0 0 0-.534.961 2.062 2.062 0 0 0-.022 1.135c.061.648-.564 1.145-.94 1.6a1.183 1.183 0 0 0-.25.388c-.049.13.019.212-.079.351-.177.251-.546.184-.688.491-.133.288.052.578.081.863a3.059 3.059 0 0 1-.377 1.29 6.543 6.543 0 0 0-.348 1.393 5.107 5.107 0 0 0-.038.827c0 .128.1.449.019.565-.108.15-.346-.022-.445.145-.2.342.556.451.7.5a2.508 2.508 0 0 0-.55.346c-.189.208-.072.332-.15.565-.086.255-.392.324-.487.549s.093.28.193.472a2.736 2.736 0 0 1-.072 1.647c-.039.192-.021.693-.141.842-.077.1-.249.06-.316.144-.141.175.007.245.065.446a1.457 1.457 0 0 1-.007.778c-.064.24-.221.462-.265.706-.048.268.085.36.177.609a4.034 4.034 0 0 1-.009 1.808 13.047 13.047 0 0 1-.022 1.89l-.55-.237.174.87.086.429q-.054.279.187.221c.315.091.8-.405 1.06-.552.78-.441 1.622-.757 2.432-1.138a19.12 19.12 0 0 0 2.317-1.434c.794-.519 1.632-.964 2.406-1.513 3.35-2.377 6.981-4.382 10.474-6.545-.978.111-1.156-1.186-1.35-1.876" class="prefix__cls-1" data-name="Tracé 1993" transform="translate(-315.394 -67.941)"/>
            <path id="prefix__Tracé_1994" d="M502.092 47.969c.524.152.4.6.205.982-.2-.19-.557-.414-.652-.686-.117-.338.145-.384.447-.3M516.745 61.1c-.028.135-.058.685-.162.77s-.577-.032-.7-.038a3.5 3.5 0 0 0-1.1.156c-.659.163-.778-.247-.781-.86a3.139 3.139 0 0 1-2.428 1.693 11.431 11.431 0 0 1-1.487.21 5.53 5.53 0 0 1-1.136-.079c-.229-.04-.437-.18-.653-.221-.472-.088-.047.252-.388.343a5.115 5.115 0 0 1-.548-.128c-.209-.012-.419.022-.628.011-.473-.025-.628-.288-1-.491a.749.749 0 0 0-.542-.061c-.232.032-.056.109-.326.062a1.854 1.854 0 0 1-.317-.145 3.943 3.943 0 0 1-1.307-.833c-.289-.292-.654-.488-.942-.777-.1-.1-.161-.232-.252-.34-.119-.14-.127-.1-.277-.209a1.074 1.074 0 0 1-.407-.373 2.831 2.831 0 0 1-.2-1.119 5.851 5.851 0 0 1 .7-3.359c.625-1.16 1.143-2.387 1.875-3.486a22.51 22.51 0 0 1 2.307-2.8 5.055 5.055 0 0 1 .76-.727c.181-.125.418-.181.589-.317.407-.325.209-.922.209-1.374.128.227.33.567.638.493.2-.049.209-.277.356-.366.113-.069.245-.034.37-.047a59.412 59.412 0 0 0-1.918-7.187c-2.166 2.126-4.334 4.267-6.437 6.455-1.085 1.129-2.087 2.334-3.167 3.468-1.135 1.192-2.3 2.359-3.443 3.538a4.025 4.025 0 0 1 .883.9 5.034 5.034 0 0 0 .69.934 10.082 10.082 0 0 1 1.277 2.554.522.522 0 0 1 .075.361c-.012.09-.105.17-.107.28a.513.513 0 0 0 .147.338c.078.1.306.212.325.342.023.155-.136.258-.189.4-.233.636.532 1.087.79 1.586a.761.761 0 0 1 .025.825c-.149.224-.479.311-.3.652.109.214.414.1.369.393-.024.159-.332.308-.044.483.233.141.509-.111.4.326-.048.2-.31.392-.235.61s.454.247.6.414a1.632 1.632 0 0 1 .315.835c.129.932.343 1.777.557 2.692.143.613-.225.624-.77.628.367.515.729 1.031 1.12 1.528a5.609 5.609 0 0 1 .663 1.827q.324 1.059.637 2.122a1.423 1.423 0 0 1 .034.962.946.946 0 0 0-.077.761c1.7-.974 3.3-2.057 4.914-3.17.772-.533 1.547-1.065 2.311-1.611a5.442 5.442 0 0 0 1.581-1.537 23.675 23.675 0 0 1 3.42-3.913 12.056 12.056 0 0 1 1.926-1.917c.722-.47 1.488-.885 2.216-1.352l-.809-1.11" class="prefix__cls-1" data-name="Tracé 1994" transform="translate(-348.556 -27.723)"/>
            <path id="prefix__Tracé_1995" d="M367.737 167.895c.692-.33 1.33-.773 2-1.14a7.834 7.834 0 0 0 1.616-.913 2.618 2.618 0 0 1 .653-.376 5.906 5.906 0 0 0 .829-.635 6.43 6.43 0 0 0-2.187-.712 5.727 5.727 0 0 1-1.016.055 2.183 2.183 0 0 1-.91-.456c-.51-.378-.736-.322-1.289-.009-.132.075-.312.242-.473.237-.26-.008-.221-.168-.333-.346-.1-.162.028-.181-.16-.186-.113 0-.164.153-.29.178-.239.047-.691-.187-.931-.231a4.224 4.224 0 0 0-1.111.04 3.124 3.124 0 0 1-1.2-.2c-.354-.12-.694-.29-1.051-.4-.466-.14-.56.042-.991.141-.655.151-1.291-.793-1.891-.294a24.549 24.549 0 0 0 3.2 3.454 24.213 24.213 0 0 0 1.861 1.68c.3.235.6.463.9.692.137.1.274.208.41.313.244.189.222.245.454.137.312-.146.553-.455.9-.6s.687-.266 1.02-.424" class="prefix__cls-1" data-name="Tracé 1995" transform="translate(-253.303 -114.51)"/>
            <path id="prefix__Tracé_1996" d="M373.818 78.417c.025.577.383 1.049-.123 1.537l-.045-.859c-.016-.3-.166-.622.167-.678m-.564-2.514a.885.885 0 0 1-.433.56c-.341.183-.815-.113-1.052.146s-.211.876-.523 1.089c-.1.068-.21.021-.329.11-.1.077-.106.259-.21.339-.17.131-.316 0-.476.074-.18.086-.21.291-.258.471s-.046.4-.176.543a3.833 3.833 0 0 1-.716.407l-2.08 1.3c.206.209.663.447.715.755.036.21-.11.234.065.4a2.6 2.6 0 0 0 .455.2 5.174 5.174 0 0 0 1.222.464c.512.111 1.024.059 1.533.181a6.3 6.3 0 0 0 1.615.214c.472-.011.917-.142 1.385-.183.876-.075 2.012 0 2.726-.614a6.211 6.211 0 0 0-.377-1.72q-.325-.832-.661-1.659a30.9 30.9 0 0 0-1.49-3.238c-.117.737-.4-.233-.677-.241-.2-.005-.206.256-.257.4" class="prefix__cls-1" data-name="Tracé 1996" transform="translate(-258.948 -53.124)"/>
            <path id="prefix__Tracé_1997" d="M553 100.136a5.434 5.434 0 0 1 1.057.311c.267.123.369.188.6-.022.127-.114.15-.283.313-.368a1.362 1.362 0 0 1 .551-.065c.435-.023.87-.032 1.305-.048l-1.5-1.443c-.078.133-.286.625-.439.657-.046.009-.189-.144-.266-.15a.422.422 0 0 0-.214.063c-.185.082-.268.272-.474.323a2.514 2.514 0 0 1-.638-.049c-.056.194-.2.544-.295.793" class="prefix__cls-1" data-name="Tracé 1997" transform="translate(-390.185 -69.353)"/>
            <path id="prefix__Tracé_1998" d="M548.86 79.784c.087-.36-.1-.732-.043-1.1l-.124-.186a4.226 4.226 0 0 1-.29.629 2.939 2.939 0 0 0-.354.5 1.058 1.058 0 0 0 .2.935c.226-.253.525-.433.608-.777" class="prefix__cls-1" data-name="Tracé 1998" transform="translate(-386.657 -55.241)"/>
            <path id="prefix__Tracé_1999" d="M536.712 85.5c-.3.007-.188.149-.229.375a1.089 1.089 0 0 1-.174.391c-.156.242-.531.486-.317.813.182.278.192-.069.344.067s-.891 1.214-1.048 1.273c-.085.032-.179-.065-.259 0s.026.679.023.8a1.092 1.092 0 0 0 .238.922c.312.274.826.284 1.2.44a6.063 6.063 0 0 0 .757.331c.281.075.523-.081.765-.045a4.436 4.436 0 0 1 .722.411c.247.118.3.137.536.045a1.316 1.316 0 0 0 .482-.264c.136-.174.032-.172.05-.409.033-.433.486-.383.8-.505-.616-.185-.957-.847-1.26-1.387a4.231 4.231 0 0 1-.478-.79c-.09-.334.159-.55.309-.829-.2.083-1.005.451-.62.016.12-.135.863-.356.561-.708-.182-.212-.419.221-.63.179-.244-.049-.534-.458-.738-.593-.246-.163-.727-.546-1.027-.539" class="prefix__cls-1" data-name="Tracé 1999" transform="translate(-377.485 -60.18)"/>
            <path id="prefix__Tracé_2000" d="M191.149 37.2a11.057 11.057 0 0 1 .482-3.044c.615-2.027 1.918-3.8 2.337-5.893.2-1.006.136-2.026.33-3.034a21.052 21.052 0 0 0 .234-3.229c.038-1.062.077-2.124.063-3.186a5.419 5.419 0 0 1-.015-1.28c.081-.309.2-.193.467-.305-.182-.112-.557-.168-.6-.4-.027-.16.129-.336.122-.512a1.772 1.772 0 0 0-.118-.426 3.6 3.6 0 0 1-.133-2.6c-.255-.043-.358-.122-.594-.014a4.1 4.1 0 0 0-.729.55 13.886 13.886 0 0 0-1.27 1.1 26.858 26.858 0 0 0-2 2.455c-.645.831-1.312 1.653-1.975 2.469-.516.634-1.333 1.6-2.052.745-.215.287-.352.575-.705.714a2.037 2.037 0 0 0-.926.711c-.063.074-.249.386-.329.416-.163.06-.07-.051-.2-.134-.2-.13-.3-.218-.369.141-.032.159.053.309-.024.467a1.194 1.194 0 0 1-.433.373 4.93 4.93 0 0 1-1.015.282c-.56.188-.917 1.037-1.531.63-.223-.148-.4-.378-.691-.221-.217.117-.254.407-.566.292-.164-.06-.3-.275-.488-.344a1.86 1.86 0 0 0-.419-.086 4.893 4.893 0 0 1-.932-.122 3.957 3.957 0 0 1-1.561-1.288c-.335-.368-.231-.6-.138-1.065.079-.4.162-.794.26-1.187a10.033 10.033 0 0 1 .819-2.264 14.667 14.667 0 0 1 1.654-2.254c1.21-1.513 2.352-3.109 3.666-4.535.247-.268.669-.559.624-.967-.049-.448-.558-.23-.87-.153a19.783 19.783 0 0 0-2.406.927c-.442.174-1.033.512-1.506.29-.446-.21-1.153-.773-.9-1.289a4.963 4.963 0 0 0 .5-1.131c.091-.4.147-.807.23-1.208.2-.952.45-1.893.734-2.823.541-1.776 1.2-3.511 1.8-5.268a27.9 27.9 0 0 0-6.963 1.751c.109.223.312.544.23.805-.1.322-.536.214-.643.436-.127.262.259.412.145.748a4.95 4.95 0 0 1-.533.861c.751.484.459-.522.986-.591.146.8-.191 1.178-.5 1.852-.277.6.36.543.491.992-.367.061-.618-.108-.779.325-.068.184.034.858-.185.877-.162.014-.111-.281-.241-.309-.163-.034-.58.553-.682.663a2.531 2.531 0 0 1 1.108.216c-.273.267-.548.528-.831.783.259.107.7.131.833.42.123.269-.064.754-.09 1.032.111-.167.272-.56.444-.668.226-.141.291 0 .277.308-.026.568-.767.532-.871.985s.539.136.555.582c.009.254-.287.471-.14.74-.328-.184-.368-.293-.547-.651a3.427 3.427 0 0 0-.247 1.645c.122.385.376.29.084.663-.108.138-.257.247-.261.435-.008.435.613.772.13 1.159-.188.15-.39.167-.485.428-.083.226 0 .527-.065.773a2.722 2.722 0 0 1-.841 1.192 11.878 11.878 0 0 1-.951.923 1.454 1.454 0 0 0-.384.416c-.054.08.012.155-.061.229s-.3.077-.417.1c-.377.074-.836.226-.962.646-.46-.349-.929.075-1.376.213a.763.763 0 0 1-.637-.031c-.335-.187-.32-.215-.722-.156-1.12.162-2.043-1.005-2.667-1.79a4.33 4.33 0 0 1-.822-2c-.14-.838-.285-1.67-.361-2.517a41.816 41.816 0 0 1-.037-5.3 42.2 42.2 0 0 0-5.863 3.935A57.41 57.41 0 0 0 150 17.444c.423.027.83.177 1.254.186a1.376 1.376 0 0 0 .606-.108 1.216 1.216 0 0 0 .289-.186.189.189 0 0 1 .321-.08c.416-.034.8-.12 1.218-.18a5.291 5.291 0 0 1 1.609.173 21.382 21.382 0 0 1 2.936.358c.82.264 1.674.641 2.463.982a10.337 10.337 0 0 1 2.07 1.561 10.731 10.731 0 0 0 1.171.665 4.412 4.412 0 0 1 .932 1.09c.645.835 1.365 1.605 2.011 2.435a4.626 4.626 0 0 1 .713 1.217c.084.226.091.48.172.7a2.014 2.014 0 0 0 .329.479c.4-1.066.779-2.136 1.189-3.2.158-.407.861-2.364 1.412-1.614.474.646.205 1.972.057 2.693-.2.966-.418 1.928-.634 2.89-.429 1.909-.822 3.836-1.368 5.715a2.114 2.114 0 0 0-.115.4c-.016.219-.092.095.058.247.077.078.259.055.331.148a2.194 2.194 0 0 1 .077.968c-.018.393-.238.565-.34.914-.089.305.063.619.066.927a13.506 13.506 0 0 1-.526 2.348c-.088.479.188 1.238-.485 1.33.167.282-.031.4-.178.61a3.34 3.34 0 0 0-.31.817 2.859 2.859 0 0 0-.288.7c-.025.237.08.464 0 .7-.1.284-.277.317-.516.44s-.163-.02-.244.213c-.035.1.012.339-.01.457a2.813 2.813 0 0 1-.921 1.323c-.139.147-.319.487-.489.577-.249.132-.622-.1-.851.025-.21.112-.429 1.007-.506 1.224-.164.462-.319.929-.475 1.394-.573 1.7-1.135 3.411-1.7 5.117.271-.007.722-.3.984-.183.3.14.107.552.22.776.081.161.55.136.771.148a2.173 2.173 0 0 0 .865-.181 11.586 11.586 0 0 1 1.883-.172 36.081 36.081 0 0 0 3.964-.472c1.239-.276 2.427-.735 3.643-1.093-.568-.3-.673-1.035-.836-1.594a2.96 2.96 0 0 0-.3-.836 5.212 5.212 0 0 1-.5-1.02 10.9 10.9 0 0 1-.351-4.629 19.145 19.145 0 0 1 3.063-8.337 21.755 21.755 0 0 1 2.71-3.343 24.786 24.786 0 0 1 3.3-3.037 12.7 12.7 0 0 0 1.667-.972 6.346 6.346 0 0 1 1.408-.673 6.392 6.392 0 0 1 1.873-.761 5.375 5.375 0 0 1 1.65-.305c.372.046.233.22.451.391.289.226.184-.093.4-.173.18-.067.294.1.444.159a1.3 1.3 0 0 0 .358.011c.165.1.138.454.232.621a2.641 2.641 0 0 1 .315.507.885.885 0 0 1-.088.714c-.127.257-.318.383-.012.632-.765.5-.293 1.514-.868 2.123-.2.207-.635.5-.629.818.007.347.63.484.31.831-.292.315-.921.166-1.258.446s-.227.769-.258 1.158c-.024.3-.313.657-.193.944.079.189.216.161.222.367a2.242 2.242 0 0 1-.179.549l-.382-.167a4.916 4.916 0 0 0-.193.674 1.559 1.559 0 0 0 .135.647 4.077 4.077 0 0 1-.1.959 1.509 1.509 0 0 1-.3.943c-.14.154-.334.177-.485.3a1.43 1.43 0 0 0-.281.407l.659-.194a1.817 1.817 0 0 1-.526.919l-.138-.726a2.027 2.027 0 0 0-.21.73c.012.234.117.459.118.7 0 .471-.345.779-.2 1.231a1.964 1.964 0 0 1 .037 1.395 6.959 6.959 0 0 0-.393 1.5c-.041.583.222 1.086.168 1.678-.025.275-.139.468.166.5.273.027.569-.2.805-.311 1.165-.555 2.325-1.118 3.487-1.679-.217-.3-.164-.311-.028-.682l.3-.839c.215-.594.431-1.188.653-1.779a19.084 19.084 0 0 0 1.167-3.356 20.063 20.063 0 0 0 .1-3.163" class="prefix__cls-1" data-name="Tracé 2000" transform="translate(-105.837 .5)"/>
            <path id="prefix__Tracé_2001" d="M14.222 398.455l-1.153-.727.672-.513c.243-.185.352-.358.5.006.151.383-.029.837-.015 1.234m-.489-2.794c.541.632-.47.815-.86.895.063-.3.288-1.563.86-.895m11.858-2.225c-.175-.538-.46-2.023-1.271-1.931-.194.022-.37.216-.6.232a3.777 3.777 0 0 1-.585-.055 3.288 3.288 0 0 0-1.293.124 5.026 5.026 0 0 1-1.342.417 5.2 5.2 0 0 0-1.117.1c-.617.179-.575.726-.489 1.269a1.992 1.992 0 0 1-.3-.348c-.085-.157-.086-.334-.219-.471-.263-.273-.566-.144-.892-.12-.368.026-.84-.22-1.193-.081-.157.061-.25.237-.413.31a1.556 1.556 0 0 1-.46.094 8.418 8.418 0 0 1-1.018.15 4.178 4.178 0 0 0-1.265.082c-.413.111-.807.281-1.22.394-.458.125-.931.138-1.4.229a21.029 21.029 0 0 1-2.786.651 14.408 14.408 0 0 0-1.469.106 2.032 2.032 0 0 0-.621.1c-.139.1-.233.49-.312.652-.849 1.753-1.465 3.618-2.143 5.442l-2.114 5.69c-.333.891-.759 1.78-1.035 2.689-.255.841.737 1.433 1.265 1.962a38.155 38.155 0 0 0 4.069 3.677 24.041 24.041 0 0 0 4.829 2.594 20.264 20.264 0 0 0 5.4 1.459c.958.135 1.921.227 2.885.3a12.527 12.527 0 0 0 2.737-.178c-.094-.22-.4-.605-.365-.85.01-.069.151-.183.184-.263a.931.931 0 0 0 .044-.343c.013-.555-.2-1.092.507-1.29l.071.908a1.64 1.64 0 0 0-.082-1.592l-.724.6c.049-.147.454-1.08.342-1.168s-.313.146-.432.033c-.1-.092.011-.308-.019-.425-.049-.188-.253-.333-.251-.539 0-.274.355-.486.521-.663a1.006 1.006 0 0 0 .342-.8c0-.489.227-.462.584-.788a1.625 1.625 0 0 0 .315-1.947l.765-.059c-.237-.6-.48-1.19-.712-1.787s.084-.9.238-1.451L23.6 407.6a16.04 16.04 0 0 0 .256-3.381c-.043-.35-.109-.33.052-.591.116-.188.279-.334.381-.539a3.6 3.6 0 0 0 .3-1.291 6.7 6.7 0 0 1 .136-1.257c.088-.3.375-.468.444-.8.12-.577-.8-1.585-.266-2.013.273-.218.613-.009.81-.366a5.536 5.536 0 0 0 .334-1.058 2.128 2.128 0 0 0 .042-1.468c-.167-.467-.345-.926-.5-1.4" class="prefix__cls-1" data-name="Tracé 2001" transform="translate(0 -276.087)"/>
            <path id="prefix__Tracé_2002" d="M65.1 300.784c-.135-.308-.345-.364-.664-.425-1.372-.264-2.756-.265-4.141-.393a7.739 7.739 0 0 1-1.169-.187c-.322-.081-.625-.26-.94-.335-.629-.15-1.253.266-1.882.236a4.487 4.487 0 0 1-.9-.288 2.2 2.2 0 0 0-.736 0 8.951 8.951 0 0 1-1.491-.045 11.315 11.315 0 0 1-1.8-.331 2.943 2.943 0 0 1-1.277-.516 21.053 21.053 0 0 0-1.69 3.175c-.465 1.076-1.082 2.093-1.648 3.118A42.018 42.018 0 0 0 44 311.374c.43-.2.742-.4 1.065.048.3.422.666.284 1.16.363.791.128.877 1 1.05 1.658l.768-.956c.205.229.535.348.7.61.107.168.047.324.11.485s.21.21.323.315c.784-1 1.519.883 1.614 1.528l.294-.75a3.413 3.413 0 0 1 .438.456c.068.11.065.306.137.4.108.136.179.076.334.114.25.06.2.046.346.239a20.1 20.1 0 0 1 1.454 1.656 13.228 13.228 0 0 1 1.369 2.468 7.171 7.171 0 0 0 .488 1.43c.136.244.373.453.5.692.153.3-.117.419-.086.684s.473.527.694.61a3.514 3.514 0 0 0 1.122.1 4.967 4.967 0 0 0 1.484-.139c.4-.118.367-.322.476-.673a10.687 10.687 0 0 1 .536-1.209c.268-.589.4-.981-.4-1.157.461-.077 1.213-.213 1.067-.83-.07-.3-.337-.5-.3-.823s.3-.446.545-.619a2.944 2.944 0 0 0 .969-1.469 1.2 1.2 0 0 0 .02-.82 5.2 5.2 0 0 1-.277-1.347l.637.068A2.231 2.231 0 0 0 62.5 314c-.028-.056-.176-.1-.167-.18.014-.138.2-.135.283-.232a3.541 3.541 0 0 0 .36-1.131 3.724 3.724 0 0 1 .283-.891c.29-.479.649.2.576-.483-.037-.345-.063-.855-.493-.9-.511-.06-.658.142-.61-.471.033-.434-.083-1.364.382-1.6a2.555 2.555 0 0 1 .833-.118c.3-.025.529.132.8.123.456-.016.43-.666.483-1a17.742 17.742 0 0 0 .2-4.453 6.47 6.47 0 0 0-.334-1.875" class="prefix__cls-1" data-name="Tracé 2002" transform="translate(-31.046 -210.468)"/>
            <path id="prefix__Tracé_2003" d="M146.841 79.034c-.03-1.073-.03-1.073.566-1.48.158.683-.234 1.026-.566 1.48m10.822 2.74c.129-.256.658-.181.883-.178a6.964 6.964 0 0 0-.58 1.145c-.123-.233-.429-.718-.3-.968m-1.391 7.6c.233-.184.179-.175.29-.4.086-.173.066-.263.25-.378.373-.231.431-.23.527-.725a6.559 6.559 0 0 1 .238-1.443c.135-.286.582-.312.59-.67.015-.7-1.245-1.052-1-1.754.072-.209.3-.274.4-.454.059-.11.018-.254.038-.371.043-.262.116-.319.358-.388a.46.46 0 0 0 .013.307c.159.308.792-.061.936-.273.3-.438.023-1.166-.075-1.623a5.426 5.426 0 0 1-.064-1.717l.81.889c.147-.448.173-.69.584-.97a2.313 2.313 0 0 0 .775-.818c.093-.147.156-.309.34-.361s.477.144.629.069c.094-.047.2-.533.227-.62q.152-.413.3-.826a23.811 23.811 0 0 0-1.913-4.332 12.517 12.517 0 0 0-3.093-3.061c-.577-.431-1.161-.869-1.768-1.259a13.5 13.5 0 0 0-1.915-.826 6.182 6.182 0 0 0-2.121-.634c-.367-.019-.722.067-1.09.019-.407-.054-.8-.191-1.2-.26a18.767 18.767 0 0 1-1.49 6.225c-.327.895-.8 1.721-1.141 2.609s-.687 1.785-1.063 2.667a47.674 47.674 0 0 1-2.484 5.421c-.089.152-.189.259-.136.394.015.038.142.115.175.149a1.626 1.626 0 0 1 .253.353 7.414 7.414 0 0 1 .361.95 16.887 16.887 0 0 0 1.156 2.109 8.975 8.975 0 0 0 1.669 2.061c.3.288.753.553.935.935a7.563 7.563 0 0 1 .25.963l.106-.75c.265.563.949.615 1.443.9a18.979 18.979 0 0 0 1.838 1.08 9.013 9.013 0 0 0 2.1.641 5.49 5.49 0 0 0 1.1.087 2.961 2.961 0 0 0 .983-.331c-1.065-.918-.677-2.51-.07-3.568l.561 1.233c.123-.293.544-.568.357-.912-.113-.208-.26-.154-.293-.395a1.105 1.105 0 0 1 .187-.589 2.791 2.791 0 0 1 .142.648" class="prefix__cls-1" data-name="Tracé 2003" transform="translate(-100.898 -46.774)"/>
            <path id="prefix__Tracé_2004" d="M134.118 144.907c-.239-.528-1.225-.651-1.72-.752a9.447 9.447 0 0 1-2.335-1.035 7.584 7.584 0 0 1-1.868-1.261 2.342 2.342 0 0 0-.814-.458 2.262 2.262 0 0 1-.757-.614 10.293 10.293 0 0 1-1.459-1.548 13.771 13.771 0 0 0-1.323-1.6c-.526-.664-.9-1.431-1.357-2.14-.82.884-1.042 2.262-1.54 3.335-.62 1.336-1.212 2.685-1.795 4.038-1.043 2.427-2.057 4.87-2.966 7.352-.033.091-.212.395-.181.492s.261.2.335.279a4.861 4.861 0 0 1 .467.686 9.185 9.185 0 0 0 .954 1.195 11.8 11.8 0 0 0 2.707 2.2c.436.248 1.056.739 1.555.7a5.287 5.287 0 0 1 1.774.047 7.073 7.073 0 0 0 1.824.248 1.82 1.82 0 0 1 .757.059c.173.071.3.269.492.278.245.011.392-.22.619-.3a1.552 1.552 0 0 1 .618-.074c.305.015 1.016.29 1.26.054.264-.254.163-.989.657-1.085.367-.072 1.109.6 1.409.787-.129-.39-.575-1.152-.333-1.561a.374.374 0 0 1 .46-.167c.244.05.264.224.458.332 1.051.59.958-2.217.923-2.647l-.8-.046c0 .246.077.8-.088.9a2.619 2.619 0 0 1-.805 0c.365.348.536.645-.015.942a.592.592 0 0 1-.88-.485c-.042-.484.713-.558.575-1.036-.186-.641-.751.445-.853.634a1.571 1.571 0 0 1 .317-1.506 1.362 1.362 0 0 1 1.572-.388c.06-.264.2-.445.267-.685.086-.287-.045-.219-.172-.468-.206-.406.206-.547.284-.9a.772.772 0 0 0-.14-.564c-.113-.194-.332-.327-.008-.433.241-.079.525.152.752-.056.246-.225.155-.695.289-.975.2-.423.425-.162.751-.043.245.089.319.081.348-.19a.411.411 0 0 0-.107-.366c-.169-.156-.4-.045-.594-.1-.26-.071-.272-.235-.371-.469.452-.04.459.1.868.277a1.369 1.369 0 0 0 1.011 0 2.915 2.915 0 0 1-.708-.243c-.258-.18-.2-.39-.311-.635" class="prefix__cls-1" data-name="Tracé 2004" transform="translate(-81.847 -95.459)"/>
            <path id="prefix__Tracé_2005" d="M242.732 104.209c.447-.826.852-1.673 1.254-2.521.244-.516.772-1.228.145-1.653-.422-.286-1.195-.689-1.729-.472-.453.184-.7 1.255-1.325.553-.114.324-.5.271-.732.447-.172.13-.157.263-.261.43a3.735 3.735 0 0 1-.423.443 3.512 3.512 0 0 0-.4-.628 2.314 2.314 0 0 0-.187.626c-.045.139-.085.235-.23.29-.333.125-.661-.284-.83-.509a1.179 1.179 0 0 1-.088 1.067c-.187.238-.49.284-.665.533-.2.279-.209.49-.562.6a2.083 2.083 0 0 1-.377.081c-.078 0-.116-.135-.148-.135a1.446 1.446 0 0 0-.389.181c.219.276.133.392-.1.572-.287.218-.271.241-.412.575a.732.732 0 0 1-.3.391c-.158.088-.368.013-.5.1-.266.185-.236.666-.445.9-.282.316-.639.534-.9.888a8.131 8.131 0 0 0-.675 1.141 6.139 6.139 0 0 0-.965 2.341 3.2 3.2 0 0 1-.156 1.163c-.166.335-.525.471-.664.86a5.348 5.348 0 0 0-.232 1.087c-.05.419.212.735.029 1.141a2.893 2.893 0 0 0-.242 1.092c-.031.4-.344.665-.152 1a2.516 2.516 0 0 1 .43.965c.057.429-.012.585-.384.766a4.718 4.718 0 0 1 .6 1.111 3.257 3.257 0 0 0 .538 1.12c.521.684 1.178 1.045 1.167 2l7.086-2.371c-.911-.171-.445-1.769-.386-2.365.109-1.093.226-2.192.384-3.279.136-.936.4-1.843.547-2.778a13.784 13.784 0 0 1 .274-1.446c.11-.413.343-.8.436-1.206a14.353 14.353 0 0 1 .725-2.655c.367-.842.82-1.642 1.257-2.449" class="prefix__cls-1" data-name="Tracé 2005" transform="translate(-162.283 -70.058)"/>
            <path id="prefix__Tracé_2006" d="M27.871 359.931a1.074 1.074 0 0 1 .577-.128 8.812 8.812 0 0 0 1.587-.344 18.342 18.342 0 0 1 2.017-.418 16.055 16.055 0 0 0 1.921-.273 6.773 6.773 0 0 1 1.79-.391c.722-.028 1.147-.365 1.738.239.53-.739 1.295-.734 2.139-.851.3-.042.655 0 .722-.362a1.927 1.927 0 0 0-.351-1.055 27.024 27.024 0 0 0-2.463-4.273 13.839 13.839 0 0 0-3.751-3.461 20.674 20.674 0 0 0-2.49-.987c-.89-.35-1.761-.747-2.64-1.125a4.407 4.407 0 0 0-.723 1.7c-.213.578-.579 1.088-.774 1.674-.389 1.174-.722 2.337-1.208 3.48-1.029 2.416-2.026 4.822-2.961 7.277 1.471-.229 2.9-.372 4.39-.465.291-.018.272-.09.481-.237" class="prefix__cls-1" data-name="Tracé 2006" transform="translate(-16.229 -244.336)"/>
            <path id="prefix__Tracé_2007" d="M304 34.772a1.651 1.651 0 0 1 1.187.515 32.2 32.2 0 0 1 3.943-4.543 57.617 57.617 0 0 1 4.316-3.949 56.5 56.5 0 0 1 9.985-6.243c-1.114-1.283-2.209-2.584-3.33-3.859a29.079 29.079 0 0 0-3.5-3.194 28.311 28.311 0 0 0-.262 3.007c.009 1.006.146 2.007.16 3.013a9.335 9.335 0 0 1-.227 2.481c-.162.614-.529 1.512-1.2 1.708a3.946 3.946 0 0 1-3.151-.829 13.054 13.054 0 0 1-1.37-2.028.957.957 0 0 0-1.2-.456 17.888 17.888 0 0 0-2.345 1.123c-.858.429-1.713.865-2.571 1.294.059.042.408.221.423.3 0 .025-.2.439-.2.52a2.505 2.505 0 0 0 .229.928 2.835 2.835 0 0 1 .172.983 5.055 5.055 0 0 1-.282.93c-.075.345.18.467.311.768a1.654 1.654 0 0 1 .082.967 4.76 4.76 0 0 0-.207.809c0 .145.124.305.081.454s-.218.231-.32.33c.463.3.549.26.366.757a2.071 2.071 0 0 0-.027 1.077c.032.2.238.731.1.932-.127.184-.545.04-.737.033.071.372.172.333.346.641a1.273 1.273 0 0 1 .091.685c-.031.58-.387.644-.862.842" class="prefix__cls-1" data-name="Tracé 2007" transform="translate(-214.496 -9.378)"/>
            <path id="prefix__Tracé_2008" d="M68.639 276.041a8.557 8.557 0 0 0 1.868.361 4.683 4.683 0 0 1 1.662.292c.191.087.4.325.608.321.249 0 .171-.174.346-.284s.29.013.454.057a3.165 3.165 0 0 0 .74.072c.7.023 1.395.037 2.092.055.628.016 1.237.119 1.861.122h1.979a10.673 10.673 0 0 0-1.766-2.845c-.411-.405-.756-.858-1.145-1.283a14.65 14.65 0 0 0-1.29-1.094 8.516 8.516 0 0 0-1.342-1.1 3.8 3.8 0 0 0-.7-.36 2.376 2.376 0 0 1-.57-.141c-.212-.125-.4-.385-.607-.533a6.649 6.649 0 0 0-.675-.42c-.463-.258-.946-.479-1.395-.762-1.383 2.556-2.624 5.138-3.76 7.814a1.682 1.682 0 0 1 1.638-.274" class="prefix__cls-1" data-name="Tracé 2008" transform="translate(-47.274 -189.301)"/>
            <path id="prefix__Tracé_2009" d="M194.39 14.345a2.368 2.368 0 0 1 .36.489c.1.21.041.413.1.614.075.248.361.358.187.669-.118.212-.4.262-.482.51-.146.445.362.854.564 1.2a.961.961 0 0 1 .156.671c-.029.148-.158.258-.192.388-.058.229 0 0 .026.23s.126.495.144.748a7.247 7.247 0 0 0-.024.8 5.656 5.656 0 0 0 .838 1.808c.282.409.514.554.977.371 2.473-.977 2.972-3.655 3.473-5.944a19.645 19.645 0 0 0 .48-4.051c.016-1.451.128-2.9.021-4.354-.409.117-.921.159-1.2.511-.152.188-.155.424-.3.6a5.652 5.652 0 0 1-.87.627l-3.888 2.908-.543.406c-.186.139-.237.117-.207.319.024.159.282.36.382.479" class="prefix__cls-1" data-name="Tracé 2009" transform="translate(-136.883 -5.851)"/>
            <path id="prefix__Tracé_2010" d="M249.149 40.068c-.233.3-.674.372-.957.652a2.567 2.567 0 0 0-.564.97 3.779 3.779 0 0 0-.375 1.319 10.469 10.469 0 0 1-.233 1.37c-.048.313-.031.409.285.5a3.925 3.925 0 0 0 1.424.07c2.16-.221 3.864-1.894 5.175-3.459a63.512 63.512 0 0 0 3.989-5.743c-.619-.349-1.289-.61-1.88-1.008-.555-.375-1.052-.845-1.6-1.24-.075.228-.075.487-.168.708-.107.251-.255.292-.483.435a3.329 3.329 0 0 0-1.005 1.009 9.255 9.255 0 0 1-.652 1.162 6.541 6.541 0 0 1-.976.67 9.414 9.414 0 0 0-1.2 1.445c-.3.365-.506.776-.785 1.14" class="prefix__cls-1" data-name="Tracé 2010" transform="translate(-174.278 -23.49)"/>
            <path id="prefix__Tracé_2011" d="M114.314 91.5c.084.227.257.545.131.786-.232.44-.461-.209-.689-.314a9.649 9.649 0 0 0 .193 1.122 1.773 1.773 0 0 1 .106.762c-.05.279-.279.436-.282.719a5.216 5.216 0 0 0 .176.795c-.434-.051-.528-.107-.791.22a1.838 1.838 0 0 1 .461.126c.125.1.06.053.089.244a6.452 6.452 0 0 1-.019.949c-.01.316-.191.258-.327.475a1.06 1.06 0 0 0-.047.61c.034.231.225.484.2.716-.034.281-.3.3-.431.507-.172.275-.02.478.057.761a8.7 8.7 0 0 1 .141 1.189c1.895-3.817 3.379-7.829 5.5-11.527q.078-.135.154-.271l-.188-.111c-.028-.186-.02-.416-.037-.622-.036-.446-.16-.88-.216-1.323-.063-.5.047-.972 0-1.463-.016-.17-.056-.338-.06-.51a4.891 4.891 0 0 1 .156-.677c.02-.234-.116-.545-.117-.8a3.974 3.974 0 0 1 .049-.589c.075-.522.231-1.028.311-1.55.162-1.071.172-2.161.356-3.23-.286.421-.608.816-.892 1.239s-.465.887-.721 1.322a6.9 6.9 0 0 1-.76 1.025c-.234.267-.23.25-.137.582a1.149 1.149 0 0 1 .072.46c-.1.649-1.069.43-.929 1.137.071.357.34.685.194 1.067-.131.342-.523.517-.672.857-.164.375.056.633.07 1a1.017 1.017 0 0 1-.346.78c-.3.3-.284.492-.36.914a3.3 3.3 0 0 1-.392 1.058c-.189.324-.421.422-.322.786.072.264.229.522.324.78" class="prefix__cls-1" data-name="Tracé 2011" transform="translate(-79.731 -55.241)"/>
            <path id="prefix__Tracé_2012" d="M101.334 115.694a12.437 12.437 0 0 0 1.513 3.527 14.253 14.253 0 0 0 .334-1.885c.031-.639.053-1.273.123-1.91.132-1.192.353-2.371.6-3.543.511-2.461 1-4.925 1.516-7.383q-1.159 1.84-2.309 3.686l-1.115 1.8a5.348 5.348 0 0 0-.941 1.691 12.468 12.468 0 0 0-.01 2.107 8.641 8.641 0 0 0 .292 1.906" class="prefix__cls-1" data-name="Tracé 2012" transform="translate(-71.264 -73.586)"/>
            <path id="prefix__Tracé_2013" d="M139 73.435c.013.169.132.355.165.528a3.846 3.846 0 0 1 .042.626c.012.5.034 1.007.051 1.511 1.017-1.4 1.562-3.066 2.479-4.526a13.941 13.941 0 0 0 1.126-1.934c.32-.758.615-1.512.984-2.25.2-.4.409-.8.608-1.206.1-.193.2-.284.094-.473a.524.524 0 0 0-.269-.2c-.264-.056-.417.255-.626.361a6.857 6.857 0 0 1-.944.2c-.69.232-1.351.663-2.027.945-.215.09-.37.125-.353.383.015.229.251.183.008.382-.132.108-.3.058-.455.043a2.141 2.141 0 0 1-.14 1.235 2 2 0 0 0-.137 1 4.177 4.177 0 0 1-.352 1.264c-.15.37-.374.658-.156 1.044.12.212.379.368.228.61-.135.217-.352.136-.325.469" class="prefix__cls-1" data-name="Tracé 2013" transform="translate(-98.076 -46.068)"/>
            <path id="prefix__Tracé_2014" d="M124.784 308.986c-.733-.435-.039-.877 0-1.284zm-1.121-2.484c-.111.005-.488.045-.556.16a4.1 4.1 0 0 0 .029.6c0 .362-.039.723-.019 1.084s.206.711.222 1.067c.015.334-.2.513-.3.81-.131.392.044 1.472.48 1.581a3.919 3.919 0 0 1 .094-.839c.209-.1.31.442.37.59a5.2 5.2 0 0 0 1.022-2.127q.469-1.326.936-2.653c-.383-.038-.768-.061-1.15-.112a6.493 6.493 0 0 0-1.132-.158z" class="prefix__cls-1" data-name="Tracé 2014" transform="translate(-86.787 -216.113)"/>
            <path id="prefix__Tracé_2015" d="M90.242 391.563c-.325.137-.232.529-.221.874a1.281 1.281 0 0 0 .586 1.125c.153-.408.7-1.3.543-1.726a.692.692 0 0 0-.907-.273" class="prefix__cls-1" data-name="Tracé 2015" transform="translate(-63.502 -276.087)"/>
            <path id="prefix__Tracé_2016" d="M304 54.267c.214-.2.546-.322.585-.64a3.472 3.472 0 0 0-.351-1.126q-.118.883-.234 1.767" class="prefix__cls-1" data-name="Tracé 2016" transform="translate(-214.496 -36.896)"/>
            <path id="prefix__Tracé_2017" d="M100.552 215.684c-.556 0 .045-1.16.134-1.426.176.3.6 1.429-.134 1.426m4.637-14.642c.219-.131.634-.284.753-.531.138-.287-.146-.284-.395-.3a4.1 4.1 0 0 0-.97.016c-.3.058-.421.125-.7-.049-.157-.1-.305-.344-.486-.38s-.4.161-.565.236a4.5 4.5 0 0 1-1.764.121 1.216 1.216 0 0 1-.624-.033c-.268-.125-.33-.291-.66-.269a4.109 4.109 0 0 1-1.493.053c-.34-.09-.808-.449-1.174-.339-.34.1-.518.637-.786.864a2.366 2.366 0 0 0-.5-1.331 10.916 10.916 0 0 0-1.512-.854 13.672 13.672 0 0 1-2.6-2.745 11.886 11.886 0 0 0-1.2 2.323c-.323.819-.637 1.642-.96 2.46-.651 1.649-1.345 3.282-2.057 4.9-1.447 3.3-3.072 6.5-4.5 9.81a6.352 6.352 0 0 1 2.763.961.862.862 0 0 1 .37.357c.068.091.161.315.284.346.072.018.3-.111.418-.094a.9.9 0 0 1 .421.239c.82.645 1.638 1.326 2.415 2.023a4.057 4.057 0 0 1 .842 1.035 3.763 3.763 0 0 0 .963 1.076 8.887 8.887 0 0 1 1.5 2.191 10.155 10.155 0 0 1 .722 1.275 3.474 3.474 0 0 0 .578 1.2c.7.667 1.8.284 2.65.394.334.043.415.138.716 0q.005-.178.135-.127a.721.721 0 0 1 .271.134c.222.12.432.266.647.4l.375-.926c-.141 0-.649.059-.728-.153-.067-.178.213-.228.318-.338s.185-.521.412-.513c.186.007.176.17.173.329.4.008.4-.341.466-.639.046-.2.111-.4.163-.6.035-.135.26-.685.2-.8-.143-.288-1.062-.27-.476-.621.187-.112.625-.076.77-.234.115-.126.126-.645.16-.818-.273.019-.6.184-.769-.059-.242-.352.111-.888.29-1.182.231.182.375.38.638.17a2.274 2.274 0 0 0 .645-.97c-.305-.009-.251.051-.406-.186a2.115 2.115 0 0 1-.157-.524c-.09-.313-.271-.551.107-.635.236-.052.295 0 .364.227a7.41 7.41 0 0 1 .093 1.118 1.93 1.93 0 0 0 .61-1.6c-.235.234-.259.171-.543-.011s-.562-.37-.843-.556c.355-.322.918-.01 1.268-.275.238-.18.116-.731.133-.979a7.847 7.847 0 0 0 .137-.94c-.019-.338-.407-.486-.2-.8.144-.217.478-.184.541-.509s-.267-.522-.512-.665c.363-.118 1.061-.244.733-.73-.155-.23-.343-.25-.34-.576a1.816 1.816 0 0 1 .259-.7c.136.311.337 1.043.759 1.018.352-.021.665-.337.564-.656-.312-.983-1.2-1.054-2.066-1.239.161-.6.588-.561 1.019-.259.255.179.415.329.74.145s.175-.264.025-.539c-.3-.561.117-.883.53-1.21a6.438 6.438 0 0 0 .556-.629 2.639 2.639 0 0 1 .808-.378 1.188 1.188 0 0 0-.949-.194c-.233.08-.4.236-.668.1-.594-.3.177-.378.257-.626.045-.141-.108-.428-.05-.628a2.161 2.161 0 0 1 .3-.556 1.443 1.443 0 0 0 .361-1.223 1.1 1.1 0 0 1 .412.879 8.253 8.253 0 0 0 .107 1.249c.018-.607.575-1.011.669-1.6.029-.182-.119-.628.054-.725.135-.076.413.118.556.119a10.785 10.785 0 0 0-.3-1.674c-.183-.524-.661-.726-1.061-1.069" class="prefix__cls-1" data-name="Tracé 2017" transform="translate(-58.563 -137.794)"/>
        </g>
        <g id="prefix__Groupe_669" data-name="Groupe 669">
            <path id="prefix__Tracé_2018" d="M348.5 124.92c-.738.154-1.45.393-2.193.534-.882.167-1.764.321-2.653.45a2.156 2.156 0 0 0-1.528.721c-.729.928-1.463 2.529-.459 3.514.472.463 1.3.317 1.907.51a11.5 11.5 0 0 0 2.014.545 89.954 89.954 0 0 1 9.822 2.023 32.889 32.889 0 0 1 4.356 1.43 10.963 10.963 0 0 1 2.073 1.064 8.4 8.4 0 0 1 1.626 1.242 17.032 17.032 0 0 1-5.52.035c-.887-.151-1.779-.108-2.673-.176s-1.793-.131-2.688-.21c-.869-.077-1.732-.173-2.594-.3a3.492 3.492 0 0 0-.966-.053 1.254 1.254 0 0 1-.478.043c-.144-.033-.3-.145-.442-.194a7.8 7.8 0 0 0-2.054-.218 5.835 5.835 0 0 0-1.578-.07c-.905.2-1.318 1.471-1.525 2.25a2.979 2.979 0 0 0 .132 1.587c.182.557.517.546.966.8a16.605 16.605 0 0 0 1.9 1.038c.579.236 1.172.441 1.745.693a36.159 36.159 0 0 1 3.82 1.73c.645.379 1.255.757 1.931 1.085a13.093 13.093 0 0 1 1.751 1.018 13.411 13.411 0 0 1 2.962 2.857 2.978 2.978 0 0 1-1.083-.082c-.459-.162-.888-.4-1.353-.547-.886-.28-1.754-.543-2.63-.862s-1.771-.635-2.664-.9c-.458-.135-.92-.2-1.385-.295a7.17 7.17 0 0 1-1.16-.427 55.311 55.311 0 0 0-5.768-1.643c-1.871-.524-3.721-1.069-5.632-1.438-.889-.172-1.781-.334-2.678-.458a6.083 6.083 0 0 0-2.494.226 16.751 16.751 0 0 0-2.558.833 7.024 7.024 0 0 0-1.99.967 3.928 3.928 0 0 1-.832.754 5.836 5.836 0 0 1-.87.369c-.67.243-1.3.562-1.971.814a4.524 4.524 0 0 1-1.3.312 2.1 2.1 0 0 0-.964.319 13.524 13.524 0 0 1-1.9.63c-.632.2-1.351.726-2.035.486-.665-.234-1.09-1.09-1.487-1.621a16.487 16.487 0 0 1-2.523-4.433c-.616-1.753-1.2-3.515-1.8-5.275q-.465-1.372-.937-2.742c-.176-.507-.54-1.052-.143-1.52.461-.543.624-1.4 1.1-2.005s1.006-1.159 1.508-1.739c.293-.339.579-.684.84-1.049.214-.3.372-.664.609-.942.216-.252.533-.4.769-.632.257-.253.486-.553.722-.826.619-.717 1.207-1.477 1.867-2.157.545-.561 1.167-1.06 1.727-1.613 1.212-1.2 2.5-2.314 3.756-3.463 1.223-1.119 2.474-2.2 3.665-3.347a32.9 32.9 0 0 1 3.716-2.847 45.566 45.566 0 0 1 4.171-2.858 12.187 12.187 0 0 1 4.42-1.271 6.015 6.015 0 0 1-.474.909c-.306.409-.706.774-1.052 1.15q-1.055 1.148-2.122 2.284c-1.385 1.475-2.835 2.89-4.178 4.4a10.031 10.031 0 0 0-2.346 4 2.908 2.908 0 0 0 .152 2.47c.383.58 1.013.535 1.648.478 1.637-.147 3.261-.7 4.882-.993 1.8-.322 3.643-.4 5.461-.594.913-.1 1.814-.348 2.727-.417.412-.031.818.053 1.229.019s.819-.134 1.222-.209a7.585 7.585 0 0 1 2.476-.132 11.576 11.576 0 0 0 2.521-.046 28.9 28.9 0 0 1 5.441.24 39.157 39.157 0 0 1 5.093.8c-1.755.447-3.506.9-5.271 1.311-1.8.415-3.662.695-5.43 1.231-.77.233-1.561.267-2.344.431zM209.589 162.1c.192-.7.387-1.448.631-2.145a1.443 1.443 0 0 1 .234-.405 3.864 3.864 0 0 0-.394.921c-.164.541-.314 1.086-.471 1.63zm-.384.714q.06-.132.132-.259-.072.127-.132.259zm-.141.346c.031-.086.064-.171.1-.254-.036.084-.07.169-.1.254zm.487-.927a2.781 2.781 0 0 0-.18.266 2.7 2.7 0 0 1 .18-.266zm107.419-6.514a8.846 8.846 0 0 0-1.954 1.345c-1.292 1.392-2.684 2.71-3.928 4.144-.5.576-.752 1.29-1.311 1.826a17.321 17.321 0 0 1-2.127 1.586c-1.6 1.115-3.175 2.32-4.858 3.3-.377.219-.759.447-1.149.643a4.265 4.265 0 0 0-.8.381c-.214.174-.3.432-.533.6-.171.125-.378.227-.557.341q-2.214 1.4-4.457 2.757c-1.462.883-2.923 1.778-4.354 2.711-.76.5-1.478 1.053-2.242 1.542-.622.4-1.272.753-1.882 1.17a15.8 15.8 0 0 1-1.959 1.241c-.685.335-1.4.613-2.079.954-.4.2-.765.445-1.148.676a3.173 3.173 0 0 1-.733.222c-.794.272-1.505.742-2.315.993-3.364 1.042-6.617-.445-9.549-2.026-1.478-.8-2.823-1.818-4.239-2.716a19.949 19.949 0 0 1-1.958-1.139c-.285-.232-.395-.477-.728-.659a6.129 6.129 0 0 1-.849-.543 38.758 38.758 0 0 1-3.794-3.327c-.654-.661-1.308-1.323-1.946-2-.5-.53-.889-1.173-1.35-1.741-1.11-1.366-2.186-2.752-3.256-4.149-.519-.678-1.033-1.361-1.554-2.038a4.072 4.072 0 0 1-.99-1.482 2.219 2.219 0 0 1 .465-1.5 12.345 12.345 0 0 0 1.026-2.063c.394-1.1 1-3.207-.208-4-.443.735-1 1.389-1.479 2.1a18.317 18.317 0 0 1-1.263 2.26c-.605.67-1.412 1.156-2.047 1.81s-1.212 1.353-1.825 2.023c-.642.7-1.323 1.364-2 2.033a19.13 19.13 0 0 1-2.076 1.668 25.4 25.4 0 0 1-2.325 1.532 6.782 6.782 0 0 1-1.087.594 8.67 8.67 0 0 0-1.152.435c-1.589.822-3.191 1.611-4.8 2.384a7.578 7.578 0 0 1-1.355.611c-.179.044-.281 0-.477.067a6.36 6.36 0 0 0-.612.27c-.828.366-1.673.647-2.531.935-1.784.6-3.6 1.143-5.361 1.8-1.652.611-3.259 1.272-4.961 1.746a30.264 30.264 0 0 1-5.175.714 8.355 8.355 0 0 0-1.455.127 2.5 2.5 0 0 1-1.058.167 9.586 9.586 0 0 0-2.257.2 58.1 58.1 0 0 0 2.613-7.334c.223-.642.494-1.242.679-1.9a8.2 8.2 0 0 1 .7-1.678 12.944 12.944 0 0 0 .7-2.1c-.183.548-.283 1.132-.457 1.681.242-.462.5-.914.733-1.382a2.483 2.483 0 0 0 .241-1.305c.626.072.65-.572.746-1.031.147-.7.3-1.394.452-2.091a3.259 3.259 0 0 0 .09-.6 5.589 5.589 0 0 1 .2-.606c.546-1.548 1.146-3.069 1.543-4.664.437-1.759.82-3.535 1.213-5.3a23.716 23.716 0 0 0 .577-2.857c.044-.46.278-1.943-.373-2.15-.5-.16-1.042 1.374-1.174 1.712-.319.821-.621 1.648-.925 2.474-.272.739-.482 1.486-.785 2.214s-.414 1.5-.685 2.249c-.159.439-.416.762-.591 1.181-.128.306-.175.639-.28.953-.218.651-.555 1.287-.8 1.935-.314.827-.7 1.624-1.045 2.439-.315.745-.494 1.531-.79 2.278-.284.718-.725 1.359-1.008 2.083-.311.8-.594 1.6-.9 2.4-.634 1.645-1.277 3.277-1.774 4.97-.124.423-.336.839-.44 1.217a9.313 9.313 0 0 1-.4.953 10.783 10.783 0 0 0-.464 1.94l.037-.208c-.254.011-.526.066-.7-.161-.2-.258-.145-.759-.183-1.069-.3.039-.182.174-.149.444l.05.417.125 1.043c.1-.056.3-.38.377-.389.125-.014.26.324.318.492a1.357 1.357 0 0 1-.079.186 3.343 3.343 0 0 0-.215.43 6.554 6.554 0 0 1-.356.926 2.344 2.344 0 0 1-.273.408c-.079.093-.339.247-.382.345-.109.245.057.857.041 1.143a2.957 2.957 0 0 1-.242 1.108c-.068.142-.192.228-.256.351a1.068 1.068 0 0 0-.115.487 9.081 9.081 0 0 1-.656 2.294c-.31.837-.552 1.7-.834 2.544-.267.8-.608 1.572-.89 2.367-.328.926-.621 1.864-.928 2.8-.23.7-.582 1.318-.829 2a12.165 12.165 0 0 0-.733 2.065 11.991 11.991 0 0 1-.869 2.375 10.2 10.2 0 0 0-.894 1.978 5.3 5.3 0 0 1-.075.926c-.09.273-.263.505-.378.766-.158.359-.04.691-.149 1.058a3.273 3.273 0 0 1-.485.816c-.307.481-.2 1.039-.519 1.541a8.889 8.889 0 0 0-.841 2.306c-.118.4-.2.8-.31 1.2a3.085 3.085 0 0 1-.147.62c-.105.184-.285.112-.376.218a1.859 1.859 0 0 0-.131.507 10.355 10.355 0 0 1-.42 1.1c-.326.772-.7 1.523-.984 2.312q-.443 1.239-.889 2.477c-.141.393-.278.787-.43 1.175a2.34 2.34 0 0 1-.555.79c-.246.287-.348.689-.579.993a2.239 2.239 0 0 0-.458.85 13.569 13.569 0 0 1-.589 1.977c-.7 1.614-1.583 3.149-2.291 4.764-.741 1.693-1.445 3.4-2.087 5.138-.6 1.627-.988 3.314-1.6 4.935-.61 1.605-1.134 3.234-1.735 4.844-.624 1.672-1.251 3.341-1.81 5.035a17.116 17.116 0 0 0-.468 1.834c.041-.277.08-.549.126-.8a4.521 4.521 0 0 0-.88 3.271 3.158 3.158 0 0 0 .385-.765 2.417 2.417 0 0 1-.138.4 6.389 6.389 0 0 0-.437 1.017l-.751 2.606c-.119.419-.23.842-.37 1.255-.124.367-.393.685-.507 1.044-.127.4-.084.892-.182 1.31a3.879 3.879 0 0 1-.4 1.053 7.531 7.531 0 0 0-.471.749 3.318 3.318 0 0 0-.095 1.009c-.048.434-.2.847-.263 1.279-.057.416.137.674.211 1.072a1.972 1.972 0 0 1-.2 1.069c-.106.323-.167.667-.243 1-.033.141-.056.585-.156.679a2.269 2.269 0 0 1-.6.1 6.949 6.949 0 0 1-1.2.146 24.285 24.285 0 0 1-2.56-.214 25.111 25.111 0 0 1-5.055-.981 28.841 28.841 0 0 1-4.552-2 19.924 19.924 0 0 1-3.95-2.928c-.658-.6-1.285-1.229-1.912-1.859-.3-.3-.6-.606-.908-.9-.243-.239-.559-.466-.583-.835a3.372 3.372 0 0 1 .419-1.267q.2-.5.387-1.008c.311-.822.616-1.647.922-2.471l1.9-5.12c.639-1.716 1.294-3.4 2.066-5.056.739-1.59 1.411-3.193 2.025-4.835.58-1.551 1.27-3.045 1.927-4.563.353-.815.687-1.64.957-2.486a12.532 12.532 0 0 1 .738-2.043 7.13 7.13 0 0 0 .536-1.311 2.792 2.792 0 0 1 .442-1.07 7.273 7.273 0 0 0 1.136-2.286 37.017 37.017 0 0 1 1.956-4.751c.779-1.538 1.642-3.013 2.353-4.585s1.687-3 2.356-4.609c1.38-3.313 3.282-6.364 4.68-9.669 1.377-3.255 3.018-6.383 4.424-9.624.735-1.694 1.444-3.4 2.114-5.12.319-.822.636-1.644.966-2.461a20.18 20.18 0 0 0 1.028-2.064 10.232 10.232 0 0 1 .935-2.081 23.946 23.946 0 0 0 .879-2.361c.658-1.668 1.346-3.325 2.05-4.974.724-1.7 1.5-3.368 2.248-5.051.284-.636.443-1.321.735-1.953.145-.314.441-.581.571-.882.06-.14.046-.334.1-.483a5.245 5.245 0 0 1 .286-.591c.754-1.543 1.589-3.026 2.276-4.6.7-1.61 1.421-3.219 2.039-4.865.61-1.626 1.382-3.159 1.907-4.819.25-.792.5-1.587.691-2.4a6.4 6.4 0 0 0 .322-2.468c-.1-.445-.616-1.353-1.14-.942a4.827 4.827 0 0 0-1.037 1.659c-.4.8-.817 1.59-1.156 2.417a12.788 12.788 0 0 1-.89 1.907c-.9 1.471-1.623 3.011-2.437 4.533a5.211 5.211 0 0 1-.651.925c-.243.287-.174.424-.274.787a13.746 13.746 0 0 1-.993 1.79 22.8 22.8 0 0 1-1.137 2.366c-.393.669-.754 1.346-1.08 2.05-.742 1.608-1.456 3.23-2.175 4.849-.382.858-.752 1.723-1.171 2.564-.184.369-.364.744-.564 1.105-.129.235-.365.426-.474.665-.125.271.012.5-.094.764-.123.306-.257.431-.524.252-.6-.4-.716-1.255-1.036-1.865a14.923 14.923 0 0 1-1.76-4.427 15.413 15.413 0 0 1-.088-2.737 3.844 3.844 0 0 1 .909-2.029c.993-1.573 1.987-3.146 3-4.708.444-.687.832-1.41 1.287-2.089.439-.656 1.026-1.141 1.508-1.749.269-.339.466-.711.754-1.038a7.258 7.258 0 0 0 .67-.871c.377-.588.634-1.225 1.047-1.8.975-1.347 1.968-2.687 3-4a11.037 11.037 0 0 1 1.871-1.686c.664-.544 1.258-1.165 1.869-1.767a40.374 40.374 0 0 1 3.6-3.374c1.341-1.03 2.727-2.014 4.147-2.932a10.445 10.445 0 0 0 2.13-1.406 3.439 3.439 0 0 1 .77-.665c.286-.169.618-.214.9-.369a20.005 20.005 0 0 0 2.225-1.7l2.136-1.636a5.991 5.991 0 0 0 1.083-.8c.123-.166.108-.4.247-.572.315-.4.936-.432 1.377-.6a15.092 15.092 0 0 1 2.6-.674 16.586 16.586 0 0 0 2.284-.751 21.073 21.073 0 0 1 5.09-1.08c-.781 2.3-1.667 4.572-2.265 6.933a18.339 18.339 0 0 1-.686 2.975c-.145.325-.533.634-.339 1a2.591 2.591 0 0 0 .806.736c.535.348 1.2-.038 1.721-.248a13.613 13.613 0 0 1 2.695-.973c.986-.169 1.815-1.1 2.839-1.088a1.75 1.75 0 0 1 1.1.477c.33.274.7.495 1.023.784a8.087 8.087 0 0 0 2.411 1.532c.309.122.572.059.857.3.213.176.382.43.668.5a42.534 42.534 0 0 0-3.808 4.5 9.24 9.24 0 0 0-1.285 2.493c-.145.437-.279.77 0 1.192a.727.727 0 0 0 .688.382c.7-.107 1.314-1.047 1.7-1.561.448-.6.94-1.151 1.406-1.734a22.205 22.205 0 0 1 3.035-3.476 10.342 10.342 0 0 1 1.12-.876c.317-.194.541-.046.893-.108a9.1 9.1 0 0 0 2.457-1.013c.852-.431 1.7-.862 2.563-1.28.449-.219 1.111-.682 1.638-.461.59.247.924 1.171 1.247 1.665a3.031 3.031 0 0 0 1.1 1.157c.836.444 2.461.982 3.193.129 1.037-1.209.932-3.188.842-4.67a20.056 20.056 0 0 1-.1-2.735c.061-.8.155-1.6.234-2.4a29.436 29.436 0 0 1 4.089 3.905c.65.782 1.323 1.543 1.994 2.307a5.62 5.62 0 0 1 .867 1.168 4.748 4.748 0 0 0 .773 1.042 14 14 0 0 1 1.5 2.323q.679 1.125 1.339 2.261a38.31 38.31 0 0 1 2.317 4.527c.341.823.8 1.571 1.153 2.39s.686 1.628 1.018 2.446c.192.472.422.949.571 1.436.1.338.012.767.136 1.081s.4.566.532.891.2.675.333 1c.639 1.6 1.516 3.135 2.231 4.708.743 1.632 1.484 3.267 2.373 4.827a44.608 44.608 0 0 0 3.125 4.492c.569.763 1.158 1.515 1.7 2.294a4.282 4.282 0 0 0 .634.829 3.754 3.754 0 0 0 .85.441 2.154 2.154 0 0 0 .308-1.172 7.227 7.227 0 0 0-.331-1.174c-.239-.739-.867-1.4-.709-2.219a4.806 4.806 0 0 1 1.245-1.946q.938-1.144 1.884-2.282c2.115-2.55 4.361-4.994 6.551-7.485 1.115-1.268 2.208-2.557 3.361-3.791.517-.553 1.117-1 1.668-1.519.452-.422.749-.956 1.175-1.4.316-.326.691-.563 1.012-.892l.783-.8q.862-.882 1.718-1.769c1.139-1.187 2.2-2.438 3.324-3.64 2.166-2.321 4.458-4.549 6.719-6.775.653 1.929 1.193 3.939 1.661 5.921a12.457 12.457 0 0 0 .336 1.464c.17.461.393.9.572 1.363.4 1.019.7 2.105 1.2 3.076a27.987 27.987 0 0 0 3.119 5.568 21.837 21.837 0 0 0 2.381 2.144l2.536 2.193c-.761.573-1.515 1.147-2.319 1.66zm-70 12.246a.7.7 0 0 0-.216-.309.49.49 0 0 1 .178.221 6.826 6.826 0 0 1 .338.9c-.094-.273-.187-.546-.3-.811zm-20.43 14.614c.584.654 1.2 1.277 1.794 1.924.545.6.983 1.251 1.472 1.892q1.582 2.073 3.3 4.033c1.1 1.26 2.293 2.448 3.346 3.752a26.083 26.083 0 0 1 2.635 4.171 11.585 11.585 0 0 0 1.275 1.93 3.949 3.949 0 0 1 .686.856 7.167 7.167 0 0 1 .3 1.209c.82 3.5 1.659 7 2.45 10.509.383 1.7.64 3.424 1.01 5.127.375 1.724.937 3.4 1.292 5.128.718 3.5 1.209 7.053 1.981 10.544.751 3.4 2.056 6.631 2.765 10.045a3.182 3.182 0 0 1 .132 1.4 5.461 5.461 0 0 0-.17 1.175 3.155 3.155 0 0 1-.5 1.9 8.2 8.2 0 0 1-3.3 2.867 12.161 12.161 0 0 1-2.16.942c-.371.088-.73.03-1.1.084a4.654 4.654 0 0 0-1.023.455 12.5 12.5 0 0 1-4.576.4 11.169 11.169 0 0 1-4.695-.777q-.182-.083-.359-.174-.3-.046-.106-.269c0-.162.093-.348.1-.519a3.622 3.622 0 0 0-.185-1.064q-.326-1.241-.611-2.493c-.785-3.46-1.157-6.972-1.639-10.482-.249-1.81-.611-3.6-.922-5.4-.3-1.728-.478-3.463-.7-5.2s-.466-3.461-.7-5.191c-.127-.947-.4-1.878-.523-2.821a20.952 20.952 0 0 0-.064-2.105c-.381-1.686-.4-3.434-.826-5.11-.443-1.726-1.083-3.423-1.679-5.1q-.462-1.3-.924-2.608a2.036 2.036 0 0 0-.919-1.312c-.293-.136-.583-.121-.847-.325a9.72 9.72 0 0 1-.889-.879c-.62-.623-1.235-1.251-1.857-1.872a94.352 94.352 0 0 0-7.434-7.094 33.289 33.289 0 0 0-3.767-2.928c-1.473-.868-2.926-1.771-4.4-2.638a16.313 16.313 0 0 0-2.256-1.107c-.692-.277-.269-.938-.07-1.474.309-.829.576-1.669.835-2.515.2-.639.3-1.466.956-1.813.428-.227.615.037 1.025.166a2.627 2.627 0 0 0 .9.092 11.553 11.553 0 0 1 2.149-.23 2.8 2.8 0 0 0 1.133.006 12.065 12.065 0 0 1 1.248-.106c.762-.057 1.545-.066 2.3-.2a31.229 31.229 0 0 0 4.895-1.222c1.691-.593 3.3-1.415 4.923-2.172a10.019 10.019 0 0 0 .491 2.211 3.211 3.211 0 0 0 1.124 1.621c1.182.656 1.8 1.787 2.676 2.768zm24.718 71.089c.513-.279.611.113.915.533q1.248 1.725 2.51 3.44 1.227 1.671 2.457 3.341c.767 1.044 1.615 2.04 2.32 3.128a28 28 0 0 1 1.854 3.548c.472 1.026 1.159 2.1.663 3.239-.461 1.062-1.771 1.51-2.725 2.015-1.2.638-2.155 1.089-3.518.6a67.478 67.478 0 0 1-7.594-3.36 28.094 28.094 0 0 1-5.823-4.45c-.98-.863-2-1.658-2.913-2.593-.953-.973-1.862-1.989-2.822-2.955-1.494-1.5-3.06-2.834-2.8-5.163a34.267 34.267 0 0 0 4.307 1.363 19.669 19.669 0 0 0 4.741.4 13.725 13.725 0 0 0 1.981-.355 6.59 6.59 0 0 0 1.93-.315 6.075 6.075 0 0 1 1.5-.768 4.778 4.778 0 0 0 1.7-.729 15.02 15.02 0 0 1 1.319-.926zm-44.977-61.793a.122.122 0 0 1 .042.016.222.222 0 0 0-.042-.016zm-1.661-.938c.015.009.031.021.047.032l-.047-.032zm-30.55 82.255q1.014 1.8 1.971 3.636c.318.608.621 1.223.92 1.84a4.047 4.047 0 0 1 .557 1.638 9.956 9.956 0 0 1-3.817-1.636 19.809 19.809 0 0 1-3.208-2.6c-.985-.934-1.99-1.857-3.045-2.712a12.692 12.692 0 0 0-1.533-1.052 2.113 2.113 0 0 1-.464-.337c-.164-.17-.223-.468-.422-.6-.406-.263-1.04.13-1.4.307a6.049 6.049 0 0 0-1.348.872 12.83 12.83 0 0 0-1.171 1.392c-.374.435-.751.85-1.087 1.316a19.123 19.123 0 0 1-2.558 3.047 13.653 13.653 0 0 0-1.379 1.162 9.1 9.1 0 0 1-1.181 1.167 22.38 22.38 0 0 0-2.622 2.516c-.91 1.029-1.945 1.951-2.927 2.909a2.293 2.293 0 0 1 .386-1.637c.312-.61.532-1.27.792-1.9q.85-2.073 1.9-4.046c.652-1.226 1.319-2.443 1.951-3.679.524-1.026 1.335-2.292 1.085-3.491-.1-.468-.352-1.173-.857-1.329s-1.009.286-1.415.526a29.36 29.36 0 0 1-3.694 1.788c-1.27.53-2.55 1.045-3.773 1.68-1.185.615-2.3 1.351-3.49 1.964-.586.3-1.207.527-1.787.844-.559.305-1.1.642-1.655.952a10.034 10.034 0 0 1-3.491 1.22 17.187 17.187 0 0 1 3.2-2.873c1.324-1.03 2.639-2.068 4.006-3.042 1.229-.875 2.479-1.717 3.681-2.628.562-.426 1.117-.861 1.655-1.318a2.5 2.5 0 0 0 1.046-1.386 1.578 1.578 0 0 0-.628-1.52 2.226 2.226 0 0 0-1.6-.173 31.923 31.923 0 0 0-4.373 1.083c-.331.1-.67.254-1 .331a6.316 6.316 0 0 1-1.07.062c-.642.033-1.282.066-1.92.148-.666.085-1.347.061-2.009.167a8.562 8.562 0 0 1-1.639.408c-2.738-.066-5.278 1.456-7.987 1.456q2.423-1.421 4.857-2.822c.744-.428 1.518-.809 2.237-1.279.8-.52 1.527-1.111 2.348-1.6 2.94-1.74 6.211-3.011 8.893-5.155.65-.52 1.271-1.079 1.9-1.625a2.865 2.865 0 0 1 .5-.434c.269-.126.183-.161.419.08a7.2 7.2 0 0 1 .656.894 13.916 13.916 0 0 0 3.086 3.119 25.031 25.031 0 0 0 4.5 2.338 45.743 45.743 0 0 0 4.717 2.019 25.865 25.865 0 0 0 5.095 1.025 21.488 21.488 0 0 0 5.309-.131 9.018 9.018 0 0 0 .88 3.729c.6 1.158 1.368 2.232 2.009 3.37zM180.894 170a3.484 3.484 0 0 1 .428.086c-.11-.028-.25-.028-.331-.051-.034-.009-.064-.023-.1-.035zm.486.782a1.64 1.64 0 0 0 .142-.406 1.159 1.159 0 0 1-.142.406zM165.873 193.7c-2.02 1.2-3.83 2.713-5.787 4.009a30.492 30.492 0 0 1-3.04 1.76c-.5.256-1.012.51-1.537.72-.455.182-.894.475-1.36.614a3.8 3.8 0 0 1-1.54 0 2.215 2.215 0 0 1-1.246-.319 7.74 7.74 0 0 1-1.485-2.32 24.837 24.837 0 0 1-1.624-3.222 18.874 18.874 0 0 1-1.067-3.061 1.743 1.743 0 0 0 .025-1.763c-.134-.27-.307-.519-.465-.775-.179-.289-.171-.356-.493-.361l.928 2.883c-.305-.945-.718-1.913-.928-2.883a18.105 18.105 0 0 0-.556-2.492c-.154-.419-.4-.813-.518-1.242a7.588 7.588 0 0 1-.144-1.088c-.131-1.008-.39-2.007-.55-3.014-.3-1.92-.5-3.862-.866-5.772-.378-1.964-.866-3.917-1.294-5.871-.163-.746-.456-1.385.272-1.894.7-.487 1.473-.892 2.209-1.316a19.4 19.4 0 0 1 2.138-1.121 10.957 10.957 0 0 0 1.813-.895 4.16 4.16 0 0 1 1.128-.363c.416-.135.827-.291 1.24-.436q1.136-.4 2.271-.808c.414-.148 1.264-.69 1.652-.279a2.046 2.046 0 0 1 .281.922q.14.656.267 1.314c.332 1.7.651 3.4.914 5.115.259 1.679.406 3.374.667 5.052a5.86 5.86 0 0 1 .231 1.332c-.03.3-.242.466-.45.664a19.877 19.877 0 0 0-1.5 1.589c-.521.617-1.019 1.256-1.583 1.836a8.717 8.717 0 0 0-1.421 1.765c-.332.579-.776 1.123-.622 1.816.12.539.277 1.075.917.854a6.875 6.875 0 0 0 1.959-1.487c.568-.5 1.129-1 1.708-1.48.64-.533 1.355-.983 1.974-1.538.537-.482 1-1.043 1.507-1.553 1.223-1.224 2.539-2.32 3.839-3.456.6-.524 1.078-1.164 1.621-1.742s1.118-1.094 1.68-1.636c1.221-1.176 2.49-2.361 3.628-3.618.545-.6 1.129-1.165 1.678-1.764.226-.247.394-.572.61-.808s.529-.374.762-.587c1.02-.931 1.588-2.226 2.594-3.175a16.007 16.007 0 0 1 .653 1.8 7.635 7.635 0 0 0 .635 1.731c.148.235.4.406.527.651a5.337 5.337 0 0 1 .177.763 8.742 8.742 0 0 0 .763 1.407 8.024 8.024 0 0 0 1.068 1.334 2.3 2.3 0 0 0 .306.281c-.044-.025-.088-.05-.134-.073a3.052 3.052 0 0 0 1.071 1.093l-.041.086c-.255.552-.542 1.063-.743 1.64-.346 1-.855 1.93-1.183 2.935a11.183 11.183 0 0 1-.5 1.611c-.225.451-.519.863-.739 1.316-.515 1.061-.851 2.224-1.257 3.33-.419 1.142-.9 2.246-1.422 3.346s-.995 2.2-1.451 3.316a6.945 6.945 0 0 1-.692 1.509 2.559 2.559 0 0 1-1.388.794 35.746 35.746 0 0 0-6.085 3.028zm-25.268-32.388c-1.194-1.01-2.86-.726-4.326-.732-1.7-.007-3.4.328-5.1.442s-3.4.2-5.1.16a24.678 24.678 0 0 1-4.515-.483 18.566 18.566 0 0 0-2.2-.292 1.3 1.3 0 0 1-1.136-.62 5.12 5.12 0 0 1-.252-2.1 5 5 0 0 1 .137-2.006 2.152 2.152 0 0 1 1.346-1.079l2.05-.783c2.768-1.06 5.614-2.273 8.6-2.528.828-.071 1.659-.078 2.489-.1.713-.021 1.372-.195 2.077-.268a41.349 41.349 0 0 0 4.36-.495c.4-.085.649.128 1.055.192a4.137 4.137 0 0 0 .955.018 12.2 12.2 0 0 1 1.941-.072c.774.066 1.553.106 2.321.226.69.108 1.358.294 2.053.373a21.157 21.157 0 0 1 2.252.284c.374.083.944.164 1.164.524.292.476.073 1.389.044 1.914-.04.74-.085 1.481-.078 2.222a12.849 12.849 0 0 0 .284 2.372 4.706 4.706 0 0 1 .224 1.82.514.514 0 0 1-.64.422c-.231-.036-.421-.262-.634-.289-.415-.053-.012.257-.249.523-.19.214-.506.154-.76.224a5.9 5.9 0 0 0-.782.323c-.584.257-1.19.434-1.765.718-1.278.63-2.493 1.378-3.71 2.117a6.832 6.832 0 0 0-.759-2.025 9.288 9.288 0 0 0-1.342-1zM224.379 123c.274-.773.635-1.529.863-2.316.082-.282.082-.681.37-.84a2.157 2.157 0 0 1 .925-.047h1.4c.232 0 .569-.054.706.19s-.085.713-.09.994a4.618 4.618 0 0 0 .2 1.249c.46 1.739.937 3.457 1.466 5.18-.527-.237-.937-.8-1.539-.865-.38-.04-.672.187-1.022.245-.3.049-.6.067-.9.136-1.338.311-2.554 1-3.912 1.249a7.7 7.7 0 0 1 .236-1.434c.133-.419.28-.833.423-1.249.286-.831.579-1.66.873-2.489zm4.414-11.669c.643-.284 1.285-1.109.684-1.79-.325-.367-1.146-.174-1.57-.087-.6.123-2.881 1.614-3.163.6a3.656 3.656 0 0 1 .449-2.253 3.714 3.714 0 0 1 .756-1.016c.33-.305.466-.212.872-.167.67.075 1.293-.132 1.733.521.086.127.1.3.283.326.138.02.221-.151.36-.151.226 0 .251.156.339.331.231.458.569 1.358 1.256.983s.735-1.6.736-2.265c0-1.025.071-2.049.126-3.072a3.068 3.068 0 0 1 .705-2.159 11.322 11.322 0 0 1 1.666-1.817 5.481 5.481 0 0 1 2.634-.509 17.253 17.253 0 0 1 3.063-.085 20.453 20.453 0 0 0 3.065.108c1.019-.046 2.037-.109 3.057-.135.969-.024 1.981.057 2.94-.047.39-.042.91-.184 1.167.2a4.815 4.815 0 0 1 .351 1.739c-1.054-.194-2.774-.681-3.179.809-.122.451.257.853.589 1.115a3.519 3.519 0 0 0 1.755.455c.329.046.86.038 1.052.368a3.229 3.229 0 0 1 .11 1.257c.09 1.45.3 2.889.448 4.333a16.573 16.573 0 0 1 .044 4.176c-.107.707-.4 1.372-.448 2.085-.032.441.037.942-.366 1.233a5.137 5.137 0 0 1-1.821.461c-.724.16-1.441.351-2.153.557-1.129.326-2.507.489-2.914 1.752-.435 1.348-.755 2.737-1.175 4.092a15.8 15.8 0 0 1-.814 1.962 1.789 1.789 0 0 0-.276.833 3.049 3.049 0 0 0 .356.874 3.283 3.283 0 0 0 .747-.407 5.024 5.024 0 0 0 .6-.744 4.3 4.3 0 0 1 1.208-1.287 1.208 1.208 0 0 1-.045.734 4.652 4.652 0 0 1-.426.481c-.339.425-.665.862-1.033 1.263-.732.8-1.618 1.457-2.379 2.232a14.315 14.315 0 0 1-2.417 2.272c-.9.561-1.856 1.024-2.789 1.521.82-1.864.253-3.74-.724-5.416-.454-.78-1.007-1.5-1.518-2.238-.4-.587-1.187-1.376-1.168-2.13a2.371 2.371 0 0 1 .482-1.08 12.326 12.326 0 0 0 .568-1.148 9.579 9.579 0 0 0 .967-2.485 3.319 3.319 0 0 0-.572-2.416c-.206-.244-.508-.22-.776-.385a3.949 3.949 0 0 1-.678-.623c-.245-.246-.545-.416-.789-.658a4.514 4.514 0 0 1-.628-.9c-.445-.737-.9-1.468-1.346-2.2zm2.819-16.38a1.735 1.735 0 0 1 1.54 1.069c-.241.378-.885 1.517-1.417 1.063-.1-.085-.144-.266-.264-.364a1.619 1.619 0 0 0-.384-.2 1.752 1.752 0 0 1-.816-.539c-.444-.666.875-1.039 1.341-1.031zm15.068 28.906c.138-.037.566.243.7.3a4.041 4.041 0 0 1 .783.387 2.314 2.314 0 0 1 .455.642c.046 1.678.152 3.368.139 5.051l-.139-5.052a6.462 6.462 0 0 0-.268 1.364c0 .484.074.982.119 1.463.086.915.187 1.829.281 2.744-.012.527-.036 1.054-.082 1.578-.669-.931-1.326-1.874-2-2.8a2.7 2.7 0 0 0-2.331-.955l1.858-3.752c.071-.143.356-.936.48-.969zm109.368 2.843a23.1 23.1 0 0 1 3.05-.8 18.629 18.629 0 0 0 2.781-.828c.829-.243 1.668-.451 2.485-.734a4.8 4.8 0 0 0 1.779-.888 2.268 2.268 0 0 0 .685-1.908c-.11-.808-.707-.907-1.387-1.138a53.887 53.887 0 0 0-10.585-2.348 38.064 38.064 0 0 0-5.622-.5c-.974.02-1.938.074-2.911.012a20.391 20.391 0 0 1-2.647.1 7.754 7.754 0 0 0-2.607.182c-.949.129-1.909.167-2.866.211a12.42 12.42 0 0 0-2.639.232 3.68 3.68 0 0 1-2.312.106c.883-.976 1.762-1.956 2.648-2.929a25.769 25.769 0 0 0 4.807-6.642 3.687 3.687 0 0 0-.086-3.61c-.7-.886-2.227-.7-3.2-.558a9.412 9.412 0 0 0-3.528 1.293 28.065 28.065 0 0 0-3.134 1.924c-.929.754-2 1.253-2.939 1.993-.969.763-1.944 1.5-2.924 2.249-2.117 1.612-3.875 3.661-5.879 5.4a37.066 37.066 0 0 0-3.008 2.964 15.751 15.751 0 0 0-1.3 1.527c-.323.458-.6.946-.944 1.392-.408.534-.92.98-1.35 1.5-.395.476-.758.978-1.108 1.488-.368.536-.722 1.082-1.088 1.62-.192.282-.375.764-.761.715-.545-.07-.846-.538-1.439-.215a2.877 2.877 0 0 0-.492.441 3.311 3.311 0 0 1-.775.43 11.052 11.052 0 0 0-1.524 1.057 18.636 18.636 0 0 0-1.559 1.148c-2.055 1.856-3.951 3.845-5.926 5.779-.478.467-.978.911-1.442 1.392-.369.383-.658.838-1.03 1.215a8.133 8.133 0 0 1-.7.495 5.94 5.94 0 0 0-.568.663c-.434.5-.863 1-1.309 1.488-.873.957-1.838 1.79-2.677 2.782-.857 1.014-1.823 1.942-2.7 2.943-1.844 2.108-3.575 4.262-5.27 6.49-.841 1.105-1.787 2.133-2.589 3.266a24.125 24.125 0 0 0-1.982 3.418c-.163.335-.371 1.332-.969.98-.214-.126-.357-.5-.49-.7l-.535-.841a34.174 34.174 0 0 1-2.211-3.76c-1.176-2.53-2.346-5.038-3.313-7.657-.489-1.325-1.047-2.617-1.6-3.914s-.97-2.619-1.507-3.91a62.858 62.858 0 0 0-3.877-7.394 31.984 31.984 0 0 0-4.441-6.3c-.943-.968-1.685-2.078-2.682-3.006-.5-.47-1.027-.923-1.531-1.393-.365-.34-.675-.845-1.126-1.074a1.951 1.951 0 0 0-1-.113c-.267.011-.564-.068-.821-.044-.232.022-.326.223-.55.268a.687.687 0 0 1-.56-.184 17.6 17.6 0 0 0-4-1.6 8.81 8.81 0 0 1 2.75-.743 5.671 5.671 0 0 0 2.14-.983c1.407-1.061 1.641-2.739 1.9-4.381a20.741 20.741 0 0 0 .269-5.8q-.37-2.8-.785-5.592a18 18 0 0 0-.578-2.66 6.88 6.88 0 0 1-.476-2.2 1.89 1.89 0 0 1 .308-1.22c.208-.2.514-.3.736-.5a5.617 5.617 0 0 0 1.255-1.626c.261-.5.682-1.231.433-1.809-.271-.627-1.132-.742-1.71-.892a45.016 45.016 0 0 0-5.177-.617 17.4 17.4 0 0 0-2.547-.351c-.827.01-1.651.023-2.479.013a47.1 47.1 0 0 0-5.406.112c-.477.049-.945.087-1.423.114a8.1 8.1 0 0 0-1.017.28 3.455 3.455 0 0 1-.738-.1 4.215 4.215 0 0 0-1.1.052c-.764.143-1.356.63-2.113.782a1.926 1.926 0 0 0-1.342.962 10.486 10.486 0 0 0-.873 4.631c-.079 1.756.052 3.518-.04 5.271-.022.424-.068.6-.516.551a4.829 4.829 0 0 0-1.816-.063 4.04 4.04 0 0 0-2.445 2.513 8.025 8.025 0 0 0-.678 3.681c.073 1.1.478 2.517 1.688 2.835a3.493 3.493 0 0 0 1.913-.293c.576-.181 1.1-.7 1.414.028a16.994 16.994 0 0 0 2.285 4.082c-.95-.065-1.9-.157-2.85-.2a5.426 5.426 0 0 0-2.109.037c-.352.143-.367.39-.618.61-.277.241-.813.138-1.156.128a21.575 21.575 0 0 0-3.005-.111c-.764.079-1.454.458-2.213.6a15.132 15.132 0 0 0-2.712.888c-.819.326-1.624.676-2.467.94a21.161 21.161 0 0 0-2.541.922 26.449 26.449 0 0 0-4.007 2.677c-.344.242-.719.451-1.039.724-.263.224-.436.519-.69.751-.406.371-.879.352-1.319.549a9.313 9.313 0 0 0-1.292.883l-1.108.756a20.057 20.057 0 0 1-2.154 1.431 16.388 16.388 0 0 0-3.659 2.91c-1.235 1.157-2.6 2.165-3.788 3.369a28.18 28.18 0 0 0-3.225 3.867c-1 1.451-1.835 2.989-2.778 4.472a20.368 20.368 0 0 1-1.48 1.85 10.8 10.8 0 0 0-.705.973 3.23 3.23 0 0 1-.614.9 7.653 7.653 0 0 0-1.606 1.281 22.016 22.016 0 0 0-1.4 2.089c-.878 1.425-1.7 2.9-2.485 4.378a2.753 2.753 0 0 0-.268 1.236 10.376 10.376 0 0 1-.22 1.088c-.112.593-.043 1.215-.2 1.8-.1.386-.348.436-.661.654a6.793 6.793 0 0 0-.818.693c-.526.5-1.037 1-1.611 1.453a14.33 14.33 0 0 0-1.7 1.445 15.7 15.7 0 0 1-1.6 1.6c-1.288 1.045-2.5 2.2-3.769 3.28-1.314 1.12-2.511 2.348-3.72 3.577-1.249 1.271-2.571 2.462-3.876 3.675-.1-1.439-.187-2.881-.307-4.319a39.782 39.782 0 0 0-.788-4.592 31.081 31.081 0 0 0-.922-4.132 2.7 2.7 0 0 0-1.9-1.861c-.48-.111-1.207.117-1.439-.419a8.858 8.858 0 0 1-.346-1.912c-.412-2.522.406-5.336-.647-7.749a4.071 4.071 0 0 0-2.318-2.05c-1.324-.587-2.787-.441-4.192-.733a11.358 11.358 0 0 0-1.828-.513c-.672-.03-1.344-.008-2.016.018-.7.027-1.375-.114-2.072-.112-.606 0-1.084.4-1.679.311A4.025 4.025 0 0 0 136.3 147a6.969 6.969 0 0 1-1.787.24c-.764.022-1.528-.05-2.292-.014-.7.034-1.371.247-2.067.332a29.453 29.453 0 0 0-4.323.743c-1.422.392-2.771.956-4.151 1.468-2.212.82-4.75 1.448-5.359 4.056a12.969 12.969 0 0 0-.223 4.474 7.841 7.841 0 0 0 1.117 3.51 5.479 5.479 0 0 0 3.179 1.765 34.363 34.363 0 0 0 4.152.74 21.259 21.259 0 0 0 4.368.431c1.463-.04 2.894-.42 4.352-.544 1.5-.127 2.994-.3 4.493-.434 1.008-.088 2.934-.374 3.44.77.16.362.389.794.1 1.118a14.9 14.9 0 0 0-.97 1.208 4.316 4.316 0 0 0-.872 1.854 13.267 13.267 0 0 0-.154 2.132 34.532 34.532 0 0 0 1.432 8.757 90.863 90.863 0 0 0 2.615 8.769c.99 2.734 1.726 5.579 2.9 8.242a24.281 24.281 0 0 0 2.172 3.731 11.232 11.232 0 0 0 2.312 2.983 4.472 4.472 0 0 0 2.964.84 10.148 10.148 0 0 0 3.532-1.412 52 52 0 0 0 7.435-4.9c1.135-.847 2.164-1.819 3.372-2.568a14.961 14.961 0 0 1 3.7-1.771c-1.108 2.335-2.115 4.708-3.293 7.011-1.162 2.273-2.124 4.628-3.17 6.954-.43.957-1.064 1.784-1.488 2.737l-1.456 3.277c-.884 2-1.826 3.983-2.626 6.013-.181.461-.1 1.018-.335 1.423a9.55 9.55 0 0 0-.677 1.209c-.388.954-.7 1.916-1.137 2.851-.978 2.069-1.6 4.3-2.536 6.387s-1.785 4.215-2.622 6.354c-.41 1.049-.871 2.078-1.254 3.137a13.251 13.251 0 0 1-1.262 2.851 44.048 44.048 0 0 0-3.2 6.082 8.653 8.653 0 0 0-.913 3.065 4.517 4.517 0 0 0 1.045 2.584c-.9.456-1.729 1.045-2.632 1.5-.968.493-1.98.88-2.987 1.284s-2.035.822-3.05 1.24c-.895.369-1.722.822-2.589 1.244-.821.4-1.569.927-2.345 1.4-.84.515-1.692 1.009-2.532 1.523-1.646 1.008-3.249 2.019-4.977 2.886-.9.452-1.807.895-2.709 1.345a6.023 6.023 0 0 0-2.1 1.351 2.93 2.93 0 0 0 .029 3.513c.5.651 1.734.59 2.482.611a6.714 6.714 0 0 0 1.531-.116c.414-.085.766-.305 1.171-.408a12.858 12.858 0 0 1 1.44-.154c.46-.062.916-.144 1.371-.237.986-.2 1.962-.444 2.946-.653.958-.2 1.92-.4 2.86-.68a4.245 4.245 0 0 1 1.2-.33 6.054 6.054 0 0 0 1.258-.039c.448-.08.889-.206 1.34-.266.42-.056.844.011 1.26-.059a11.95 11.95 0 0 0 1.358-.42 4.386 4.386 0 0 1 1.31-.09c-1.125.871-2.3 1.672-3.449 2.513s-2.239 1.789-3.352 2.694a9.187 9.187 0 0 0-2.583 2.489 4.41 4.41 0 0 0-.35 2.831c.225 1.17 1.091 1.318 2.144 1.392a6.829 6.829 0 0 0 3.6-1.067 77.746 77.746 0 0 0 6.77-3.841 34.649 34.649 0 0 1 3.444-1.743q.916-.438 1.835-.872c.5-.237 1.155-.709 1.708-.655-1.52 3.149-3.111 6.264-4.45 9.5a13.774 13.774 0 0 0-1.119 4.228c-.078 1.032-.024 3.075 1.265 3.417a1.618 1.618 0 0 0 1.48-.609c.552-.543 1.06-1.137 1.586-1.7 1.031-1.109 2.108-2.162 3.233-3.177a42.19 42.19 0 0 0 3.3-3.177c.975-1.093 2.194-1.921 3.123-3.056.954-1.167 1.81-2.41 2.77-3.571.632-.764 1.14-1.961 2.225-2.131a6.669 6.669 0 0 0 1.483 2.441 29.065 29.065 0 0 0 4.151 4.307 14.685 14.685 0 0 0 4.525 2.9c1.126.434 3.481 1.44 4.366.074a4.09 4.09 0 0 0 .041-2.628 13.506 13.506 0 0 0-1.129-2.82c-.88-1.848-1.854-3.621-2.843-5.41-.5-.9-.984-1.8-1.52-2.68a9.422 9.422 0 0 1-1.34-2.369 2.371 2.371 0 0 1-.036-1.214c.124-.387.285-.316.632-.366.761-.109.532-1.514.432-2.062a8.251 8.251 0 0 0-.447-1.421 4.061 4.061 0 0 1-.46-1.35c.017-.4.407-.81.564-1.171a10.912 10.912 0 0 0 .433-1.3c.594-2.007 1.373-3.945 1.868-5.983a54.012 54.012 0 0 1 1.737-5.972c.749-2.034 1.565-4.047 2.246-6.1.661-2 1.312-3.988 2.038-5.963 1.457-3.961 3.009-7.893 4.726-11.749 1.695-3.805 3.619-7.509 5.084-11.413.7-1.877 1.4-3.742 2.064-5.634.688-1.962 1.424-3.884 2.22-5.8.812-1.959 1.483-3.981 2.177-5.984.684-1.971 1.269-4.01 2.112-5.918a3.59 3.59 0 0 1 .572.685 4.08 4.08 0 0 0 .5.778 7.613 7.613 0 0 0 1.346 1.065 2.118 2.118 0 0 0 .871.5h.026a1.261 1.261 0 0 0-.188.02l1.281.889c-.035-.083-.073-.163-.113-.24.139.242.283.469.583.521a.7.7 0 0 1-.072.009c.2.15.922.866.859.094.028.125-.019.219.033.345a1.43 1.43 0 0 0 .281.359 4.418 4.418 0 0 0 .682.583c.57.41 1.184.753 1.737 1.186.16.125.7.755.89.755l1.047.913-.4-1.4.291 1.017a1.494 1.494 0 0 0 .579.8c.52.465 1.035.936 1.574 1.378.984.806 2.113 1.432 3.167 2.142.573.386 1.135.782 1.681 1.205.448.347.995.47 1.44.807a13.968 13.968 0 0 1 1.542 1.483 7.291 7.291 0 0 1 1.251 1.467 6.7 6.7 0 0 1 .452 2.158q.161 1.06.317 2.121c.212 1.451.413 2.9.587 4.361.171 1.432.381 2.863.506 4.3.126 1.454.094 2.91.258 4.362a87.035 87.035 0 0 0 1.323 8.75c.629 2.888 1.032 5.818 1.577 8.725.281 1.495.578 2.987.871 4.479.144.734.3 1.466.444 2.2.12.607.058 1.216.164 1.827a5.839 5.839 0 0 1 .137.989c0 .325-.2.61-.215.9a2.972 2.972 0 0 0 .586 1.383 16.66 16.66 0 0 0 1.217 1.391c.4.455.563.619.42 1.234-.612 2.639.955 4.85 2.629 6.715a58.165 58.165 0 0 0 5.8 5.812c1.107.932 2.149 1.937 3.209 2.921a19.74 19.74 0 0 0 3.3 2.4c1.2.729 2.478 1.261 3.725 1.9a29.743 29.743 0 0 0 3.732 1.692c1.243.438 2.5.81 3.7 1.367a3.921 3.921 0 0 0 3.089.014 11.057 11.057 0 0 0 1.762-1.162c.535-.365 1.08-.714 1.64-1.037a4.577 4.577 0 0 0 2.227-2.2c.468-1.234.063-2.716-.2-3.956a11.406 11.406 0 0 0-1.517-3.546c-.706-1.144-1.584-2.133-2.394-3.2-.838-1.1-1.585-2.263-2.461-3.339a37.881 37.881 0 0 0-2.755-3.045c-.975-.962-1.827-2.035-2.726-3.065-.216-.248-.548-.515-.588-.867-.035-.306.175-.528.276-.8a4.888 4.888 0 0 0 .148-1.645 1.638 1.638 0 0 1 .134-.782c.124-.225.353-.315.441-.557a4.852 4.852 0 0 0 .093-.713 5.658 5.658 0 0 1 .28-.765 4.409 4.409 0 0 0-.183-2.141c-.121-.635-.235-1.272-.352-1.907a31.76 31.76 0 0 0-.874-4.085 28.727 28.727 0 0 1-1.793-8.273 19.95 19.95 0 0 0-.763-4.21q-.529-2.214-1.075-4.424c-.7-2.822-1.534-5.6-2.249-8.419s-1.361-5.631-2.208-8.4a56.325 56.325 0 0 0-3.319-8.057 16.187 16.187 0 0 0-2.183-3.437c-.934-1.12-1.892-2.22-2.852-3.318-1.936-2.216-3.873-4.43-5.838-6.621a27.132 27.132 0 0 0-3.109-3.054c-1.017-.823-2.409-1.516-2.73-2.86-.09-.38-.151-.766-.251-1.143a2.517 2.517 0 0 1-.208-.784c.056-.471.927-.651 1.28-.811 1.22-.552 2.454-1.1 3.65-1.7a18.6 18.6 0 0 0 1.864-1.142 6.3 6.3 0 0 1 1.692-.625 21.5 21.5 0 0 0 3.69-1.609c1.235-.654 2.48-1.307 3.678-2.028a19.424 19.424 0 0 0 3.189-2.586c.461-.427.788-.212 1.115.258.4.571.816 1.128 1.227 1.69a2.4 2.4 0 0 0 .627.727l.029.015c-.047-.016-.1-.033-.154-.056a3.2 3.2 0 0 0 1.1 1.677c-.044-.121-.086-.242-.128-.364a2.953 2.953 0 0 0 .5.852 14.332 14.332 0 0 0 1.426 1.576c.264.259.53.516.8.773l.319.309a1.3 1.3 0 0 0 .448.3c.365.164.449.452.764.679.472.341 1.061.567 1.55.9.4.275.747.833 1.208.936.167.037.292.01.426.142.177.174-.007.17.272.233.141.032.286-.049.428 0a1.606 1.606 0 0 1 .408.27q.433.315.865.632.777.571 1.546 1.154c1.018.778 1.953 1.657 2.974 2.429a18.138 18.138 0 0 0 1.66 1.03c.47.282.866.664 1.307.987.526.386 1.14.574 1.685.923s1.051.7 1.608 1a34.3 34.3 0 0 0 3.741 1.823 12.37 12.37 0 0 0 4.052 1.019 9.886 9.886 0 0 0 4.119-.832 36.756 36.756 0 0 0 3.841-1.776c1.208-.647 2.333-1.426 3.517-2.111s2.317-1.408 3.45-2.188a32.011 32.011 0 0 1 3.263-2.174c1.173-.611 2.213-1.406 3.318-2.128q1.7-1.112 3.389-2.243c2.349-1.574 4.7-3.175 6.931-4.915a27.783 27.783 0 0 0 3.066-2.678c1-1.05 2.2-1.945 3.3-2.89l3.166-3.073.005-.005-3.172 3.079a2.923 2.923 0 0 0 1.232-.733q.637-.494 1.263-1c.607-.495 1.31-1 1.24-1.879.266-.248.537-.49.82-.717.462-.369 1.013-.594 1.5-.92 1.008-.67 1.874-1.523 2.821-2.273.417-.329.791-.579.856-1.144a16.054 16.054 0 0 0-.017-1.9 4.591 4.591 0 0 1 .043-1.6c.183-.453.793-.647 1.187-.863 1.114-.611 2.211-1.252 3.326-1.862a7.93 7.93 0 0 1 3.306-1.107c.546-.047 1.071-.129 1.611-.213a4.793 4.793 0 0 1 1.626.178c1.241.228 2.5.363 3.736.594s2.484.541 3.717.845 2.467.628 3.72.848a14.357 14.357 0 0 1 1.926.386c.47.151.922.364 1.405.471a31.387 31.387 0 0 1 3.5.68 19.77 19.77 0 0 0 3.5.766c.623.094 1.245.194 1.861.328a2.282 2.282 0 0 0 1.081.036 2.406 2.406 0 0 0 1.666-1.579c.69-2.091-.645-4.334-2-5.817a29.542 29.542 0 0 0-5.048-3.933 16.253 16.253 0 0 1 2.086.039c.6.011 1.181-.016 1.779.017 1.324.072 2.644-.311 3.97-.339 1.794-.038 4.009-.4 4.478-2.45.436-1.9-1.583-3.619-3.024-4.483-.925-.555-1.862-1.063-2.769-1.65a18.229 18.229 0 0 0-3.235-1.419 29.893 29.893 0 0 0-3.318-1.149 25.768 25.768 0 0 1-3.235-.869 13.514 13.514 0 0 1 2.994-.7c1.013-.189 2.008-.44 3-.714z" class="prefix__cls-2" data-name="Tracé 2018" transform="translate(-81.847 -64.708)"/>
            <path id="prefix__Tracé_2019" d="M796.782 401.618a.963.963 0 0 1-.811.776 20.481 20.481 0 0 1-2.284.294 36.159 36.159 0 0 0-4.119.56 14.863 14.863 0 0 0-3.641 1.377 18.173 18.173 0 0 0 .635-5.315c-.114-1.339-.146-3.357-1.5-4.131a2.8 2.8 0 0 0-1.158-.13l-1.359-.07c-.9-.049-1.788-.144-2.681-.231-1.762-.172-3.51-.386-5.261-.643-.29-.043-.81-.011-1-.262-.143-.185-.075-.476-.064-.684a12.247 12.247 0 0 0-.081-2.144 25.273 25.273 0 0 0-1.107-4.586c-.244-.754-.5-1.5-.75-2.256-.118-.364-.394-.861 0-1.122a3.322 3.322 0 0 1 .961-.233c.34-.085.671-.2 1-.3q1.178-.387 2.353-.781c2.98-.993 5.987-1.92 8.959-2.932.416-.142.829-.29 1.245-.431.18-.061.493-.219.687-.134.227.1.183.35.346.5.142.13.464.139.647.245a5.652 5.652 0 0 1 1.121 1.114c.469.486.994.912 1.457 1.407a26.674 26.674 0 0 1 4.425 6.858 12.572 12.572 0 0 1 .718 2.051 17.308 17.308 0 0 1 .531 2c.247 1.6.256 3.251.454 4.864.166 1.352.6 2.989.278 4.343M784.9 398a14.822 14.822 0 0 1-.294 3.187 23.689 23.689 0 0 1-1.064 3.139c-.366.972-.663 1.974-1.087 2.922s-.956 1.789-1.292 2.76c-.69 1.992-1.871 3.739-2.707 5.663a58.87 58.87 0 0 1-2.867 5.707 20.252 20.252 0 0 1-1.611 2.666 11.931 11.931 0 0 1-1.045 1.143c-.319.306-.473.072-.859.142-.563.1-.854.832-1.218 1.208-.691.712-1.4 1.415-2.153 2.057-.775.657-1.631 1.206-2.426 1.839a13.974 13.974 0 0 1-2.383 1.59c-1.712.87-3.681 1.937-5.657 1.845a2.062 2.062 0 0 1-1.777-1.424 5.379 5.379 0 0 1-.2-2.736 6.177 6.177 0 0 1 .915-2.938c.566-.9.008-1.459-.556-2.209a34.92 34.92 0 0 0-4.463-4.393q-1.184-1.1-2.353-2.208l-1.295-1.226c-.316-.3-.621-.5-.735-.923a21.3 21.3 0 0 0 2.549-1.439c1.618-1.184 3.1-2.628 4.628-3.93a14.19 14.19 0 0 0 1.9-2.157 26.866 26.866 0 0 0 1.71-2.207 48.658 48.658 0 0 0 3.093-5.188 13.721 13.721 0 0 0 .85-2.8c.131-.582.283-1.16.43-1.738a4.057 4.057 0 0 1 .361-1.323c.44-.567 1.821.349 2.327.51a19.39 19.39 0 0 0 2.93.6c2.09.323 4.194.6 6.27 1 1.088.21 2.178.443 3.282.552a30.182 30.182 0 0 0 3.218.043c.23 0 .51.039.664-.172.088-.121.029-.27.17-.383.184-.147.425-.068.636-.046.429.046.859.072 1.288.125a2.231 2.231 0 0 1 .712.089c.167.1.109.413.108.649m-30.075 28.658a8.909 8.909 0 0 0-.8 3.535 8.169 8.169 0 0 0 .194 1.783 4.632 4.632 0 0 1 .308 1.614c-1.268-.587-2.515-1.217-3.808-1.747a11.52 11.52 0 0 1-2.877-2.01c-.988-.812-1.882-1.717-2.831-2.572-1.018-.918-2.081-1.786-3.116-2.683a38.423 38.423 0 0 1-4.906-5.3c-1.331-1.678-3.239-3.819-3.149-6.089a7.351 7.351 0 0 1 .636-3.2 7.267 7.267 0 0 1 1.925-2.185c.7-.5 1.384.762 1.776 1.207.845.957 1.707 1.9 2.565 2.845 1.631 1.8 3.179 3.69 4.943 5.363s3.6 3.335 5.51 4.863a34.245 34.245 0 0 1 2.884 2.345c.319.318.939.669 1.153 1.066.229.428-.23.8-.408 1.164m43.641-24.853c-.269-.035-.256 0-.279-.262a7.476 7.476 0 0 1 .144-1.3 32.006 32.006 0 0 0-.066-5.936 24.95 24.95 0 0 0-3.122-10.905 19.37 19.37 0 0 0-3.276-4.2 21.146 21.146 0 0 0-1.859-1.666c-.335-.247-.822-.371-1.127-.624-.165-.137-.238-.415-.377-.589a2.112 2.112 0 0 0-2.067-.8 15.715 15.715 0 0 0-2.767.612c-1.885.523-3.694 1.412-5.52 2.114s-3.648 1.456-5.458 2.222a12.47 12.47 0 0 0-2.434 1.1 1.182 1.182 0 0 0-.5 1.186 27.984 27.984 0 0 0 1.327 5.265 26.677 26.677 0 0 1 1.121 5.613c-1.869-.137-3.727-.279-5.587-.514-.931-.118-1.866-.214-2.795-.342a2.359 2.359 0 0 1-1.09-.495c-.339-.219-.514-.034-.658.3-.752 1.729-1.049 3.615-1.864 5.331-.366.771-.822 1.49-1.2 2.253a21.56 21.56 0 0 1-1.431 2.414c-.241.356-.55.645-.817.979-.247.309-.425.665-.652.989a14.333 14.333 0 0 1-1.633 1.856c-.585.586-1.151 1.18-1.709 1.79s-1.2 1.087-1.785 1.653c-.546.533-1.022 1.113-1.582 1.636-.54.5-.792 1.2-1.373 1.655-.313.244-.66.44-.972.686-.257.2-.526.558-.892.49-.406-.076-.732-.621-.985-.9q-.49-.543-.988-1.081c-1.3-1.408-2.635-2.789-3.947-4.188-.641-.684-1.347-1.3-1.972-2a1.555 1.555 0 0 0-1.839-.524 8.075 8.075 0 0 0-1.937 1.191 15.055 15.055 0 0 0-1.474 1.973 5.335 5.335 0 0 0-.794 2.3 11.436 11.436 0 0 0-.206 2.6 10.121 10.121 0 0 0 1.4 4.925 13.816 13.816 0 0 0 1.649 1.745 16.5 16.5 0 0 1 1.546 2.081 26.915 26.915 0 0 0 3.506 3.883c.6.569 1.283 1.049 1.888 1.62a17.434 17.434 0 0 0 2.028 1.668 22.183 22.183 0 0 1 2.034 1.8 22.755 22.755 0 0 0 2.167 1.733 15.863 15.863 0 0 0 4.656 2.2c1.876.566 3.691 1.306 5.556 1.9a4.24 4.24 0 0 0 2.629-.4 14.591 14.591 0 0 0 2.519-1.089c1.621-.914 3.178-1.974 4.773-2.937a17.483 17.483 0 0 0 4.311-3.613c1.208-1.4 2.485-2.783 3.585-4.266 2.232-3.012 3.582-6.575 5.239-9.911.881-1.773 1.773-3.518 2.506-5.361.36-.906.683-1.829 1.051-2.732a.765.765 0 0 1 .7-.6c.482-.075.975-.108 1.459-.166 1.916-.228 3.787-.568 5.686-.9a15.389 15.389 0 0 0 5.111-1.514 2.152 2.152 0 0 0 .909-.762c.082-.161.284-.976.17-1.106-.067-.077-.516-.067-.631-.082" class="prefix__cls-2" data-name="Tracé 2019" transform="translate(-516.484 -265.092)"/>
            <path id="prefix__Tracé_2020" d="M680.487 31.015c.612-.322 1.236-.619 1.858-.921 1.318-.641 2.615-1.325 3.948-1.934.6-.276 1.233-.452 1.853-.683.658-.246 1.287-.57 1.918-.876 1.328-.642 2.684-1.2 4.063-1.718q.633-.24 1.268-.474a5.322 5.322 0 0 1 1.058-.39c.536-.063.939.484 1.3.813a16.581 16.581 0 0 1 4.21 6.893 27.493 27.493 0 0 1 .919 4.167 25.973 25.973 0 0 1 .531 4.321c.01 1.491.163 2.962.1 4.456a4.955 4.955 0 0 1-.231 2.046c-.311.492-1.091.63-1.592.812-2.743.995-5.484 2.065-8.267 2.941q-4.344 1.365-8.673 2.772c.118-.821.255-1.643.347-2.467a19.866 19.866 0 0 0 .015-2.36 26.481 26.481 0 0 0-.415-5.1 25.481 25.481 0 0 0-3.331-8.713 17.223 17.223 0 0 0-1.343-1.745c-.169-.2-.734-.677-.714-.986.027-.406.882-.7 1.174-.85m32.918-.332c.633.029 1.043.174 1.087.852.056.864.044 1.739.075 2.6.059 1.656.119 3.313.075 4.97a30.617 30.617 0 0 1-1.274 8.577c-.43 1.341-.944 2.659-1.5 3.953a36.011 36.011 0 0 1-1.975 3.566 7.965 7.965 0 0 1-1.162 1.543c-.217.232-.316.355-.623.395a5.553 5.553 0 0 1-1.014-.063c-1.469-.106-2.937-.251-4.408-.322s-2.923-.009-4.379-.076a17.878 17.878 0 0 1-2-.363c-.678-.109-1.363-.157-2.044-.234-.351-.04-.343.043-.4-.276a2.839 2.839 0 0 1 .03-.564c.018-.336.035-.672.055-1.007a3.991 3.991 0 0 1 .079-1.11c.109-.252.34-.3.582-.362a36.219 36.219 0 0 0 3.972-1.359c1.331-.536 2.678-1.043 3.995-1.617a4.639 4.639 0 0 0 1.637-.94 3.563 3.563 0 0 0 .711-1.363c.858-2.69.589-5.79.337-8.561a30.993 30.993 0 0 0-1.708-8.449c3.282 0 6.573.054 9.853.205m-36.632 2.463a4.6 4.6 0 0 1 2.017 1.905 23.994 23.994 0 0 1 1.8 2.968 25.524 25.524 0 0 1 2.215 7.022 20.54 20.54 0 0 1 .135 7.176 17.193 17.193 0 0 1-.611 1.7 2.772 2.772 0 0 0 .071 1.355c.153.56.682.369 1.122.278.643-.132 1.285-.264 1.927-.4 2.42-.511 4.816-1.4 7.279-1.579a5.536 5.536 0 0 1-.751 1.811 6.605 6.605 0 0 0-1.152 1.613 2.893 2.893 0 0 0-.033 1.8c.2.562.7.57 1.22.633 1.465.178 2.906.419 4.382.5a3.89 3.89 0 0 0 .948-.007 1.675 1.675 0 0 1 .684-.077c.338.062.635.225.99.261a7.226 7.226 0 0 0 1 .011c1.236-.046 2.445.083 3.683-.038.361-.035 1.038-.24 1.375-.034.356.218.077.657.254.96.234.4 1.036.194 1.424.172a3.663 3.663 0 0 0 1.542-.384 8.767 8.767 0 0 0 2.649-2.062 15.854 15.854 0 0 0 1.886-2.987 28.708 28.708 0 0 0 1.59-3.3 23.949 23.949 0 0 0 1.134-3.629c.252-1.234.412-2.487.65-3.725a28.132 28.132 0 0 0 .357-3.916 35.8 35.8 0 0 0 .013-4.05c-.083-1.334-.231-2.642-.387-3.968-.04-.339-.02-.69-.073-1.025a6.642 6.642 0 0 1-.167-.668c-.026-.455.391-.748.38-1.224-.025-1.106-1.2-1.517-2.075-1.781a10.194 10.194 0 0 0-3.591-.466c-2.555.184-5.168.208-7.591 1.141-1.256-2.153-2.426-4.488-4.481-6a2.031 2.031 0 0 1-.633-.539 3.6 3.6 0 0 0-.356-.627 1.457 1.457 0 0 0-1.532-.413 22.345 22.345 0 0 0-3.73 1.057c-.541.216-1.115.318-1.658.529-.522.2-1.021.457-1.523.7-1.1.542-2.234 1-3.332 1.548a51.761 51.761 0 0 0-6.411 3.648 19.3 19.3 0 0 0-2.934 2.236 1.655 1.655 0 0 0-.471 1.378c.063.543.342.332.757.488" class="prefix__cls-2" data-name="Tracé 2020" transform="translate(-476.971 -15.317)"/>
            <path id="prefix__Tracé_2021" d="M183.805 29.589c.108-1.4.064-2.807.166-4.207a32.879 32.879 0 0 1 .627-3.994 17.913 17.913 0 0 1 1.292-3.746c.3-.681.589-1.367.88-2.052.177-.42.307-.856.8-.968a11.625 11.625 0 0 1 2.063-.051q.994-.035 1.985-.122c1.435-.128 2.862-.337 4.3-.486a39.9 39.9 0 0 0 4.082-.509c.7-.146 1.389-.316 2.081-.486a4.364 4.364 0 0 1 1.758-.328 11.643 11.643 0 0 0-.861 4.625c-.006.626-.08.883-.732.844-.814-.048-1.631-.13-2.44-.223-1.527-.176-3.043-.456-4.557-.718-.718-.124-1.407-.3-2.111-.457-.5-.11-.71.088-.877.545-.121.33-.16.479-.47.666a6.927 6.927 0 0 0-.736.481 5.524 5.524 0 0 0-1.078 1.151 13.216 13.216 0 0 0-1.511 3.171 28.223 28.223 0 0 0-1.6 8.672c-.047 1.487-.292 2.944-.308 4.436-.008.658.16 1.5-.389 1.982a15.1 15.1 0 0 1-1.83 1.185 14.586 14.586 0 0 1-.676-4.684c-.017-1.578.022-3.155.142-4.728m22.224-7.963c.656.175 1.315.329 1.977.482-1.125 2.7-1.086 5.679-1.171 8.553a30.212 30.212 0 0 0 .123 3.854 37.2 37.2 0 0 0 .689 3.842c.058.28.2.74.011 1-.2.285-.875.438-1.165.57-1.153.52-2.289 1.084-3.465 1.551-1.193.473-2.432.757-3.6 1.307-1.142.538-2.3 1.031-3.487 1.456-1.168.418-2.38.725-3.508 1.25a13.747 13.747 0 0 0-2.86 1.923 20.675 20.675 0 0 1-.867-5.259 33.635 33.635 0 0 1-.061-5.229 18.4 18.4 0 0 0 .065-2.3c-.014-.7.148-1.391.2-2.089.123-1.539.118-3.077.327-4.61A21.243 21.243 0 0 1 192 19.471a2.431 2.431 0 0 1 .338-.531c.234-.2.151-.16.459 0 .287.147.57.3.867.433a15.076 15.076 0 0 0 1.938.575 17.619 17.619 0 0 0 2.119.634c.723.112 1.459.126 2.182.239.4.063.767.2 1.156.295a6.576 6.576 0 0 0 .961.094c.644.068 1.271.248 1.917.307a11.65 11.65 0 0 1 2.094.11m-23.8 12.519a19.7 19.7 0 0 0 1.39 5.164c.222.53.473 1.273 1.109 1.42.586.135 1.3-.3 1.85-.447.433 2.576.623 5.253 1.772 7.64.145.3.336.863.635 1.061s.676 0 .98-.111a35.667 35.667 0 0 1 3.918-1.129c.645-.163 1.3-.309 1.93-.527a10.43 10.43 0 0 1 1.564-.5 21.214 21.214 0 0 0 3.3-.967 39.763 39.763 0 0 0 6.72-2.762 29.025 29.025 0 0 0 3-1.852c.765-.575 1.622-1.437 1.247-2.482-.113-.316-.424-.839-.781-.935-.336-.091-.637.213-.944.283-.464.106-.36-.268-.4-.634-.034-.288-.069-.576-.1-.864-.073-.6-.145-1.21-.2-1.817-.224-2.515-.119-5.028-.121-7.547a14.738 14.738 0 0 1 .585-3.581q.234-.967.439-1.94a2.364 2.364 0 0 0 .06-1.121c-.234-.818-1.4-1.044-2.089-1.277a14.6 14.6 0 0 0-1.809-.5c-.337-.067-1.236-.015-1.453-.3s.023-1.187.045-1.52c.04-.613.083-1.225.164-1.835a2.729 2.729 0 0 0-.668-2.614c.489-.39.836-1.217.125-1.576a4.221 4.221 0 0 0-2.777-.257 21.759 21.759 0 0 1-2.95.344c-1.03.11-2.057.244-3.085.374-1.768.224-3.569.273-5.316.632-.875.179-1.75.316-2.632.455a2.488 2.488 0 0 0-2.01 1.037 18.442 18.442 0 0 0-2.574 4.665 21.466 21.466 0 0 0-.961 5.01 54.157 54.157 0 0 0-.181 5.483 48.618 48.618 0 0 0 .221 5.523" class="prefix__cls-2" data-name="Tracé 2021" transform="translate(-128.416 -7.556)"/>
            <path id="prefix__Tracé_2022" d="M16.669 296.868c.1-.178.422-.221.59-.288a5.968 5.968 0 0 0 .76-.38 34.779 34.779 0 0 0 3.568-2.291c.279-.21.964-.979 1.367-.858.2.06.306.388.391.548.15.282.306.56.475.83a13.906 13.906 0 0 0 2.436 2.877 9.7 9.7 0 0 0 6.15 2.75 77.119 77.119 0 0 1-4.8 6.254c-.889.981-1.865 1.867-2.788 2.813a1.292 1.292 0 0 1-.45.351 1.588 1.588 0 0 0-.558.284 1.217 1.217 0 0 0-.244 1.1 12.677 12.677 0 0 1-4.9-1.273 21.7 21.7 0 0 1-2.555-1.212 5.425 5.425 0 0 1-1.59-1.175c1.5-.8 3.024-1.561 4.465-2.472.984-.622 2.723-1.348 2.582-2.784a.852.852 0 0 0-.307-.627c-.293-.191-.359.034-.626.092-.432.094-.942-.477-1.272-.723a7.542 7.542 0 0 1-2.292-2.4c-.158-.3-.606-1.07-.4-1.416m-9.162 12.713c.244-.795-.9-1.407-1.4-1.79a7.244 7.244 0 0 1-1.787-2.012 18.342 18.342 0 0 1-2.519-10.6c.045-1.015.16-2.029.183-3.045a7.68 7.68 0 0 1 .094-1.54c.109-.492.24-.979.36-1.469.241-.977.365-1.977.653-2.942a15.145 15.145 0 0 1 1.062-2.583c.285-.554.55-1.33 1.293-1.224a23.216 23.216 0 0 1 2.743.861c1 .276 2.015.507 3.027.745.979.23 1.935.557 2.92.755a7.146 7.146 0 0 0 1.549.137c.229 0 .64-.026.662.287.025.342-.5.714-.717.924a2.834 2.834 0 0 0-.7.968 12.038 12.038 0 0 0-.9 2.924 22.835 22.835 0 0 0-.129 3.007 15.448 15.448 0 0 0 .979 5.788 9.229 9.229 0 0 0 3.062 4l-4.37 2.175a17.317 17.317 0 0 0-3.761 2.179 6.88 6.88 0 0 0-1.335 1.374c-.412.647.168 1.086.782.827.677-.284 1.341-.609 2-.925.431-.206 1.15-.756 1.653-.742.427.012.589.558.779.861a6.584 6.584 0 0 0 1.1 1.3 11.948 11.948 0 0 0 2.994 2.017 14.568 14.568 0 0 0 3.793 1.18 10.532 10.532 0 0 0 2.158.158 4.475 4.475 0 0 0 1.8-.286c.421-.228.2-.692.617-.93.439-.25.9-.437 1.327-.718a6.939 6.939 0 0 0 2.183-2.546c1.349-2.353 2.991-4.5 4-7.041a7.713 7.713 0 0 1 .758-1.813c.257-.345.831-.55.894-1s-.117-1.42-.556-1.624a9.854 9.854 0 0 0-1.8-.368 15.406 15.406 0 0 1-6.54-3 14.869 14.869 0 0 1-1.352-1.278 1.486 1.486 0 0 1-.58-1.183c.057-.44.41-1.082-.31-1.206a2.543 2.543 0 0 0-1.54.42c-1.18.745-2.275 1.641-3.4 2.463-1.027.75-2.079 1.464-3.123 2.19a32.22 32.22 0 0 1 .476-5.282 7.866 7.866 0 0 1 1-2.315c.463-.734.832-1.5 1.236-2.27.225.131.593.423.8.075a2.055 2.055 0 0 0-.01-1.034c-.358-1.842-3.156-2.027-4.6-2.341-2.075-.452-4.147-1-6.248-1.32-.97-.148-1.932-.178-2.908-.237-.5-.031-1.084-.142-1.388.365-.081.136-.093.33-.182.438a3.574 3.574 0 0 1-.43.286 4.72 4.72 0 0 0-.847.9 11.187 11.187 0 0 0-1.175 2.246 21.62 21.62 0 0 0-1.5 5.866 33.635 33.635 0 0 0-.3 6.273 19.3 19.3 0 0 0 3.7 10.772 6.017 6.017 0 0 0 1.95 1.692c.385.2 1.6.917 1.813.21" class="prefix__cls-2" data-name="Tracé 2022" transform="translate(0 -198.062)"/>
            <path id="prefix__Tracé_2023" d="M54.006 492.17c-.747.96-1.492 1.91-2.159 2.929s-1.311 2.071-1.968 3.106a29.416 29.416 0 0 0-1.85 3.038c-.294.617-.322 1.43-1.129 1.4a6.925 6.925 0 0 1-3.016-.841 12.506 12.506 0 0 1-4.627-4.185 25.249 25.249 0 0 1-2.854-6.04c-.379-1.162-.684-2.347-.958-3.538a8.11 8.11 0 0 1-.29-1.82c0-.274.016-.548.03-.822s.157-.711-.14-.729c.089-.745.174-1.489.266-2.233.066-.538.062-1.141.533-1.5a4.422 4.422 0 0 1 1.69-.473q.964-.218 1.91-.509c1.293-.4 2.53-.921 3.778-1.439a16.534 16.534 0 0 0 1.834-.854c.486-.275.834-.675 1.163-.047 2.242 4.273 3.88 9.063 7.551 12.378.3.268.783.59.827 1.029s-.352.838-.589 1.143m2.952-3.021c-.517-.355-1.16-.414-1.685-.742a6.531 6.531 0 0 1-1.411-1.787c-.981-1.346-1.964-2.7-2.85-4.113-.8-1.282-1.532-2.611-2.3-3.912a21.154 21.154 0 0 0-1.271-1.935c-.2-.263-.7-1.195-1.126-1.16-.219.018-.21.231-.367.3-.081.035-.145 0-.224.007-.284.038-.593-.106-.885-.077a12.221 12.221 0 0 0-2.2.584c-1.453.438-2.838 1.055-4.267 1.561a23.1 23.1 0 0 0-4.291 1.619c-.511.308-1.088.8-.586 1.406.19.229.451.223.649.4.167.15.093.233.054.482l-.067.428a15.543 15.543 0 0 0-.212 4.517 32.3 32.3 0 0 0 .961 4.538c1.354 4.685 3.775 10.244 8.534 12.321a14.916 14.916 0 0 0 3.392.819 3.652 3.652 0 0 1 1.009.406 1.021 1.021 0 0 0 .54.189c.431-.053.785-.722.986-1.039.76-1.2 1.622-2.317 2.411-3.493a18.8 18.8 0 0 0 1.129-1.885c.194-.378.332-1 .865-.989l.431.575a1.782 1.782 0 0 1 .186.248c.106.216.1.056.053.312a2.7 2.7 0 0 1-.551.955c-1.12 1.513-2.289 2.99-3.463 4.461a38.5 38.5 0 0 1-3.683 4.149 1.644 1.644 0 0 1-.973.586 5.752 5.752 0 0 1-1.14-.242 18.924 18.924 0 0 1-2.392-.412 5.19 5.19 0 0 0-1.16-.387 1.784 1.784 0 0 1-.9-.269c-.7-.421-1.474-.653-2.179-1.051a15.09 15.09 0 0 1-4.026-3.328c-.553-.667-1.006-1.41-1.549-2.086-.527-.657-1.048-1.309-1.509-2.016a20.7 20.7 0 0 1-2.183-4.473c-.286-.816-.428-1.348.283-1.945a14.2 14.2 0 0 0 1.857-1.827c.272-.33 1.511-1.539.583-1.741-.5-.109-1.305.739-1.683 1.046a10.757 10.757 0 0 1-1.93 1.344c-.806.406-.821.921-.809 1.764a13.672 13.672 0 0 0 1.342 5.017 23.314 23.314 0 0 0 2.6 4.61c1.988 2.74 4.211 5.52 7.3 7.053a14.483 14.483 0 0 0 4.866 1.347 22.129 22.129 0 0 0 3 .126 5.39 5.39 0 0 0 1.382-.082c.329-.1.383-.348.5-.647.282-.707 1.02-1.091 1.519-1.658.533-.606 1.092-1.176 1.64-1.767a30.92 30.92 0 0 0 2.927-4.232c.528-.8 1.1-1.582 1.559-2.424a8.388 8.388 0 0 0 .966-2.348 1.386 1.386 0 0 0-1.07-1.54c-.354-.018-.638.261-.987.3a2.838 2.838 0 0 0-.587-.009c.571-1.386 1.417-2.691 2.058-4.04.362-.761.7-1.531 1.023-2.31.242-.594.53-1.08-.085-1.5" class="prefix__cls-2" data-name="Tracé 2023" transform="translate(-19.051 -335.65)"/>
            <path id="prefix__Tracé_2024" d="M135.234 144.464a26.36 26.36 0 0 0 4.766 6.754 21.171 21.171 0 0 0 3.149 3.017c1.1.833 2.212 1.645 3.322 2.463-1.114 1.431-2.365 2.74-3.606 4.063a17.345 17.345 0 0 0-3.044 3.981 1.815 1.815 0 0 0-1.179-1.464 10.8 10.8 0 0 1-2.2-1.309 33.764 33.764 0 0 1-4.046-3.9c-2.519-2.8-4.125-6.317-5.876-9.607l8.717-4M125.922 151a32.531 32.531 0 0 0 1.606 3.484c.556 1.12 1.132 2.232 1.782 3.3a18.468 18.468 0 0 0 4.666 5.352 21.5 21.5 0 0 0 3 1.925 3.184 3.184 0 0 0 1.6.41c.345-.02.823-.325 1.09-.053s.183.838.759.567a4.61 4.61 0 0 0 1.235-1.068c.885-.945 1.773-1.9 2.622-2.874a29.824 29.824 0 0 0 2.194-3.068c.383-.575.763-1.153 1.143-1.73a2.446 2.446 0 0 0 .639-1.35c-.039-1.021-1.291-1.713-2-2.281a19.346 19.346 0 0 1-2.424-2.243c-.79-.886-1.785-1.628-2.64-2.46a38.619 38.619 0 0 1-2.6-2.874 25.345 25.345 0 0 1-1.874-2.451c-.437-.672-.93-1.188-1.8-1.064a15.2 15.2 0 0 0-2.029.522c-.663.253-1.3.572-1.945.868-1.168.537-2.242 1.217-3.376 1.815a5.58 5.58 0 0 0-.745.449c-.129.1-.259.281-.4.349a1.407 1.407 0 0 1-.287.072 1.34 1.34 0 0 0-.862.789 1.435 1.435 0 0 0-.021 1.662 16.262 16.262 0 0 1 .667 1.95" class="prefix__cls-2" data-name="Tracé 2024" transform="translate(-88.198 -100.692)"/>
            <path id="prefix__Tracé_2025" d="M284.145 220.56c.287.461.757.234 1.026-.094.816-1 1.579-2.074 2.312-3.134.743-1.076 1.424-2.166 2.267-3.17s1.717-2.006 2.6-2.989c3.285-3.675 6.656-7.262 10.277-10.6.885-.816 1.8-1.613 2.646-2.466a2 2 0 0 0 .812-1.369 1.476 1.476 0 0 0-.64-1.13c-.781-.457-1.829.656-2.41 1.071a13.631 13.631 0 0 1-1.386.745 7.078 7.078 0 0 0-1.165.89c-.785.7-1.632 1.3-2.428 1.98s-1.523 1.489-2.317 2.2a27.3 27.3 0 0 0-2.516 2.276c-.746.853-1.375 1.783-2.153 2.613a55.676 55.676 0 0 0-4.423 5.724 15.9 15.9 0 0 0-1.654 3.05c-.229.532-.456 1.067-.672 1.605a7.5 7.5 0 0 0-.317 1.565c.119.023.03 1.051.145 1.235" class="prefix__cls-2" data-name="Tracé 2025" transform="translate(-200.385 -138.088)"/>
            <path id="prefix__Tracé_2026" d="M871.846 551.725a15.424 15.424 0 0 0 1.483-2.688 10.314 10.314 0 0 0 1.138-2.807c.1-.5.158-1 .271-1.492a4.193 4.193 0 0 0 .215-1.36c-.046-.507-.281-2.033-1.051-1.865-.448.1-.358.577-.36.927a4.133 4.133 0 0 1-.168 1.184 18.557 18.557 0 0 1-1.363 2.56 10.215 10.215 0 0 1-1.5 2.269 16.329 16.329 0 0 1-1.929 1.856 7.658 7.658 0 0 0-1.773 1.531c-.263.4-.307.519-.79.629a2.993 2.993 0 0 0-1.085.464 5.2 5.2 0 0 1-1.071.753c-.379.151-.78.241-1.162.382-.884.326-1.656.877-2.559 1.186-.467.16-.942.3-1.415.438a3.219 3.219 0 0 0-1.139.447 1.7 1.7 0 0 0-.36 2.1c.495.615 1.655.23 2.3.152l.025.126a29.5 29.5 0 0 0 3.268-.687 8.651 8.651 0 0 0 1.566-.721 7.308 7.308 0 0 1 1.334-.479 1.9 1.9 0 0 0 1-.7c.329-.456.469-.32.977-.432.816-.179 1.52-1.106 2.081-1.666.684-.683 1.451-1.358 2.069-2.1" class="prefix__cls-2" data-name="Tracé 2026" transform="translate(-604.681 -382.218)"/>
            <path id="prefix__Tracé_2027" d="M368.028 117.357c.191-.3.855-.574 1.16-.771.417-.268.828-.542 1.23-.832.729-.526 1.238-.18 1.884.324a4.057 4.057 0 0 1 1.585 3.659c0 .432.119 1.155-.213 1.51s-.978.307-1.4.392c-.55.111-1.381.807-1.95.6-.5-.179-.323-1.07-.363-1.463a4.016 4.016 0 0 0-.771-2.037 4.192 4.192 0 0 0-.815-.8c-.233-.178-.538-.291-.348-.591m-2.19 2.221a7.18 7.18 0 0 1 1.4.479 3.2 3.2 0 0 1 .91.439c.391.348.233.9.324 1.354.053.267.19.5.092.773-.115.324-.454.379-.626.642-.251.385.073.929.29 1.257.377.57.891.279 1.473.193a11.576 11.576 0 0 0 2.094-.362c.549-.187 1-.622 1.424-.044.156.216.189.407.5.325.256-.067.516-.415.692-.592a5.7 5.7 0 0 0 1.373-4.116 8.422 8.422 0 0 0-1.4-4.619 3.459 3.459 0 0 0-.628-.863c-.261-.223-.6-.311-.837-.571-.352-.388-.271-1.174-.833-1.345-.592-.181-1.443.537-1.891.844-.631.433-1.249.883-1.856 1.347a44.046 44.046 0 0 0-3.931 3.08 1.129 1.129 0 0 0-.162 1.526c.4.46 1.085.161 1.607.252" class="prefix__cls-2" data-name="Tracé 2027" transform="translate(-256.831 -79.525)"/>
            <path id="prefix__Tracé_2028" d="M597.239 524.17a24.33 24.33 0 0 0-1.194-4.295c-.334-.9-1.1-2.461-2.316-2.371-1.342.1-.443 1.85-.312 2.546.51 2.725.8 5.512 1.207 8.255.2 1.359.26 2.76.581 4.1a10.907 10.907 0 0 0 .654 1.9c.175.391.385.9.822 1.076 1.33.535 1-1.8.983-2.379q-.054-2.116-.1-4.232h.109c-.2-1.529-.167-3.071-.43-4.6" class="prefix__cls-2" data-name="Tracé 2028" transform="translate(-418.408 -365.284)"/>
            <path id="prefix__Tracé_2029" d="M37.69 614.744a4.62 4.62 0 0 1-2.06.345c-.555-.053-1.1-.166-1.657-.235a14.288 14.288 0 0 1-4.094-1.16 13.044 13.044 0 0 1-3.286-2.034 17.328 17.328 0 0 1-1.447-1.456A1.784 1.784 0 0 0 24 609.5a6.388 6.388 0 0 0 .64 1.987 11.639 11.639 0 0 0 .968 1.54 11.217 11.217 0 0 0 2.682 2.559 10.737 10.737 0 0 0 3.342 1.574c.666.168 1.347.269 2.021.4a5.793 5.793 0 0 0 1.905.156 12.9 12.9 0 0 0 1.841-.276 4.881 4.881 0 0 0 1.312-.7c.778-.529-.07-2.3-1.021-1.989" class="prefix__cls-2" data-name="Tracé 2029" transform="translate(-16.934 -430.198)"/>
            <path id="prefix__Tracé_2030" d="M147.515 19.3c.362.485 1.138.487 1.087-.223a7.664 7.664 0 0 0-.459-1.906 6.384 6.384 0 0 1-.183-1.96 22.091 22.091 0 0 1 .315-4.611c.282-1.479.464-2.976.793-4.447.323-1.443.909-2.807 1.27-4.238.112-.442.2-1.3-.446-1.405-.538-.084-.855.67-1.063 1.026a17.538 17.538 0 0 0-1.852 3.6 19.377 19.377 0 0 0-.781 3.694c-.136 1.3-.116 2.61-.2 3.913a20.2 20.2 0 0 0 .547 4.638 7.085 7.085 0 0 0 .967 1.918" class="prefix__cls-2" data-name="Tracé 2030" transform="translate(-103.015 -.5)"/>
            <path id="prefix__Tracé_2031" d="M840.193 46.413a1.467 1.467 0 0 0 .049 1.535c.663.871 1.72-1.112 1.88-1.665a30.038 30.038 0 0 0 .981-3.648 30.294 30.294 0 0 0 .136-3.9 26.736 26.736 0 0 0-.671-4.516 6.207 6.207 0 0 0-1.73-3.547c-.444-.368-.749-.09-.812.435a2.9 2.9 0 0 0 .344 1.659 10.659 10.659 0 0 1 .753 3.888 21.428 21.428 0 0 1-.262 7.831 15.217 15.217 0 0 1-.669 1.932" class="prefix__cls-2" data-name="Tracé 2031" transform="translate(-592.686 -21.668)"/>
            <path id="prefix__Tracé_2032" d="M74.172 180.216a16.1 16.1 0 0 0 .544 1.765 14.844 14.844 0 0 0 1.655 3.161 17.761 17.761 0 0 0 4.206 4.287c.529.375 1.815 1.422 2.5 1.073.941-.478-.318-1.7-.7-2.055-.788-.738-1.572-1.481-2.37-2.209a15.9 15.9 0 0 1-2.025-2.542c-.635-.881-1.256-1.774-1.832-2.7-.3-.477-.557-.977-.853-1.454a6.893 6.893 0 0 0-.965-1.044c-.274.131-.242.108-.313.357a1.881 1.881 0 0 0-.019.422 4.033 4.033 0 0 0 .169.937" class="prefix__cls-2" data-name="Tracé 2032" transform="translate(-52.213 -126.093)"/>
            <path id="prefix__Tracé_2033" d="M290.6 202.88c1.493-1.352 3.131-2.494 4.54-3.935.355-.362.629-.574.322-1.07-.205-.331-.441-.5-.787-.272-.828.542-1.617 1.207-2.415 1.8a50.091 50.091 0 0 0-4.81 3.8 13.015 13.015 0 0 0-1.805 2.091c-.545.8-.956 1.613-.347 2.51 1.774-1.633 3.515-3.307 5.3-4.925" class="prefix__cls-2" data-name="Tracé 2033" transform="translate(-201.09 -139.499)"/>
            <path id="prefix__Tracé_2034" d="M906.36 593.51c-.267-.066-.712.23-.91.361-.792.522-1.611 1-2.412 1.512-.737.468-1.465.951-2.191 1.437a1.435 1.435 0 0 0-.788 1.665c.1.349.258.757.663.557a7.672 7.672 0 0 1 .88-.4 16.361 16.361 0 0 0 2.418-1 4.773 4.773 0 0 0 2.754-3.436c-.1-.224-.127-.623-.412-.693" class="prefix__cls-2" data-name="Tracé 2034" transform="translate(-635.021 -418.908)"/>
            <path id="prefix__Tracé_2035" d="M622.8 538.716c-.27-.3-.6-.3-.745.058a3.153 3.153 0 0 0 .1 1.361q.129.9.281 1.786c.06.347.1 1.425.559 1.565.7.216.715-1.484.776-1.83-.147-.5-.287-1.005-.435-1.507a3.737 3.737 0 0 0-.532-1.434" class="prefix__cls-2" data-name="Tracé 2035" transform="translate(-438.87 -380.102)"/>
            <path id="prefix__Tracé_2036" d="M223.65 437.439c-.167-.08-.3-.045-.332-.244-.03-.165.23-.337.269-.479.142-.511-.393.026-.587.188l.552 1.364c.209-.082.417-.166.625-.25-.2-.27-.224-.433-.528-.578" class="prefix__cls-2" data-name="Tracé 2036" transform="translate(-157.344 -308.133)"/>
            <path id="prefix__Tracé_2037" d="M554.89 142.114a2.791 2.791 0 0 0 1.212-.107 6.058 6.058 0 0 0 1.054-.286c.806-.314.737-1.267.551-2.008a15.9 15.9 0 0 0-1.252-2.874c-.23-.479-.452-.959-.66-1.448-.158-.369-.366-.887-.844-.891-.738-.006-.378 1.732-.26 2.145a19.922 19.922 0 0 0 1.3 2.975 12.72 12.72 0 0 1-1.279.07c-.438-.015-.558 0-.665.488a1.623 1.623 0 0 0 .843 1.936" class="prefix__cls-2" data-name="Tracé 2037" transform="translate(-390.891 -95.048)"/>
            <path id="prefix__Tracé_2038" d="M530.6 125.837c.795-.049 1.587-.132 2.377-.221.582-.066 1.6-.077 2.01-.537a1.181 1.181 0 0 0-.015-1.315c-.294-.386-.982-.234-1.419-.234a7.8 7.8 0 0 0-3.381.7c-.388.191-1.26.539-1.167 1.059.116.654 1.109.58 1.6.551" class="prefix__cls-2" data-name="Tracé 2038" transform="translate(-373.251 -87.286)"/>
            <path id="prefix__Tracé_2039" d="M544.5 162.519c-.663.166-.536 1.3-.331 1.781a1.676 1.676 0 0 0 1.789.843c.341-.034.832.089 1.088-.2a1.131 1.131 0 0 0 .07-1.165 2.764 2.764 0 0 0-1.264-.849c-.361-.169-.935-.518-1.351-.413" class="prefix__cls-2" data-name="Tracé 2039" transform="translate(-383.835 -114.804)"/>
            <path id="prefix__Tracé_2040" d="M541.057 137.561c.052-.651-.32-2.114-1.189-2.059-.413.026-.765.617-.84.98a2.453 2.453 0 0 0 .131 1.136c.165.6.412 1.537 1.215 1.4.667-.111.685-.908.683-1.46" class="prefix__cls-2" data-name="Tracé 2040" transform="translate(-380.307 -95.753)"/>
            <path id="prefix__Tracé_2041" d="M565.666 138.216a.621.621 0 0 0 .679.186c.363-.165.3-.6.3-.911l.122-.039c-.206-.572-.341-1.768-1.057-1.93s-.754.622-.688 1.109a2.843 2.843 0 0 0 .644 1.586" class="prefix__cls-2" data-name="Tracé 2041" transform="translate(-398.652 -95.753)"/>
            <path id="prefix__Tracé_2042" d="M489.953 144.5c-.349.035-1.006.2-.949.635.083.638 1.083.752 1.591.814.6.074 1.436.013.863-.742a2.045 2.045 0 0 0-1.505-.707" class="prefix__cls-2" data-name="Tracé 2042" transform="translate(-345.028 -102.104)"/>
            <path id="prefix__Tracé_2043" d="M391.375 403.5l-.375.733 1.177.15c.017-.311-.594-.7-.8-.883" class="prefix__cls-2" data-name="Tracé 2043" transform="translate(-275.882 -284.848)"/>
        </g>
    </g>
</svg>
