<svg xmlns="http://www.w3.org/2000/svg" width="485.735" height="309.189" viewBox="0 0 485.735 309.189">
    <g id="prefix__react-group-267" transform="translate(-45.985 -87.001)">
        <g id="prefix__react-group-268" fill-rule="evenodd" transform="translate(45.985 87.001)">
            <path id="prefix__react-path-269" fill="#7540ee" d="M375.99 324.643c19.457-1.548 38.02 5.7 53.57 17 20.043 14.565 37.03 35.4 48.529 57.344 1.223.942 2.428 1.908 3.625 2.883a163.627 163.627 0 0 1 18.194 16.849c3.094 3.421 11.21 11.74 7.686 16.988a6.231 6.231 0 0 1-3.206 2.195c-3.448 1.235-7.043 1.86-10.444 3.3-4.2 1.782-8.551 4.279-11.241 8.085-.765 1.083-.964 2.36-1.993 2.837-1.09.506-3.146.309-4.338.425l-7.189.7c-5.63.552-11.514.613-17.021 1.972l-25.335 6.255c-5.182 1.279-11.137 1.984-16.051 4.087-7.333 3.138-14.329 7.733-21.346 11.52l-10.179 5.493a10.077 10.077 0 0 1-4.733 1.056l-14.013 1.078c-2.26.174-3.346 1.084-3.642-1.178l-3.257-24.869-1.721-13.15c-.1-.782-.072-4.656-.713-5.124-.4-.293-2.761.338-3.2.392l-6.36.779-13.742 1.682c-.372.045-2.431.022-2.662.326-.271.357.244 2.4.291 2.841l1.458 13.853c.057.535.707 3.019.364 3.458-.238.305-1.964.342-2.315.4l-13.252 2.18c-3.164.517-7.3.491-10.292 1.68-1.718.683-3.417 2.43-4.9 3.522l-21.552 15.856c-3.269 2.4-7.674 1.792-11.654 2.1l-45.916 3.5.115-4.29q.3-11.361.606-22.722l.265-9.906c.017-.627-.234-2.461.176-2.925.545-.615 2.979-.882 3.735-1.106l7.6-2.25 22.3-6.6 22.041-6.524 7.541-2.232c.581-.172 2.609-.4 3.012-.892.509-.619.281-3.258.362-4.042.4-3.827.967-7.636 1.66-11.42 4.995-27.3 16.669-55.021 38.315-73.23 14.311-12.045 32.259-18.7 50.822-20.176zm3.432 54.736c-1.926-2.262-5.162-5.951-8.565-5.339-2.766.5-4.273 3.926-5.236 6.206-3.875 9.161-5.077 19.661-6.281 29.451-.756 6.143-1.364 12.313-1.753 18.49L398.992 425c-.651-4.4-1.174-8.837-1.958-13.213a26.39 26.39 0 0 0-2.41-6.2c-4.157-9.058-8.695-18.567-15.203-26.208z" transform="translate(-128.16 -200.798)"/>
            <path id="prefix__react-path-270" fill="#041531" d="M488.844 87l.337.006c9.16.244 17.237 6.138 23.5 12.375 3.1 3.084 5.923 6.712 7.252 10.934 1.535 4.877 1.03 10.241-.138 15.135-2.58 10.816-5.734 21.688-9.28 32.229-1.745 5.185-4.275 10.27-5.592 15.577-1.086 4.373 3.486 7.557 3.661 12.051a11.036 11.036 0 0 1-7.064 10.411c-1.785.69-3.944.114-5.59.821-1.5.646-2.032 2.554-2.321 4.018a23.9 23.9 0 0 0-.211 6.007c.069 1.233-.238 3.244.363 4.343.413.755 1.165 1 1.814 1.518a23.784 23.784 0 0 1 2.25 2.393c1.279 1.337 2.509 2.062 2.857 4.012l.554-1.329c.953 1.744 1.66 2.58.754 4.236 2.812-.276 4.479 4.826 5.216 6.761 1.35 3.541 2.278 7.22 3.631 10.763 1.855 4.858 4.292 9.652 5.475 14.734.994 4.272 1.781 8.66 2.665 12.961a43.009 43.009 0 0 0 1.842 7.192 25.293 25.293 0 0 0 1.418 2.3c.557 1.094.339 1.672.366 2.87.047 2.136 1.395 3.523 1.818 5.6.453 2.217.822 4.458 1.279 6.68.92 4.475 2.624 8.943 3.035 13.475.477 5.263 1.5 10.461 2.013 15.726.45 4.6-.315 9.539.646 13.989.852 3.95-.2 7.561-.58 11.483-.1 1 1.438 6.924-1.026 5.785.463 1.4 1.112 2.064 1.147 3.6a18.739 18.739 0 0 1-.639 4.3c-.583 2.687-.972 5.616-2.114 8.133-1.292 2.847-3.261 3.188-5.937 4.165-1.812.661-5.075 3.021-6.5.5-.851 2.592-2.514.8-4.377.656.013 0-1.066.4-1.268.427a10.424 10.424 0 0 1-2.081-.275 16.777 16.777 0 0 0-4.809.411c-3.663.759-7.207 1.809-10.925 2.338-7.262 1.033-14.378.545-21.65 1-14.231.885-28.7.142-42.94-.241a37.771 37.771 0 0 1-4.685-.062c-1.626-.254-1.981-1.023-3.248-1.794-2.106-1.28-4.443-.035-6.628.433-6.415 1.373-13.115 1.475-19.581 2.8-13.138 2.7-25.243 8.022-37.827 12.514-5.456 1.947-11.859 5.1-17.742 5.237-7.13.154-5.446-6.868-4.136-11.382-4.119 1.094-10.588 6.09-14.776 3.19-4.99-3.455 1.359-9.2 1.658-13.262-8.918 1.851-19.035 5.911-28.087 2.611-1.742-.635-3.258-1.977-5.128-2.2-1.944-.227-4 .46-5.964.448-4.477-.029-8.825-.624-13.3-.073-9.979 1.229-19.816 1.9-29.875 2.167-10.127.267-20.255.867-30.386.841-5.143-.013-10.381-.623-15.513-.349-2.015.107-6.352 1.571-7.768-.477-1.422 1.7-2.629.565-4.453.755.338-.035-.95.71-1.143.782a7.49 7.49 0 0 1-2.856.237c-2.666-.027-5.157 1.221-7.809 1.1a5 5 0 0 1-1.747-.456c-.135-.055-.1-.635-.319-.683-1.3-.291-.962.5-1.786.905-.913.444-2.265-.274-1.745 1.091-2.478-.109-4.826.726-7.081-.743 1.066 2.356-2.658.4-3.631.36-1.617-.065-3.034.744-4.647.93-1.934.223-3.878-.674-5.771-.127-1.483.429-1.991 1.46-3.534.933a5.239 5.239 0 0 1-2.767-2.485c-.878-1.468-.99-2.123-3.108-2.149-1.57-.019-3.148.319-4.733.316-1.816 0-3.812-.2-5.47.667-1.786.93-2.835 2.346-4.816 3.074-8.907 3.275-18.686 2.408-27.979 2.353-3.921-.023-6.8.337-7.9-4.136-.93-3.779-1.3-7.731-2.19-11.541-1.087-4.668-2.282-9-4.695-13.173-2.34-4.048-4.309-8.229-6.347-12.433-4.238-8.744-10.136-16.184-16.713-23.289-2.5-2.7-5.362-5.708-5.478-9.6a16.241 16.241 0 0 1 3.333-9.509c1.732-2.387 4.585-5.08 7.813-4.523 1.944.335 3.218 1.9 4.669 3.08a17.81 17.81 0 0 0 5.224 2.862 46.483 46.483 0 0 1 12.053 6.245 87.164 87.164 0 0 1 10.932 9.515c6.482 6.647 13.125 13.552 16.85 22.159a79.641 79.641 0 0 1 3.407 10.177c.983 3.452 3.66 2.5 6.669 2 3.668-.605 7.354-.93 11.047-1.313 1.39-.144 3.349-.187 4.186-1.5.923-1.448-.134-3.324-.218-4.827a14.235 14.235 0 0 1 .288-2.177c.077-.89-.186-1.7-.187-2.589a5.979 5.979 0 0 1 2.373-4.758c2.774-2.161 6.82-3.449 10.1-4.638 4.484-1.624 9.289-2.421 13.906-3.58 5.2-1.3 10.43-2.481 15.658-3.666 5.136-1.164 10.265-2.362 15.457-3.259 3.045-.526 6.349-.334 9.3-1.3 3.137-1.022 2.617-4.178 2.608-6.975a94.272 94.272 0 0 1 1.233-13.94c1.439-9.707 4.868-19.207 7.984-28.484 3-8.935 6.722-17.51 12.862-24.76a107.992 107.992 0 0 1 20.924-18.691c7.93-5.465 16.753-9.414 25.031-14.293-1.809-1.384-3.967-2.564-5.006-4.695-1.174-2.405-.676-5.281-.626-7.852a23.373 23.373 0 0 1 1.181-8.212c.567-1.514 2.759-4.385 2.423-6.031-.563-2.764-6.61-4.783-8.836-5.92a85.174 85.174 0 0 1-10.209-5.848 25.553 25.553 0 0 1-7.865-8.077 16.647 16.647 0 0 1-1.307-2.955c-.378-1.145-.113-1.535-1.258-1.618-1.826-.134-4.564 1.7-6.1 2.508-7.933 4.175-16.646 9.793-26.006 9.42-3.4-.135-7.214-1.2-8.415-4.744-1.581-4.663 1.72-9.48 4.616-12.848-5.649.888-16.067 3.663-20.525-1.378-2.971-3.359-.73-8.69 1.761-11.6 3.291-3.847 7.984-6.189 12.318-8.637-5.319-2.028-11.206-3.324-15.884-6.717-4.474-3.245-3.921-8.229-.387-12.057 3.777-4.091 10.382-6.187 15.577-7.706 6.372-1.863 12.7-1.714 19.267-1.589 11.784.224 21.906 4.568 31.571 11.135a123.733 123.733 0 0 1 14.68 11.426c4.251 3.944 8.786 7.612 12.975 11.6 4.059 3.863 7.251 8.65 11.534 12.259 3.642 3.069 7.636 7.418 12.263 8.78 4.907 1.444 9.324 3.834 14.272 5.256 5.613 1.613 10.435 4.309 15.637 6.882 21.831 10.8 45.268 17.825 68.284 25.577 11.772 3.965 23.623 6.76 35.642 9.788a60.06 60.06 0 0 0 17.869 2.057 22.691 22.691 0 0 1 4.224.1c1.038.146 1.828.538 2.756-.082 1.334-.891 1.836-3.212 2.631-4.533-4.432-1.374-8.772-2.861-10.794-7.4a41.383 41.383 0 0 1-2.494-9.272c-.3-1.653-.307-3.321-.563-4.974a15.578 15.578 0 0 1-.542-2.8c-.1.519-3.4-1.188-3.881-1.505-1.848-1.224-2.184-3.692-2.169-5.775a10.361 10.361 0 0 1 2.326-6.723 5.855 5.855 0 0 1 2.755-1.8c.78-.226 1.809.07 2.5-.158 3.051-1.009 3.393-8.56 3.826-11.309.954-6.057 1.9-11.84 3.963-17.646a171.548 171.548 0 0 1 14.34-30.51c4.931-8.258 9.857-18.356 20.7-18.474zm-93.718 254.28c-4.388.76-8.592 2.311-12.831 3.627a115.154 115.154 0 0 1-12.032 2.81c-8.082 1.59-16.342 3.046-24.307 5.119-2.243.584-3.423 1.9-5.38 2.817-1.451.679-2.812-.009-4.321-.067-3.285-.126-6.93.946-10.09 1.745-7.459 1.884-14.078 5.158-20.828 8.776-.6.323-4.688 2.192-4.494 2.966.157.632 5.349-1.064 6.175-1.19 4.18-.637 8.264-1.955 12.414-2.773 3.406-.672 6.851-1.127 10.242-1.874 3.774-.83 11.814-3.717 12.134 2.517.345 6.737-7.094 8.809-11.566 11.952.5.86 7.673-1.975 8.562-2.262 3.051-.984 5.881-2.757 8.987-3.512 5.4-1.314 4.749 4.655 1.766 7.31-3.315 2.949-8.8 3.841-10.633 8.38 2.41.87 5.562-.763 7.776-1.575q4.362-1.6 8.752-3.132c6.567-2.282 12.8-5.425 19.406-7.6 13.545-4.46 27.862-5.738 42.022-6.531-1.262-4.894-2.642-9.76-3.775-14.686-.485-2.108-.93-4.227-1.3-6.359-.256-1.483-.038-5.032-1.06-6.2-1.244-1.425-4.484.576-6.247.538-1.727-.038-2.987-.929-4.583-1.21a14.8 14.8 0 0 0-4.789.415zM140.62 369.611c0 2.34-.406 5.178 2.672 5.451 2.489.221 7.358.506 9.344-1.264-1.9-.927-4.065-1.089-6.086-1.624a24.175 24.175 0 0 1-5.93-2.563zm50.794-42.63c-.936.007-2.516 1.048-3.37 1.338-1.563.531-3.151.979-4.746 1.4-4.794 1.27-10.966 1.467-13.167 6.613-1.1 2.568-1.861 9.172-5.678 9.149-3.394-.022-5.426-4.92-7.847-6.663-2.5-1.8-6.469-.575-9.167.207-2.742.794-7 1.813-6.69 5.288a73.175 73.175 0 0 1 .651 7.325c-.027 3.249-.3 6.491-.3 9.74 1.925-2.637 3.6-7.94 7.015-9 3.446-1.072 5.395 4.948 6.291 7.256 1.111 2.859 2.507 6.1 2.592 9.2.027.973-.564 3.645.112 4.445.6.71 2.91.2 3.656.118 4.618-.481 9.212-1.079 13.845-1.48 2.379-.206 3.027-.728 2.794-3.287a27.165 27.165 0 0 1 .012-5.944c1.125-9.009 6.673-17.25 16.053-18.814 5.652-.943 12.254-.254 17.9.652 2.175.349 4.537 1.4 6.746 1.311 1.632-.068 1.107-.16 1.441-1.7a5.046 5.046 0 0 1 1.551-2.735c.646-.588 1.465-.256 2.074-1.025.441-.557.374-1.315.582-1.956.406-1.248 1.139-2.933 2.6-3.248 2.349-.508 4.846 2.637 6.032 4.26 1.225 1.677 1.595 6.685 3.565 7.34 2.273.756 4.977-2.223 5.451-4.1.637-2.524-.166-5.256-.549-7.756a12.3 12.3 0 0 0-.262-1.949c-.332-.292-2.831-.21-3.273-.232-2.177-.1-4.358-.109-6.537-.115a246.784 246.784 0 0 1-25.4-1.757c1.233 2.009 3.343 5.309 1.177 7.43-1.605 1.572-4.5.783-6.519 1.107-2.848.457-7.65 3.16-10.364 1.184-3.825-2.786.5-7.572 1.923-10.205.3-.565 1.432-2.551.954-3.212-.421-.566-.541-.189-1.148-.184zm-63.708 30.962c-1.953.6-3.921 1.168-5.916 1.61-2.341.518-5.97.015-7.109 2.59-.866 1.958-.436 5.117.268 7.067.806 2.233 2.7 2.808 4.931 2.978a36.986 36.986 0 0 0 7.821-.577 23.7 23.7 0 0 1 3.128-.4c.612 0 1.847.558 2.391.1.7-.593.241-3.962.185-4.77-.137-2-.517-3.974-.62-5.977-.074-1.439.469-3.394-1.218-3.7-1.051-.187-2.948.801-3.861 1.079zm157.728-39.594a23.578 23.578 0 0 1-4.393.411c-.913-.014-2.007-.324-2.851.177-1.559.925-1.327 3.363-1.274 4.884.065 1.845.227 3.718.423 5.555.188 1.756 1.151 4.647-.209 6.152-.96-1.05-1.433-4.484-3.285-4.359-2.037.137-1.1 3.392-.914 4.557 1 6.442 2.136 12.887 3.028 19.348.424 3.071.972 6.12 1.255 9.206.19 2.071.254 3.937 2.569 4.366 2.145.4 4.556-.281 6.725-.333 2.233-.054 3.512-.205 4.8-2.223-3.076-.673-7.948-.261-9.681-3.515-2.02-3.8 2.241-7.21 4.338-9.8 1.61-1.992 4.9-8.616 7.888-4.682 1.076 1.416 1.27 3.578 1.813 5.225.884 2.677 1.963 5.316 3.022 7.926 9.69-5 19.633-9.512 30.2-12.32-2.694-4.554-6.029-8.654-8.046-13.59-2.26-5.532-4.132-11.214-6.442-16.728-3.663 2.138-7.58-3.045-11.227-3.254-5.765-.335-12.09 2.018-17.739 2.997zm-57.4 37.293c-2.009 1.2-4.964 3.524-5.446 5.929-.833 4.159 3.913 1.378 5.379.468a10.636 10.636 0 0 1 9.6-1.34c4.518 1.505 8.681 4.047 13.53 2.116 2.413-.961 7.764-3.015 6.32-6.7-1-2.54-3.909-.361-5.449.549-4.031 2.384-7.37.874-11.4-.847s-8.568-2.537-12.535-.175zM84.962 334.3c-1.613 2.286 1.666 1.792 3.105 2.015 3.01.465 6.11 2.865 5.28 6.261-.809 3.311-3.977 5.381-4.581 8.857-.519 2.985-.019 6.763 2.863 8.4 1.619.92 5.157 1.3 6.787.242 2.488-1.614-.6-4.018-2.248-4.817-2.181-1.06-3.943-1.634-2.863-4.417 1.316-3.394 3.872-6 3.645-9.881-.187-3.217-1.886-6.873-4.979-8.21-2.216-.956-5.498-.593-7.009 1.55zm220.2-9.862c2.788-.119 2.9 3.25 2.758 4.907a67.553 67.553 0 0 0 .267 6.953c.063 3.01.693 12.869-4.63 11.4-3.423-.941-6.24-4.222-8.992-6.33-2.532-1.94-8.968-4.267-9.385-7.946-.471-4.155 4.6-4.932 7.512-5.593 4.147-.939 8.178-3.208 12.467-3.393zm-13.581-109.5a55.408 55.408 0 0 0-13.025 2.552c-2.847.994-7.219 1.706-9.237 4.144-1.744 2.108-.988 5.114-1.555 7.605-.767 3.37-3.094 2.909-5.35.805-2.7-2.519-3.482-4.343-7.241-1.979-7.782 4.894-13.952 12.119-20.125 18.812 4.773 1.446 14.138 1.8 15.723 7.759.866 3.261-1.746 5.633-4.093 7.412-3.031 2.3-6.2 4.423-9.16 6.813-2.767 2.23-8.97 11.11-10.725 3.3-1.087-4.833.949-9.827.085-14.6-3.753 6.052-7.565 12.089-11.006 18.326a66.131 66.131 0 0 0-6.037 16.86c2.19.143 4.47-.969 6.635-.312 2.085.632 3.061 2.6 3.207 4.648.249 3.464-1.351 6.991-2.156 10.318-.552 2.285-1.187 7.471-3.97 8.214-3.172.847-5.163-4.033-6.577-6.015-1.347 2.07-1.324 5.1-1.521 7.471-.135 1.631-1.045 4.681.79 5.583 1.717.845 5.338-.214 7.175-.291 3.408-.145 6.881-.421 10.29-.32 3.221.1 7.959 1.817 9.217-2.141.857-2.695 1.611-12.379 6.18-7.125 2.03 2.333 3.617 4.993 5.577 7.371 1.978 2.4 3.776 2.555 6.729 2.434 5.847-.24 11.556.883 17.277 1.79 5.02.8 4.361-3.465 4.287-7.258-.114-5.88 1.052-12.028 1.688-17.875a175.048 175.048 0 0 1 9.39-40.79c-3.994-1.36-11.154 4.127-14.107-.04-2.428-3.426.691-8.145 1.961-11.348 1.583-4 2.384-8.17 4.967-11.711.815-1.118 1.975-2.616 3.552-2.24 1.354.323 1.893 2.05 2.655 3.024 2.418 3.092 5.507 5.411 7.657 8.784a18.418 18.418 0 0 1 2.765 6.69c.118.666-.031 2.03.437 2.589 1.453 1.731 6.032 1.706 8.067 2.768 6.947 3.626 9.389 14.18 12.087 20.835a32.755 32.755 0 0 1 1.918 5.739c.27 1.328.257 3.016.977 4.207 1.572 2.6 6.456.278 8.853-.124 4.017-.675 8.015-1.318 12.048-1.885 2.461-.345 6.043-1.237 7.918.943 1.944 2.26.826 5.821-.15 8.246-1.593 3.958-3.628 7.74-5.309 11.662-1.341 3.129-2.008 7.159-4.585 9.569a7.2 7.2 0 0 1-8.553.988c-1.5-.97-5.35-10.355-6.366-9.935a163.408 163.408 0 0 0 7.364 21.557c.872 2.125 2.37 6.458 4.575 7.61 1.827.956 5.973-.85 7.843-1.2 1.773-.332 5.272-1.771 6.967-.717 2.054 1.279 2.3 4.69 2.535 6.807.171 1.57-.139 2.742 1.77 2.663a20.326 20.326 0 0 0 3.995-1.041c3-.765 6.109-1.271 9.161-1.764q10.588-1.71 21.169-3.445c6.065-1 12.052-1 17.532-3.876 2.778-1.458 5.963-1.9 8.921-2.879a45.121 45.121 0 0 1 8.929-1.958c6.712-.794 13.242-1.571 19.876-2.931q5.445-1.116 10.864-2.357c3.214-.742 6.321-1.921 9.519-2.648 2.661-.605 4.846-.15 5.986-3.171.818-2.166.627-4.593.837-6.859.96-10.357-2.667-20.772-3.409-31.072-.241-3.336-.315-6.682-.565-10.015-.115-1.527-.045-5.974-1.827-6.8-.162 1.222-.036 3.276-1.424 3.882.678-.3-.212 3.312-.26 3.675-.189 1.44.283 2.982.034 4.395a.84.84 0 0 1-.258 1.124 1.756 1.756 0 0 0-.55.774c-.018 1.008.278.414.292.762.14 3.466-.446 7.059-.2 10.609.265 3.753 1.1 7.434 1.739 11.136.571 3.322 1.187 6.651 1.663 9.988.334 2.342.582 5.031-.678 7.163-2.393 4.048-9.32 3.608-13.354 4.269-6.706 1.1-13.421 2.094-20.151 3.029-2.584.359-5.2 1.178-7.813 1.22-2.793.044-4.287-1.084-6.048-3.145-3.547-4.152-5.835-8.867-8.789-13.384-1.66-2.537-3.04-3.206-5.834-3.98-2.595-.719-4.677-2.612-6.788-4.187-4.434-3.308-10.161-6.9-13.071-11.776-3.062-5.126 1.253-6.828 5.385-8.226-1.006-2.672-2.978-4.819-4.6-7.118-1.847-2.614-3.522-5.329-5.51-7.845-4.053-5.128-8.1-10.229-12.035-15.452a72.771 72.771 0 0 0-11.052-12.309 130.67 130.67 0 0 0-13.841-9.651c-2.472-1.589-6.813-5.648-9.937-5.233-3.031.4-4.23 6.049-4.987 8.422-.869 2.723-1.176 6.519-3.2 8.663-2.975 3.15-6.065-1.812-7.485-4.1-2.6-4.189-5.261-8.341-7.857-12.534-1.183-1.912-2.892-3.73-3.595-5.9-.008-.026-.337-1.89-.005-1.629l.023.021-.023-.025c-.742-.736-3.486-.889-4.511-.977l-.094-.008a34.256 34.256 0 0 0-6.496.166zM262.6 332.4c-2.485-.015-4.964.274-7.438.476a43.551 43.551 0 0 1-6.334-.285c-2.684-.161-4.011.12-3.393 2.892.449 2.017.989 4.7 3.06 5.556 2.8 1.152 6.565 1 9.546 1.433 2.188.32 4.37.609 6.549.974 1.447.243 2.19.5 2.868-1.144.567-1.374.2-3.21.008-4.63-.149-1.089-.06-3.005-.574-3.974-.771-1.446-2.784-1.288-4.292-1.298zm115.869-27.639c3.651 3.338 6.109 7.605 8.866 11.652 1.684 2.471 4.977 6.41 2.585 9.406-2.038 2.554-6.776 1.969-9.626 2.092-4.479.193-8.138 2.217-12.4 3.261-10.736 2.63-1.819-15.416-.332-19.182 1.044-2.642 2.12-5.272 3.382-7.819.569-1.148 1.7-4.5 3.12-4.935 2.047-.636 3.102 4.338 4.401 5.525zm-92.245-37.941c-1.706 3.262-1.983 7.777-2.793 11.339a276.368 276.368 0 0 0-5.056 33.088c5.655-2.243 11.623-2.4 17.594-2.947a91.664 91.664 0 0 1 12.624-.669c.737.031 2.858.406 3.466-.221.816-.841-.172-3.189-.413-4.075-1.311-4.808-1.888-9.776-3.378-14.554-1.519-4.873-3.366-9.739-5.332-14.45-1.437-3.446-3.411-6.806-6.894-8.5-3.05-1.475-7.926-2.631-9.818.989zm-23.287 21.2c2.33 3.512 5.281 6.585 7.556 10.13 1.613 2.515 3.5 7.166-.373 8.764-1.36.561-2.966.318-4.391.343-2.2.038-4.387.228-6.595.175-2.088-.05-4.156-.3-6.239-.412-1.313-.068-2.962.033-4.118-.721-3.1-2.022-.858-6.151.14-8.792a76.439 76.439 0 0 1 3.873-8.119c.958-1.844 2.39-5.6 4.568-6.354 2.578-.892 4.504 3.366 5.578 4.985zm112.97-39.8a159.953 159.953 0 0 1 13.753 19.081c2.043 3.237 4.027 6.512 6.008 9.787 1.3 2.143 2.269 4.885 3.848 6.826 3.6 4.428 4.6-5.233 5.134-7.333 1.958-7.744 4.383-15.425 6.541-23.12h-2.211c-8.813 0-17.263-.135-25.844-2.732-2.429-.729-4.644-2.329-7.229-2.505zm-18.615 1.5c2.788 2.059 20.634 14.148 13.127 18.812-1.553.965-4.092.527-5.847.666-2.25.178-4.534.4-6.757.794-2.877.517-5.672 1.417-8.563 1.873-2.3.363-5.343.786-7.4-.645-3.387-2.361-1.331-7-.213-10 1.59-4.265 3.1-9.974 7.039-12.514.918-.591 2.042-2.7 3.029-2.895 1.549-.296 4.453 3.08 5.584 3.914zm98.456-100.27c-1.346 1.029-1.407 3.168-1.756 4.677-1.174 5.076-2.812 10.017-3.784 15.147a53.442 53.442 0 0 0-.781 15c.31 3.382.346 7.544 2.4 10.424 2.46 3.446 7.332 3.27 11.017 4.29 3.545.982 7.06 4.024 3.193 7.185-1.374 1.123-3.178 1.306-4.537 2.388-1.676 1.336-2.638 3.729-3.35 5.686-.586 1.611-.569 1.919 1.182 2.488a6.21 6.21 0 0 0 2.45.355c1.916-.159 3.626-1.425 5.23-2.376 4.092-2.425 8.818-5.662 13.7-6.028 1.562-.117 3.337.522 4.855.015 1.415-.473.981-.763 1.226-2.079.973-5.216 1.368-10.335 4.028-15.053 1.313-2.328 4.783-7.091 7.109-3.466.971 1.514 1.323 2.253 3.477 1.789 1.753-.378 3.679-1.764 3.332-3.789-.327-1.911-2.84-3.211-4.363-4.049-2.028-1.114-3.45-.986-5.659-1.25-6.068-.725-1.814-9.6-.939-12.93.55-2.093 1.193-4.8-.25-6.688-2.2-2.874-6.983-1.929-10-1.522-4.169.564-8.721.864-12.623-1.028-4.128-2-5.888-6.516-9.759-8.711-1.423-.809-3.929-1.6-5.398-.475zm18.118 36.662c2.869-.039 1.474 4.052.689 5.427a6.926 6.926 0 0 1-8.312 2.952c-2.462-.846-5.125-4.584-1.269-5.2 1.849-.3 3.679-.176 5.432-1.055.994-.504 2.288-2.108 3.459-2.123zm-7.2-21.75c1.782 1.082-1.26 7.993-1.772 9.392-.834 2.283-1.577 3.757.546 5.516 1.476 1.224 4.387 2.28 3 4.718-1.286 2.256-5.7 1.31-7.494.206-2.608-1.605-1.84-4.68-1.264-7.2.375-1.656 3.813-14.558 6.986-12.632zM186 118.985a108.8 108.8 0 0 0 16.933 5.884c5.083 1.237 10.081 2.57 15.319 2.28 4.846-.268 5.424 4.493 2.656 7.79-1.5 1.791-3.249 1.747-5.441 1.816a33.462 33.462 0 0 0-7.37 1.43 109.246 109.246 0 0 0-11.236 3.165 26.636 26.636 0 0 0-5.425 2.656c-1.057.7-3.414 1.969-2.167 2.951 1.8 1.419 7.154-.525 9.3-.653q7.493-.447 14.948-1.374a31.83 31.83 0 0 0 7.349-1.493c1.508-.578 3.176-2.013 4.883-1.649 3.6.769 1.817 6.168.182 7.924-2.428 2.608-6.114 3.76-9.251 5.242-2.192 1.036-4.371 2.133-6.5 3.293-1.006.548-5.692 2.6-5.544 4.158.156 1.638 3.855.812 4.77.663 6.106-.993 11.616-3.354 17.257-5.77 2.469-1.058 4.973-2.072 7.391-3.245 1.689-.82 3.349-2.068 5.215-2.441 4.4-.878 4.206 4.035 5.938 6.689 5.148 7.888 15.094 11.253 22.833 15.811a81.291 81.291 0 0 1 8.407 5.787c1.919 1.483 2.686 3.524 4.829 1.568 1.786-1.63 2.647-4.022 3.791-6.1 1.333-2.414 3.112-4.545 4.478-6.94 2.018-3.537 2.623-6.911-1.81-8.213a37.976 37.976 0 0 1-12.291-6.311c-9.706-7.135-17.759-16.246-27.437-23.436-8.966-6.661-18.473-12.912-29.713-14.7-10.651-1.69-22.339-1.272-32.294 3.218zm290.779 51.235c-.228 1.964-.711 6.153-3.44 6.31-3.314.19-1.088-9.877.789-11.01 3.005-1.813 2.843 3.037 2.65 4.701zm-30.836-.8c-4.137.343-5.316 4.873-1.181 6.478zm15.338-3.977c-.531 2.056-.342 5.356-1.992 6.934-2.326 2.224-3.339-1.04-3.322-2.9.017-1.841.929-6.445 3.393-6.688 2.104-.208.352 2.232 1.92 2.654zm44.642-45.75c-1.512 3.147.114 6.252 1.019 9.345-1.856.6-4.358.146-5.492 2.108a7.257 7.257 0 0 0-.376 4.438c.175 1.1 1.076 2.578.326 3.6-.982 1.335-3.418.718-4.5 2.2-1.645 2.258-.722 7.415 1.587 9.115 3.245 2.388 1.309-3.472 1.11-4.539-.5-2.673 2.271-2.309 4.163-3.389 1.015-.579 1.2-.691 1.429-1.927a7.512 7.512 0 0 0-.17-3.27c-.921-4.164.689-3.484 4-4.4 2.853-.792 2.625-3.072 1.9-5.469-.569-1.879-2.264-4.961-.428-6.563.729-.636 1.835-.234 1.992-1.561.106-.9-1.1-2.364-1.727-2.879-2.178-1.777-3.949 1.35-4.833 3.191z" transform="translate(-45.985 -87.001)"/>
        </g>
    </g>
</svg>
