<svg xmlns="http://www.w3.org/2000/svg" id="prefix__react-group-100" width="199.783" height="285" viewBox="0 0 199.783 285">
    <defs>
        <style>
            .prefix__cls-2{fill-rule:evenodd;fill:#041531}
        </style>
    </defs>
    <g id="prefix__react-group-101">
        <path id="prefix__react-path-104" fill="#7540ee" fill-rule="evenodd" d="M421.25 382l.061.007c.876.169 2.328 2.676 2.923 3.388l5.752 6.892a18.539 18.539 0 0 1 2.421 2.949 16.1 16.1 0 0 1 .816 2.825c3.118 10.9 6.167 21.869 8.438 32.981.489 2.392.953 4.8 1.224 7.228.134 1.2.486 2.963-.036 4.123-.589 1.307-2.485 1.85-3.717 2.255a50.8 50.8 0 0 1-7.387 1.68c-5.981 1.015-12.037 1.6-18.082 2.082-1.847.146-3.748.143-5.583.392-.876.118-.614-.117-.89.472-.385.819-.129 2.527-.175 3.419l-.323 6.3-.88 17.178-.892 17.416-.337 6.6a19.175 19.175 0 0 1-.2 3.832c-.239.861.154.607-.9.658-2.445.118-4.978-.178-7.423-.266l-8.321-.3c-.792-.029-1.677.2-2-.372-.389-.692-.093-2.593-.12-3.365l-.231-6.456-.634-17.723-.865-24.171-9.254 1.862-13.674 2.751c-2.09.421-4.573 1.381-6.732 1.071s-3.03-1.223-3.151-3.259c-.129-2.182-.079-4.38-.05-6.564.048-3.572.151-7.142.286-10.712l18.27-1.646 9.728-.876c.736-.066 2.55.076 2.879-.479.511-.862-.058-3.7-.073-4.673l-.145-9.221-.532-33.928q2.187.072 4.374.132c6.343.179 12.718.438 19.063.243a31.824 31.824 0 0 0 9.2-1.969c1.6-.539 3.178-1.125 4.747-1.741.494-.194 1.947-1.112 2.479-1.009zm-8.54 31.571l-3.241 15.85 11.089-.735z" transform="translate(-314.15 -240.088)"/>
        <g id="prefix__react-group-102">
            <path id="prefix__react-path-105" d="M191.185 47.746c-.227 1.763-.065 3.685-2.056 4.15a39.285 39.285 0 0 1-5.74.46c-2.11.17-4.214.4-6.32.61-2.655.263-2.276-.757-2.857-3.025-.53-2.07-1.377-4.137-2.081-6.156a21.9 21.9 0 0 0-1.164-2.687c-.4-.8-.212-1.89-.648-2.563-1.486-2.3-8.736 3.983-9.409 2.745 1.227-.955 3.35-2.023 3.726-3.658.443-1.921-.778-2.494-2.311-1.792a47.63 47.63 0 0 1-12.244 3.71c1.331-.89 13.369-7.9 9.329-9.982-.911-.469-2.127.414-2.948.747a30.877 30.877 0 0 1-4.025 1.233q-2.15.549-4.312 1.051c-1.011.233-2.813 1.063-3.8.858s.772-.829 1.062-.975c1.265-.637 2.509-1.322 3.744-2.015a21.8 21.8 0 0 0 5.88-4.558c1.257-1.435 3.333-4.57 2.458-6.555a34.7 34.7 0 0 0-2.272-3.3c-.763-1.273-1.378-2.63-2.04-3.956 1.108.487 2.352.612 3.484 1.049s2.28.792 3.457 1.117c2.361.653 4.716.769 7.056 1.3 2.649.6 5.409 1.269 8.1 1.615a15.248 15.248 0 0 1 6.458 2.22 19.675 19.675 0 0 1 8.382 10.994 31.833 31.833 0 0 1 1.147 8.375 55.52 55.52 0 0 1-.057 8.993m-23.009.219a103.393 103.393 0 0 1-9.273 5.493c-1.758 1.016-3.554 1.965-5.347 2.917-1.273.676-2.819 1.919-4.219 2.265-.886.219-.82.236-1.381-.572-.536-.771-1-1.6-1.506-2.4q-1.387-2.2-2.792-4.384c-2.093-3.272-4.182-6.543-6.381-9.745s-4.323-6.485-6.46-9.744c-.993-1.515-1.981-3.036-3.035-4.509-.805-1.125-2.869-2.841-1.889-4.165.91-1.23 2.984-2.253 4.211-3.184 1.5-1.137 3.007-2.262 4.5-3.405 3.213-2.457 6.343-5.02 9.553-7.48a148.713 148.713 0 0 0 9.163 13.7c-2.924 1.866-5.878 3.639-8.959 5.237-2.276 1.18-5.757 2.774-7.194 5.012a3.005 3.005 0 0 0 2.5 4.787 27.015 27.015 0 0 0 4.494-.6c1.068-.165 3.019-.935 3.982-.392-1.731 1.1-8.012 4.324-4.626 7.146 2.42 2.018 6.511-.927 9.125-.321-.8 1.529-1.625 3.968.587 4.8 1.841.692 4.25-.6 5.906-1.282 1.2-.494 2.386-1.005 3.563-1.545a15.59 15.59 0 0 1 3.057-1.484c1.167-.216 3.543 3.036 2.42 3.854m-53.219 112.702c1.638-.3 2.479-.976 2.995 1.013.462 1.782.92 3.5 1.516 5.246a11.347 11.347 0 0 0-6.681 3.161c-1.329 1.225-3.971 4.147-3.316 6.2 1.591 4.983 9.63-6.2 10.585-7.39 1.169 1.709 1.6 3.947 2.181 5.9.414 1.391 1.949 4.057-.081 4.4-2.849.475-8.194 1.536-7.856 5.571.4 4.763 6.458 4.736 9.857 4.95 1.916.12 1.925 1.656 2.2 3.375.122.769.5 1.807-.149 2.37-.579.5-2.354.513-3.108.675-2.2.472-4.4.953-6.594 1.425-2.5.536-3.815-.214-6.148-.9-.864-.253-1.732-.146-1.795-1.113a7.568 7.568 0 0 1 .732-2.1 32.719 32.719 0 0 0 1.61-7.151c.315-3.543-.078-8.855-4.441-9.547-2.076-.329-2.475-.436-3.412-2.384-1.014-2.106-2.622-4.057-2.234-6.484.281-1.758-.193-5.085.929-6.544a10.088 10.088 0 0 1 2.22-1.571c.88-.631 1.727-1.307 2.547-2.013a18.434 18.434 0 0 1 2.312-2.184c.955-.525.984-.167 1.67.652 1.012 1.21 2.622 4.781 4.463 4.446m4.63 7.872a17.828 17.828 0 0 1-2.715 3.167 37.158 37.158 0 0 1-2.574 2.85c-1.032.96-4.7 3.278-3.889.158.628-2.427 2.979-4.392 5.049-5.6.4-.235 5.09-2.51 4.129-.572m4.009 11.553c.363 1.624.559 3.3.869 4.935.159.836 1.039 2.857.68 3.661-.607 1.364-6.075-.251-7.209-.72-2.7-1.117-3.937-3.984-1.448-6.026.943-.774 6.745-3.474 7.108-1.85m3.585 19.508c.3 1.551 1.2 2.988-.277 4.161a12.9 12.9 0 0 1-4.733 1.984c-2.054.472-2.714-.679-3.8-2.159-1.169-1.592-2.413-3.13-3.7-4.624l12.164-2.723a17.233 17.233 0 0 0 .352 3.362m-9.716 7.2c-2.115-.109-4.39.527-6.534.695-2.678.209-5.349.513-8.029.693a51.6 51.6 0 0 1 2.885-6.215c.968-2.077 1.648-2.3 3.875-2.462 2.064-.148 3.519-.859 5.042.892 1.584 1.821 3.019 3.8 4.466 5.729a2.974 2.974 0 0 1-1.7.668m-15.115.447c-.522.38-2.131-.7-2.673-.91a2.583 2.583 0 0 1-1.839-1.567 9.952 9.952 0 0 1-1.373-2.9c-.2-1.331.393-3.083.608-4.405.571 1.377 2.445 1.536 3.711 1.762.958.171 3.8-.1 4.517.581.8.754-.671 2.855-1.054 3.647-.457.945-1.021 3.154-1.9 3.793m-1.022 1.092c-.628.1-2.435.726-2.4-.421.04-1.31 2.527.1 2.4.421m-3.184-.069c-.115 1.1-2.488 1.012-2.543.041-.092-1.64 2.725-1.8 2.543-.041m-2.714-29.746c-.607 1.728-4.3 2.347-5.722 2.879-1.3.486-5.169 2.729-6.506 1.915 4.525-3.11 9.161-6.157 13-10.128a5.711 5.711 0 0 1-.371 2.729c-.261.838-.127 1.839-.4 2.6m-1.125 6.3c-.651 4.234-1.29 8.523-2.171 12.714-1.679-.513-3.064-1.553-4.828-1.915a14.075 14.075 0 0 0-4.9-.1c-3.459.514-6.542 2.225-9.559 3.892a77.27 77.27 0 0 1-.788-8.924c.057-2.42 4.2-3.137 6.077-4.137a11.679 11.679 0 0 1 3.459-1.666 28.038 28.038 0 0 0 3.934-.617c3.112-.96 6.04-2.482 9.089-3.617a13.673 13.673 0 0 1-.318 4.366m-2.908 17.917c-.138.962.036 2.68-.7 3.413-.691.691-2.166.714-3.076.9q-4.161.856-8.316 1.736-1.859.4-3.724.75c-.594.112-2.082.681-2.582.209-.474-.449-.121-1.882-.1-2.483a34.28 34.28 0 0 0 .043-3.607c-.144-2.3-.016-3.187 2.128-4.379a23.2 23.2 0 0 1 7.2-2.6 13.251 13.251 0 0 1 7.542.781c.688.277 1.719.619 2.039 1.361.435 1.009-.311 2.9-.458 3.92m-3.127 37.142c-1.017.638-3.23.529-4.4.658a21.486 21.486 0 0 1-5.658-.2c-1.41-.219-3.516-.522-4.6-1.512-1.536-1.407.236-1.471 1.412-1.373a66.185 66.185 0 0 0 10.292-.16c.665-.048 2.451-.632 3.092-.359.819.349.568 2.5-.144 2.947m-1.938 22.739c-6.367-.619-10.059-5.891-12.368-11.281-1.239-2.894-.792-5.93-.915-8.99-.022-.559-.373-1.946.2-2.363.54-.392 2.724.82 3.315.965a20.457 20.457 0 0 0 9.413.092c1.315-.312 2.051-.893 2.469.41.336 1.049-.216 2.983-.276 4.083-.1 1.9.194 17.282-1.84 17.084m-12.719.006c-.024-.924-.49-10.256-.038-10.285a21.314 21.314 0 0 0 5.169 7.622 14.044 14.044 0 0 0 4.216 2.656c.587.22 3.913.386 4.076 1.114.285 1.275-1.985.76-2.659.657-.54-.084-1.027-.314-1.557-.41a14.592 14.592 0 0 0-2.979.084c-1.541.031-3.054-.13-4.6 0-1.409.121-1.594-.041-1.632-1.441m.94-41.861c5.451-1.762 10.006 1.575 12.883 5.942a9.546 9.546 0 0 1 1.72 7.181c-.1 1.056.087 1.77-.884 2.2s-3.143.11-4.183.159a84.441 84.441 0 0 1-8.956.148c-1.942-.115-2.216-.444-2.182-2.329.04-2.269-.148-4.528-.277-6.8-.139-2.459-.983-5.576 1.879-6.5m-1.771-3.27c0-1.667-.1-3.377.005-5.042s.8-1.569 2.362-1.85c3.374-.61 6.743-1.292 10.071-2.119a18.835 18.835 0 0 1 4.175-.959c1.439-.005 1.363.734 1.267 2.009-.213 2.822-.73 5.6-.888 8.41-.17 3.03-.259 6.1-.245 9.132 0 1.024.254 1.782-.619.824s-1.3-2.489-2.082-3.568A12.633 12.633 0 0 0 80.2 219.6a9.509 9.509 0 0 0-4.477-.186c-.451.091-2.709 1.169-3 .956a14.074 14.074 0 0 1 .038-2.872m19.949 57.783a40.15 40.15 0 0 0 6.98 3.885c1.364.611 6.762 1.9 6.934 3.272.092.734-.8 1.556-1.389 1.643a12.981 12.981 0 0 1-2.725-.467c-2.753-.334-5.5-.336-8.187-1.1-5.363-1.531-10.924-1.962-16.343-3.3-1.289-.317-2.582-.615-3.878-.9-1.231-.273-1.783-.227-1.826-1.542-.1-2.887.732-5.845.739-8.768 4.384.5 8.783.494 13.179.906 1.884.176 1.84.533 2.665 2.179a12.03 12.03 0 0 0 3.85 4.194m-21.375-93.8c-.055-1.069-.1-2.141-.2-3.206-.065-.716-.719-2.718-.35-3.275.438-.662.88-.258 1.664-.277a5.275 5.275 0 0 0 2.751-.984 13.057 13.057 0 0 0 3.861-3.966c.922-1.392.75-3.294.739-4.96-.029-4.31.285-8.514.022-12.842-.121-1.988 1.576-.769 2.947-.511a38.862 38.862 0 0 0 6.957.135c-.085.53-4.744 1.846-5.5 2.347a6.165 6.165 0 0 0-2.875 5.669c.354 4.7 5.533 5.489 9.317 5.5-3.14 2.776-6.223 5.423-8.691 8.848-1.819 2.525-5.024 7.5-2.05 10.3-2.629 1.493-5.235 3.155-8.209 3.873-.133-2.215-.276-4.43-.391-6.646m-1.184-85.852c1.07.688 1.521-.285 2.335-.788 1.147-.709 1.527-.64 1.673-2.224.269-2.938-.967-5.6-2.519-8a14.578 14.578 0 0 0-2.4-3.249c-.908-.779-1.825-.511-2.666-1.316-.33-.317-.259-.763-.805-.751-.359.008-1.233 1.122-1.53 1.368-.938.776-2.085 1.367-3.313.727-1.789-.932-1.215-4.313.175-5.409 1.07-.843 2.335-.713 3.553-.849.914-.1 1.1-.062.728-1.107-.263-.732-.87-1.3-1.17-2.019-.576-1.375-.451-3.046-.7-4.5a23.2 23.2 0 0 1-.727-4.038c.025-1.686.576-2.124 2.037-2.6a14.957 14.957 0 0 0 3.787-2.316c1.365-.96 2.859-1.594 4.261-2.471.952-.6 1.566-1.8 2.613-1.237 1.244.668 2.559 2.6 3.617 3.59-1.548.982-1.907 1.412-1.694 3.335a6.656 6.656 0 0 0 1.9 4.562c.518.472 1.483.85 1.885 1.394.468.634.164.075.1.791-.031.386-.337.638-.27 1.084.3 1.981 2.573.812 3.511.124 3.351-2.459-2.906-4.412-4.393-5.308-1.026-.619-1.534-2.595.092-2.07 1.082.349 3.525 3.309 3.774.611 2.682 1.558 4.338 4.868 6.587 6.961 1.622 1.509 3.8 3.184 2.513 5.595-1.64 3.073-4.894 4.468-7.863 5.794-2.881 1.286-2.282 4.925-.743 7.152a7.753 7.753 0 0 0 3.46 2.668c1.433.639 1.731 1.391 2.044 2.874.348 1.645-.022 2.308-1.446 3.158a39.27 39.27 0 0 1-4.33 2.284c-3.211 1.405-6.542 1.494-9.957 1.973-1.2.168-2.345.517-3-.669-.734-1.335-.788-3.635-1.126-5.124m-.516-6.391c-.8-.424-2.744.983-3.76 1.045a7.857 7.857 0 0 0-4.182.934 35.213 35.213 0 0 0-7.258 6.071q-3.737 3.888-7.451 7.8-1.688 1.766-3.4 3.508a16.411 16.411 0 0 1-2.9 2.852 12.657 12.657 0 0 1 .7-2.041c.1-.42-.073-.776-.01-1.178.021-.131.371-.584.425-.733.142-.393.316-.781.485-1.189.158-.381.135-.776.294-1.173s.615-.681.771-1.085c.458-1.182-.3-1.73-1.512-1.7.474-2.365.682-3.522 3.154-4.355a37.951 37.951 0 0 0 6.84-2.936c1.927-1.105 3.534-2.7 5.386-3.93 1.658-1.1 3.722-2.259 3.705-4.521.94.638 1.821 1.174 2.9.54.908-.536 1.028-.968 2.077-1.069a3.446 3.446 0 0 1 2.152.273c.9.443 1.023.751 1.547-.553.6.5 2.1 2.589 2.05 3.415-.027.455-.1.661-.66.781-.8.17-.769-.438-1.357-.748m-3.738 123.539c-.391.6-2.04.489-2.676.481-1.941-.025-2.62-1.654-3.471-3.228-1.343-2.482-3.349-7.637-1.147-10.241 1.738-2.056 5.125.534 6.311 2.087 1.024 1.341.72 3.353.815 4.962.08 1.357.941 4.756.169 5.939m-5.3.9c-.776.776-3.294.612-4.323.778a41.23 41.23 0 0 0-5.44 1.2c-1.325.4-2.636 1.489-2.985-.359a25.818 25.818 0 0 1-.119-4.984c.03-1.691.207-3.361.354-5.045.1-1.139-.15-3.234.78-4.108.8-.753 2.749-.826 3.789-1.075a15.939 15.939 0 0 1 5.268-.764 11.785 11.785 0 0 0-.013 8.561c.317.8 3.169 5.321 2.69 5.8m-13.052-11.2a63.866 63.866 0 0 0-.451 12.734c.025.254.328 1.415.2 1.6s-1.214.286-1.459.343c-.972.231-1.942.475-2.921.68-1.9.4-2.152-.8-2.526-2.569-.8-3.78.751-7.879 1.691-11.509.458-1.768.8-1.972 2.536-2.118 1.21-.1 3.117-.954 2.933.843m-7.351 15.777c-.727.662-1.455-2.46-1.519-2.778a18.97 18.97 0 0 1-.109-3.828c.006-2-.147-4-.15-5.995 0-1.079-.81-3.285.467-3.856a4.235 4.235 0 0 1 2.2.123c.7.458.425.755.217 1.552-.466 1.789-.868 3.586-1.273 5.39a16.169 16.169 0 0 0-.6 5.3c.062.6 1.231 3.674.767 4.1m23.2-19.7c1.773-.5 1.868.859 1.865 2.159-.27-.207-2.791-1.9-1.865-2.159m-23.728-95.477c-.435.716-3.187.912-3.973 1.1-1.547.371-3.1.739-4.639 1.125a74.765 74.765 0 0 1-8.675 1.917 11.749 11.749 0 0 0 1.831-8.108 88.926 88.926 0 0 0-1.813-12.189c-.932-3.963-2.011-7.9-3.05-11.837-.51-1.934-1.062-3.831-1.741-5.713-.545-1.509-1.391-3.403-.471-4.954a17.327 17.327 0 0 1 5.562 6.151c1.433 2.785 2.683 5.645 4.346 8.31.76 1.218 1.648 2.329 2.461 3.509a14.546 14.546 0 0 0 1.452 2.306c.71.682 1.468 1 1.874-.147.436-1.235-.954-3.68-1.364-4.841-.991-2.8-1.973-5.6-2.737-8.47-.618-2.323-1.64-5.131-1.278-7.581.358-2.426 2-.69 2.837.438a37.094 37.094 0 0 1 3.874 7.676c1.037 2.422 2.246 4.731 3.394 7.1.4.823.925 2.95 1.971 3.195 1.52.356 1.391-1.784 1.246-2.653-.963-5.757-3.478-11.27-4-17.127-.025-.28-.389-2.456-.1-2.638.567-.352 1.331 1.855 1.575 2.4a58.718 58.718 0 0 1 2.969 8.752c.691 2.528 1.316 5.074 2.092 7.578.426 1.376.915 2.73 1.4 4.087.436 1.23.878 3.331 2.014 4.141 1.612 1.149 7.38-1.583 7.964.86.416 1.737-4.933 3.135-6.072 3.663-1.5.694-2.971 1.454-4.471 2.149-1.136.526-2.768.741-3.59 1.73a6.09 6.09 0 0 0-1.036 3.82c-.02.984.662 3.412.146 4.261m-3.645 18.964a10.258 10.258 0 0 1-.705 1.788 24.764 24.764 0 0 1-1.288 3.311c-.475.851-1.177 1.613-1.636 2.477-.436.82-.494 1.766-1 2.587-.582.938-1.545 1.613-2.123 2.545a12.841 12.841 0 0 1-.982 1.475 48.638 48.638 0 0 0-3.989 5.231c-.293.476-1.726 2.553-2.3 2.666-1.192.234.2-1.46.429-1.811 1.689-2.534 3.189-5.2 4.819-7.777 1.579-2.492 3.195-4.965 4.714-7.495 1.239-2.062 2.1-5.023 4.111-6.476q.011.741-.05 1.478m55.071-23.303c.981 4.033 2.154 7.941 3.26 11.938 1.026 3.709 2.392 7.677 2.817 11.5a49.357 49.357 0 0 0 2.692 11.214c.6 1.663 1.221 3.333 1.875 4.977.359.9.76 1.786 1.168 2.668a9.465 9.465 0 0 1 1.184 2.521c.026.581.228.349-.346.786-.594.453-1.624.288-2.316.368a42.707 42.707 0 0 0-5.326 1.328c-3.394.848-7.44 1.521-10.918.931-1.463-.248-2.983-.464-4.429-.787-1.78-.4-2.146-1.135-2.511-2.884-.8-3.825-1.487-7.64-2.147-11.49-.784-4.58-1.633-9.154-2.239-13.763-.611-4.662-1.051-9.328-2.009-13.94 3.865.646 7.5 1.376 11.38.317a13.175 13.175 0 0 0 7.864-5.687m15.129 49.93c.864 1.781-1.219 3.382-2.228 4.753a54.652 54.652 0 0 1-4.122 5.332c-.464-1.858-.872-3.949-2.111-5.475-1.583-1.949-3.43-1.153-5.369-2.074 2.033-.989 4.629-.612 6.786-1.494a51.982 51.982 0 0 0 6.256-2.683c.263.547.523 1.1.787 1.641m-7.54 41.547c-1.3.072-.43-2.668-.346-3.349.232-1.872.467-3.744.67-5.619l3.216 8.482c-1.178.168-2.348.421-3.54.487m-2.114 13.554c.177.394 1 1.707.351 1.949-.895.332-1-1.843-.351-1.949M95 173.351a146.921 146.921 0 0 1-12.73 9.464c-.981.623-1.97.884-2.62-.352-.511-.972.029-2.067.357-3.019a21.527 21.527 0 0 1 3.907-6.51c3.224-3.943 7.062-7.311 11.959-8.866.8-.255 2.038-1.022 2.319.038.165.623-.534 2.18-.676 2.765-.585 2.416-.457 4.836-2.516 6.479m11.917 24.1c.091 2.807-7.581.543-8.537.041 1-.336 8.5-1.3 8.537-.041m2.849.018c.456.121 2.2.276 1.551.873-.584.535-3.231.32-3.933.386.471-1.548.829-1.673 2.382-1.259m-1.421-3.759c-.171.625-.241 1.577-.8 2-.7.533-2.179.209-2.968.214q-2.011.01-4.013.209c-.51.051-2.578.674-3.056.249-.351-.312-.22-1.777.035-2.106.525-.677 1.735-.442 2.493-.469 2.774-.1 5.533-.107 8.309-.1m-1.781-10.374a2.627 2.627 0 0 1-.629-1.455 27.824 27.824 0 0 0-.9-2.654c-.587-2 1.29-1.823 2.667-1.089 3.572 1.9 2.71 8.552 1.826 11.665a4.508 4.508 0 0 1-2.2-2.9c-.168-.579-.356-1.148-.531-1.723-.128-.424-.039-1.558-.234-1.848m.309-32.362c1-.12 1.91 2.974 1.625 3.643-.583 1.37-2.811 2.593-3.946 3.468-.756.582-1.506 1.249-2.313 1.757-.75.471-1.181.207-1.878.433-1.009.326-1.253 1.394-2.286 1.853-1.453.646-3.213.826-4.731 1.409a9.738 9.738 0 0 1-5.459.391c-2.776-.482-6.03-1.859-5.78-5.232.441-5.952 12.261-9 15.484-3.955.839 1.314.826 2.845 1.371 4.255.59 1.527 1.162.927 2.049-.2 1.161-1.472 2.239-3.022 3.355-4.528.361-.487 1.789-3.209 2.509-3.3m-72.436 57.965a10.26 10.26 0 0 1-.348 3c-.355.974-1.074 1.761-1.488 2.708a15.359 15.359 0 0 0-.8 6.295c.078 4.783 1.211 9.428 1.81 14.153a21.3 21.3 0 0 1-5.987-.552c-1.726-.509-2-1.771-2.49-3.36-1.371-4.465-2.851-8.91-3.294-13.586-.211-2.228-.3-4.474-.4-6.71a3.379 3.379 0 0 1 2.123-3.787c3.848-2.111 7.836-3.868 11.644-6.079-.389 2.623-.622 5.267-.77 7.913m164.256-156.7c-.937-.172-1.883-.279-2.828-.392-.493-.059-2.03.023-2.4-.3-.439-.383.321-3.276.36-3.9a73.518 73.518 0 0 0-.381-11.3c-.619-6.733-2.737-12.971-7.623-17.819a19.467 19.467 0 0 0-8.486-5.252c-1.935-.538-3.929-.825-5.868-1.347a29.027 29.027 0 0 0-4.649-1.071c-3.241-.333-6.2-1.558-9.367-2.266-2.327-.521-6.069-1.757-7.578.87a19.32 19.32 0 0 0-3.88-3.477c-1.435-1-1.669-1.989-3.426-.84-3.413 2.233-6.61 4.957-9.8 7.5-2.977 2.373-5.858 4.857-8.979 7.039-3.182 2.226-2.579 6-1.082 9.133 2.816 5.893 7.159 10.931 10.96 15.982q3.572 4.747 7.142 9.5c2.267 3.031 4.228 6.538 6.878 9.261 1.671 1.716 3.664-.528 5.172-1.565 1.871-1.288 3.71-2.624 5.583-3.908 3.9-2.675 8.076-5.181 12.194-7.51l.9 2.548c-.9.068-2.127-.134-2.587.838-.658 1.389.956 1.571 1.239 2.368.253.711-.783 2.59-1.09 3.231a16.657 16.657 0 0 1-2.712 3.878c-4.194 4.7-9.5 8.07-14.888 11.277-5.763 3.432-11.94 5.527-18.249 7.739a82.123 82.123 0 0 1-9.849 2.367 73.54 73.54 0 0 1-9.637 1.867c-6.669.535-13.746.936-20.335-.5a18.893 18.893 0 0 0-2.218-.563 9.687 9.687 0 0 0-1.579.226c-1.192.068-1.876-1-2.823-.007-.474.5-.482 1.327-1.143.4-.84-1.176 1.307-1.4 2.1-1.739a16.743 16.743 0 0 0 6.535-5.7 7.28 7.28 0 0 0 .91-7.433c-1.035-2.686-3.39-4.506-5.158-6.687-.855-1.056-1.642-2.173-2.581-3.159-.5-.527-1.309-1.031-1.34-1.562-.036-.617.333-.924.112-1.674-.057-.2-.3-.306-.355-.521a7.931 7.931 0 0 1 0-.968 4.008 4.008 0 0 0-.823-1.869 7.737 7.737 0 0 0-1.014-1.467c-.637-.514-1.506-.3-2.153-.825-1.025-.823-1.385-2.558-2.292-3.558-1.276-1.407-1.548.015-2.9-.434-1.156-.384-1.143-2.123-2.077-2.712-1.316-.829-2.424.7-3.593 1.036-1.537.447-.947-1.288-2.317-1.446-1.238-.143-2.952 2.367-3.569 3.259-.629-.733-1.316-1.981-2.448-1.534-1.188.47-1.4 2.656-2.267 3.435-.3.271-.239.471-.611.6-.48.161-1.121-.537-1.742-.324-1.253.429-1.1 2.1-1.1 3.185-1.479-.216-2.51-.326-3.005 1.268-.485 1.56-.668.871-2.227 1.378-1.338.443-1.526 1.724-1.748 2.967a3.18 3.18 0 0 0 .2 1.8 1.584 1.584 0 0 1-.166 1.731 12.223 12.223 0 0 0-.913 4.754 13.678 13.678 0 0 0 .063 5.034c.306 1.054.33 2.488 1.362 3.078.409.234 1.1.106 1.453.338.665.443.463 1.117.906 1.764.332.484.867.531 1.239.923a4.415 4.415 0 0 1 .659 1.469c.682 1.544 1.323 2.29-.9 2.379a32.952 32.952 0 0 1-4.2.339c-1.611-.148-2.011-1.049-2.524-2.42-2.584-6.908-3.972-14.4-7.375-20.965-.747-1.442-3.814-7.335-5.11-3.042-1.093 3.621.341 8.04.891 11.645-1.725-1.555-2.363-4.356-3.674-6.254-.968-1.4-4-4.847-5.774-2.873-1.4 1.556-1.05 4.854-.792 6.714.408 2.942 1.348 5.778 2.02 8.664a19.472 19.472 0 0 1-1.849-3.7 24.629 24.629 0 0 0-2.7-4.416 25.948 25.948 0 0 0-3.045-3.337c-.847-.782-2.365-2.494-3.568-2.586-3.1-.237-2.123 5.442-1.651 7.066.977 3.366 2.037 6.639 2.8 10.072 1.483 6.708 3.28 13.261 4.373 20.055.242 1.507.533 2.709-.062 4.157a11.7 11.7 0 0 1-2.038 3.782 39.571 39.571 0 0 0-5.652 7.269 93.053 93.053 0 0 0-5 8.809c-.659 1.4-1.2 2.914-1.955 4.261a23.141 23.141 0 0 0-1.992 3.522A85.852 85.852 0 0 0 .2 149.33c-.646 5.59-.044 13.025 6.7 14.334 3.1.6 5.884-.774 8.68-1.909 2.892-1.174 4.983-3.081 7.341-5.109 2.931-2.519 5.973-4.883 8.935-7.36s5.7-5.227 8.647-7.733a76.6 76.6 0 0 0 8.062-7.978c2.5-2.851 4.526-6.01 6.944-8.9-.009 3.743-.565 7.452-.721 11.19q-.214 5.141-.008 10.276c.138 3.423-.766 6.682-.773 10.1-.008 3.332-.14 6.645-.213 9.974-.033 1.493-.325 3.168.232 4.609.417 1.076 1.726 1.412 2.843 1.7 1.726.448 6.921-.415 7.692 1.43.421 1.006 0 2.839.03 3.951.055 1.833.122 3.665.185 5.5l.2 5.677a34.221 34.221 0 0 1 .185 5.175c-.172 1.415-1 1.23-2.3 1.3-1.973.109-3.947.2-5.921.283-2.9.127-5.918.069-8.694.411-1.166.143-2.44.082-3.67.316a31.937 31.937 0 0 1-4.532.445c-1.261.062-2.883-.029-3.873.9a5.089 5.089 0 0 0-.664 1.069c-.456.674-.2.5-.951.649a64.221 64.221 0 0 0-8.564 2.258c-1.432.5-2.761 1.169-4.2 1.639a4.2 4.2 0 0 0-2.808 2.156c-1.113 2.211-.831 5.409-.751 7.791a52.351 52.351 0 0 0 1.843 10.85c.926 3.739 1.653 7.579 3.455 11.014.592 1.129 1.231 2.569 2.441 3.157 1.562.759 3.963.3 5.667.3 1.144 0 4.207.395 5.062-.564.828-.929-.005-3.548-.122-4.7-.41-4.039-1.147-8.115-1.137-12.181.933 1.378 2.551 3.758 4.169 1.646.4-.52.243-.761.95-1.063a4.665 4.665 0 0 1 1.643-.24c.58.039.794.272 1.327.158.471-.1 1-.523 1.542-.651 6.7-1.593 13.363-3.309 20.093-4.728 1.779-.375 1.526.991 1.644 2.529.13 1.7-.118 3.42.118 5.1a12.921 12.921 0 0 1 .072 4.368 11.934 11.934 0 0 0 .218 4.906c1.309 6.633 1.075 13.827 1.37 20.568.154 3.511-.176 7.1.154 10.588.125 1.319.861 2.048 1.159 3.248.343 1.378-.592 3.132-.876 4.467-.571 2.679-1.574 6.513.261 8.844.991 1.259 2.29 1.442 3.757 1.867 1.756.51 3.486 1.1 5.25 1.586 6.445 1.764 13.409 2.109 20.015 3.081a21.482 21.482 0 0 0 4.745.1c1-.07 3.475.26 4.309-.34.447-.321.22-.724.448-1.117a3.167 3.167 0 0 1 1.263-1.132c.91-.575 1.962-.911 2.116-2.1.375-2.908-3.258-4.448-5.2-5.705-2.483-1.607-5.482-2.228-8.117-3.539-1.454-.724-2.856-1.544-4.257-2.365-.607-.356-1.839-.759-2.262-1.32s-.009-1.388.17-2.206c.738-3.378.489-6.831.871-10.244s.278-6.859.4-10.295c.13-3.539.422-7.069.646-10.6.206-3.264.415-6.58.449-9.847.032-3.029.445-6 .543-9.051.033-1.035-.153-2.912.534-3.789.6-.769 2.6-.672 3.529-.807 2.509-.364 4.9-.683 7.376-.9 5.9-.522 12.469-.907 18.05-2.964 2.3-.848 5.364-2.007 6.127-4.65.878-3.038-.268-6.772-.306-9.878-.04-3.316-1-6.552-1.723-9.765-.776-3.459-1.265-6.978-2.1-10.424a68.66 68.66 0 0 0-3.2-8.965c-.479-1.218-3.206-5.413-2.36-6.448.456-.557 2.1-.7 2.763-.954a27.7 27.7 0 0 0 4.2-1.956c1.767-1.044 5.636-2.772 5.814-5.092.17-2.218-2.01-4.459-3.117-6.2-1.785-2.807-4.036-5.26-5.736-8.122a133.1 133.1 0 0 1-8.672-18.352 30.1 30.1 0 0 1-1.954-9.813c3.8.009 7.677.477 11.457-.055 4.114-.579 8.234-1.554 12.312-2.358 7.427-1.464 14.557-3.117 21.437-6.413 6.443-3.086 12.98-6.465 18.314-11.364a81.268 81.268 0 0 0 7.953-8.012 66.093 66.093 0 0 0 6.175-9.7 63.181 63.181 0 0 0 5.053-11.6c.264-.811.265-1.844.6-2.61.381-.865 1.074-.887 1.8-1.343 1.018-.641 1.7-2.786-.071-3.11" class="prefix__cls-2" transform="translate(0 -2.808)"/>
            <path id="prefix__react-path-106" d="M278.525 14.826c.87.747 4.618 3.379 5.829 2.739 1.494-.79-.871-3.17-1.508-3.756-.81-.746-3.706-3-4.815-2.795-2.216.419-.289 3.14.494 3.812" class="prefix__cls-2" transform="translate(-168.41 -6.688)"/>
            <path id="prefix__react-path-107" d="M280.376 80.748c.491-.967 1.8-1.323 2.4-2.259a4.348 4.348 0 0 0 .796-3.489 13.9 13.9 0 0 0-5.223 4.005c-1.041 1.239-2.519 3.829.2 3.835l-.071-1.106a1.779 1.779 0 0 0 1.9-.987" class="prefix__cls-2" transform="translate(-168.41 -45.598)"/>
            <path id="prefix__react-path-108" d="M261.783 45.2a12.363 12.363 0 0 0 3.416.323c.89.02 2.105.509 2.826-.042-.64-.37.169-.391.01-.752-.133-.3-.386-.2-.591-.446-.732-.869-1.369-.858-2.53-1.039-.9-.141-2.223-.465-3.088-.018-.91.471-1.262 1.624-.043 1.974" class="prefix__cls-2" transform="translate(-158.682 -26.143)"/>
            <path id="prefix__react-path-109" d="M304.4 106.5a7.521 7.521 0 0 0 1.779-3.507c.061-.381-.213-.673-.18-.953.063-.534 1.161-1.567.011-2.005-1.006-.384-1.951 2.6-2.207 3.248s-.977 1.961-.757 2.6c.182.534.832 1.052 1.355.613" class="prefix__cls-2" transform="translate(-184.217 -60.798)"/>
            <path id="prefix__react-path-110" d="M328.27 5.356a2.79 2.79 0 0 0 1.074-2.287c-.058-.706-.586-3.139-1.181-3.068-1.975.238-1.087 6.464.108 5.354" class="prefix__cls-2" transform="translate(-198.809)"/>
            <path id="prefix__react-path-111" d="M213 285c-.162-.6-.753-4.233-1.775-3.985-.776.188.03 3.39.066 3.811.076.881-1.618.852-2.406.733-1.249-.189-1.148-.92-1.335-2.055-.07-.429-.341-2.367-1.235-1.657-.6.48-.172 2.87-.122 3.415.174 1.889.379 5.114 1.5 6.83.448.684.85 1.022 1.321.145s-.6-3.594-.79-4.5c.889.087 3.447-.2 3.982.722.489.843-.293 3.25 1.275 3.445.93.116.762-.962.672-1.791A33.08 33.08 0 0 0 213 285" class="prefix__cls-2" transform="translate(-125.243 -170.842)"/>
            <path id="prefix__react-path-112" d="M229.37 289.02c-1.03.465.263 7.25 1.77 7.032 1.759-.256-.789-7.475-1.77-7.032" class="prefix__cls-2" transform="translate(-139.227 -175.706)"/>
            <path id="prefix__react-path-113" d="M227.006 281.909c-.127 1.528 1.858 2.1 1.952.437.072-1.281-1.818-2.043-1.952-.437" class="prefix__cls-2" transform="translate(-138.011 -170.842)"/>
            <path id="prefix__react-path-114" d="M199.085 178.174c.906 3.378 9.156 4.814 8.045.259-.557-2.281-2.881-.255-4.5-.52-1.05-.172-4.179-2.121-3.54.261" class="prefix__cls-2" transform="translate(-120.987 -107.612)"/>
            <path id="prefix__react-path-115" d="M183.637 159.382c.388-1.808-3.566-3.8-5-3.3-2.1.728-2.09 5.383-.489 6.621.211.163.856.551 1.173.242.5-.49-.046-.356-.163-.845-.185-.777-.789-1.776-.187-2.66 1.138-1.671 4.111 2.537 4.666-.053" class="prefix__cls-2" transform="translate(-107.612 -94.845)"/>
            <path id="prefix__react-path-116" d="M160.639 187c-1.426-.08-2.594 2.132-.5 1.947.4-.035 1.265-.137 1.5-.558.386-.7-.374-1.353-1-1.388" class="prefix__cls-2" transform="translate(-96.668 -113.692)"/>
            <path id="prefix__react-path-117" d="M334.971 50.357c-.488-.706-1.511-1.841-2.391-1.134-.78.628-.644 2.177-.345 2.947.805 2.073 2.707 3.919 4.86 2.725a35.307 35.307 0 0 0-2.124-4.538" class="prefix__cls-2" transform="translate(-201.849 -29.791)"/>
        </g>
    </g>
</svg>
